<?xml version="1.0" encoding="UTF-8"?>
<svg xmlns="http://www.w3.org/2000/svg" xmlns:xlink="http://www.w3.org/1999/xlink" width="398.94pt" height="179.75pt" viewBox="0 0 398.94 179.75">
<defs>
<g>
<g id="glyph-0-0">
<path d="M 0.203125 0.03125 C 0.578125 0.015625 0.953125 0 1.328125 0 C 1.703125 0 2.0625 0.015625 2.4375 0.03125 L 2.4375 -0.234375 L 2.03125 -0.265625 C 1.734375 -0.28125 1.703125 -0.34375 1.703125 -0.90625 L 1.703125 -3.453125 L 2.8125 -3.453125 L 2.875 -3.921875 C 2.484375 -3.890625 2.09375 -3.890625 1.703125 -3.890625 L 1.703125 -4.640625 C 1.703125 -5.671875 1.8125 -5.921875 2.328125 -5.921875 C 2.5625 -5.921875 2.734375 -5.859375 2.953125 -5.671875 L 3.046875 -5.734375 L 3.046875 -6.421875 C 2.859375 -6.484375 2.75 -6.515625 2.640625 -6.515625 C 2.359375 -6.515625 2.046875 -6.359375 1.84375 -6.140625 L 1.328125 -5.546875 C 1.0625 -5.25 0.953125 -4.859375 0.953125 -4.265625 L 0.953125 -3.890625 L 0.328125 -3.609375 L 0.328125 -3.40625 L 0.953125 -3.453125 L 0.953125 -0.90625 C 0.953125 -0.34375 0.921875 -0.28125 0.625 -0.265625 L 0.203125 -0.234375 Z M 3.015625 0.03125 C 3.390625 0.015625 3.765625 0 4.140625 0 C 4.515625 0 4.875 0.015625 5.25 0.03125 L 5.25 -0.234375 L 4.84375 -0.265625 C 4.546875 -0.28125 4.515625 -0.34375 4.515625 -0.90625 L 4.515625 -4.140625 L 4.4375 -4.203125 C 4.03125 -4 3.5625 -3.875 3.03125 -3.8125 L 3.03125 -3.5625 L 3.359375 -3.5625 C 3.71875 -3.5625 3.765625 -3.5 3.765625 -2.90625 L 3.765625 -0.90625 C 3.765625 -0.34375 3.734375 -0.28125 3.421875 -0.265625 L 3.015625 -0.234375 Z M 3.734375 -5.296875 C 3.734375 -5.03125 3.90625 -4.859375 4.1875 -4.859375 C 4.453125 -4.859375 4.625 -5.03125 4.625 -5.296875 C 4.625 -5.5625 4.453125 -5.75 4.1875 -5.75 C 3.90625 -5.75 3.734375 -5.5625 3.734375 -5.296875 Z M 3.734375 -5.296875 "/>
</g>
<g id="glyph-0-1">
<path d="M 0.171875 0 L 0.953125 0 C 0.953125 0 1.015625 -0.203125 1.484375 -0.84375 L 2.15625 -1.71875 L 3.34375 0.03125 C 3.515625 0.015625 3.703125 0 3.890625 0 C 4.078125 0 4.25 0.015625 4.4375 0.03125 L 4.4375 -0.234375 L 4.21875 -0.265625 C 4.109375 -0.28125 4 -0.34375 3.90625 -0.484375 L 2.578125 -2.28125 L 3.84375 -3.765625 C 3.90625 -3.828125 4 -3.859375 4.15625 -3.859375 L 4.28125 -3.859375 L 4.28125 -4.109375 L 3.546875 -4.109375 L 2.4375 -2.546875 L 1.75 -3.578125 C 1.625 -3.78125 1.515625 -3.890625 1.21875 -4.203125 L 0.171875 -4.015625 L 0.21875 -3.78125 L 0.40625 -3.765625 C 0.578125 -3.75 0.765625 -3.640625 0.859375 -3.515625 L 1.9375 -1.953125 L 0.59375 -0.375 C 0.53125 -0.296875 0.421875 -0.234375 0.328125 -0.234375 L 0.171875 -0.234375 Z M 0.171875 0 "/>
</g>
<g id="glyph-0-2">
<path d="M 0.234375 -1.953125 C 0.234375 -1.390625 0.359375 -0.90625 0.609375 -0.578125 C 0.953125 -0.09375 1.5625 0.171875 2.234375 0.171875 C 2.5625 0.171875 2.90625 0.109375 3.265625 -0.046875 C 3.515625 -0.15625 3.703125 -0.265625 3.734375 -0.328125 L 3.90625 -0.625 L 3.796875 -0.71875 C 3.21875 -0.375 3.015625 -0.296875 2.625 -0.296875 C 2.046875 -0.296875 1.5625 -0.5625 1.3125 -1 C 1.140625 -1.296875 1.078125 -1.546875 1.0625 -2.0625 L 2.375 -2.0625 C 2.984375 -2.0625 3.375 -2.09375 4 -2.1875 C 4 -2.3125 4.015625 -2.390625 4.015625 -2.5 C 4.015625 -3.53125 3.34375 -4.203125 2.34375 -4.203125 C 2.015625 -4.203125 1.625 -4.078125 1.265625 -3.875 C 0.53125 -3.453125 0.234375 -2.890625 0.234375 -1.953125 Z M 1.078125 -2.421875 C 1.078125 -2.84375 1.125 -3.03125 1.234375 -3.265625 C 1.421875 -3.65625 1.8125 -3.90625 2.234375 -3.90625 C 2.53125 -3.90625 2.765625 -3.78125 2.921875 -3.546875 C 3.125 -3.25 3.21875 -2.984375 3.21875 -2.390625 L 2.21875 -2.359375 C 1.796875 -2.359375 1.5625 -2.375 1.078125 -2.421875 Z M 1.078125 -2.421875 "/>
</g>
<g id="glyph-0-3">
<path d="M 0.3125 -1.9375 C 0.3125 -1.21875 0.5625 -0.625 1 -0.265625 C 1.296875 -0.015625 1.71875 0.109375 2.296875 0.109375 C 2.484375 0.109375 2.6875 0.078125 2.734375 0.03125 L 3.71875 -0.796875 L 3.6875 0.03125 C 3.90625 0.015625 4.140625 0 4.375 0 C 4.640625 0 4.921875 0.015625 5.1875 0.03125 L 5.1875 -0.234375 L 4.765625 -0.265625 C 4.46875 -0.28125 4.4375 -0.34375 4.4375 -0.90625 L 4.4375 -6.421875 L 4.359375 -6.5 C 3.96875 -6.34375 3.671875 -6.28125 2.96875 -6.171875 L 2.96875 -5.921875 L 3.46875 -5.921875 C 3.625 -5.921875 3.6875 -5.8125 3.6875 -5.546875 L 3.6875 -3.90625 C 3.1875 -4.125 2.9375 -4.203125 2.625 -4.203125 C 2.375 -4.203125 2.171875 -4.140625 1.9375 -4.03125 L 1.15625 -3.609375 C 0.640625 -3.34375 0.3125 -2.6875 0.3125 -1.9375 Z M 1.09375 -2.234375 C 1.09375 -3.203125 1.578125 -3.78125 2.375 -3.78125 C 2.71875 -3.78125 3.078125 -3.65625 3.390625 -3.453125 C 3.578125 -3.328125 3.6875 -3.203125 3.6875 -3.140625 L 3.6875 -1.984375 C 3.6875 -1.390625 3.671875 -1.3125 3.546875 -1.09375 C 3.296875 -0.6875 2.859375 -0.40625 2.4375 -0.40625 C 1.65625 -0.40625 1.09375 -1.15625 1.09375 -2.234375 Z M 1.09375 -2.234375 "/>
</g>
<g id="glyph-0-4">
<path d="M 0.28125 -1 C 0.28125 -0.296875 0.703125 0.109375 1.421875 0.109375 C 1.578125 0.109375 1.734375 0.078125 1.796875 0.03125 L 2.90625 -0.734375 L 2.859375 0.03125 C 3.09375 0.015625 3.328125 0 3.546875 0 C 3.78125 0 4 0.015625 4.21875 0.03125 L 4.21875 -0.234375 L 3.875 -0.265625 C 3.65625 -0.265625 3.609375 -0.34375 3.609375 -0.78125 L 3.609375 -2.421875 C 3.609375 -3.71875 3.234375 -4.203125 2.203125 -4.203125 C 1.8125 -4.203125 1.453125 -4.09375 1.125 -3.890625 L 0.640625 -3.609375 L 0.640625 -3.03125 L 0.875 -2.96875 L 1 -3.234375 C 1.171875 -3.65625 1.265625 -3.71875 1.6875 -3.71875 C 2.53125 -3.71875 2.875 -3.390625 2.90625 -2.578125 L 2.015625 -2.421875 C 0.796875 -2.1875 0.28125 -1.765625 0.28125 -1 Z M 1.0625 -1.125 C 1.0625 -1.453125 1.234375 -1.765625 1.5 -1.9375 C 1.734375 -2.0625 2.21875 -2.1875 2.90625 -2.296875 L 2.90625 -1.109375 C 2.640625 -0.75 2.078125 -0.40625 1.734375 -0.40625 C 1.375 -0.40625 1.0625 -0.734375 1.0625 -1.125 Z M 1.0625 -1.125 "/>
</g>
<g id="glyph-0-5">
<path d="M 0.046875 -3.859375 L 0.359375 -3.84375 C 0.515625 -3.828125 0.546875 -3.75 0.640625 -3.546875 L 2.171875 0.0625 L 2.625 0.0625 C 2.671875 -0.234375 2.8125 -0.515625 2.984375 -0.90625 L 4.046875 -3.234375 C 4.25 -3.703125 4.375 -3.828125 4.546875 -3.84375 L 4.828125 -3.859375 L 4.828125 -4.109375 C 4.546875 -4.09375 4.265625 -4.078125 3.984375 -4.078125 C 3.703125 -4.078125 3.421875 -4.09375 3.140625 -4.109375 L 3.140625 -3.859375 L 3.515625 -3.84375 C 3.796875 -3.828125 3.796875 -3.5625 3.546875 -2.953125 L 3.171875 -2 L 2.625 -0.75 L 1.5625 -3.328125 C 1.453125 -3.578125 1.421875 -3.828125 1.703125 -3.84375 L 2.140625 -3.859375 L 2.140625 -4.109375 C 1.796875 -4.09375 1.4375 -4.078125 1.09375 -4.078125 C 0.75 -4.078125 0.40625 -4.09375 0.046875 -4.109375 Z M 0.046875 -3.859375 "/>
</g>
<g id="glyph-0-6">
<path d="M 0.1875 0.03125 C 0.5625 0.015625 0.9375 0 1.3125 0 C 1.6875 0 2.046875 0.015625 2.421875 0.03125 L 2.421875 -0.234375 L 2.015625 -0.265625 C 1.703125 -0.28125 1.6875 -0.34375 1.6875 -0.90625 L 1.6875 -4.15625 L 1.609375 -4.203125 C 1.140625 -4.015625 0.6875 -3.890625 0.203125 -3.828125 L 0.203125 -3.578125 L 0.53125 -3.578125 C 0.890625 -3.578125 0.9375 -3.515625 0.9375 -2.921875 L 0.9375 -0.90625 C 0.9375 -0.34375 0.90625 -0.28125 0.59375 -0.265625 L 0.1875 -0.234375 Z M 0.859375 -5.296875 C 0.859375 -5.03125 1.03125 -4.859375 1.3125 -4.859375 C 1.578125 -4.859375 1.75 -5.03125 1.75 -5.296875 C 1.75 -5.5625 1.578125 -5.75 1.3125 -5.75 C 1.03125 -5.75 0.859375 -5.5625 0.859375 -5.296875 Z M 0.859375 -5.296875 "/>
</g>
<g id="glyph-0-7">
<path d="M 0.234375 -1.875 C 0.234375 -0.671875 1.078125 0.171875 2.28125 0.171875 C 2.75 0.171875 3.421875 0.015625 3.515625 -0.125 L 3.703125 -0.40625 L 3.609375 -0.546875 C 3.28125 -0.359375 2.984375 -0.28125 2.671875 -0.28125 C 1.671875 -0.28125 1.015625 -1.0625 1.015625 -2.234375 C 1.015625 -3.203125 1.46875 -3.734375 2.28125 -3.734375 C 2.671875 -3.734375 3.09375 -3.546875 3.265625 -3.328125 L 3.328125 -2.78125 L 3.578125 -2.78125 C 3.578125 -3.203125 3.609375 -3.5625 3.703125 -3.890625 C 3.34375 -4.09375 3.03125 -4.203125 2.65625 -4.203125 C 2.234375 -4.203125 1.734375 -4.03125 1.1875 -3.6875 C 0.5625 -3.296875 0.234375 -2.671875 0.234375 -1.875 Z M 0.234375 -1.875 "/>
</g>
<g id="glyph-0-8">
<path d="M 0.046875 0.03125 C 0.421875 0.015625 0.796875 0 1.15625 0 C 1.53125 0 1.90625 0.015625 2.28125 0.03125 L 2.28125 -0.234375 L 1.875 -0.265625 C 1.5625 -0.28125 1.546875 -0.34375 1.546875 -0.90625 L 1.546875 -2.8125 C 1.546875 -3.21875 2.125 -3.65625 2.671875 -3.65625 C 3.28125 -3.65625 3.671875 -3.203125 3.671875 -2.515625 L 3.671875 0.03125 C 3.90625 0.015625 4.140625 0 4.375 0 C 4.625 0 4.875 0.015625 5.125 0.03125 L 5.125 -0.234375 L 4.75 -0.265625 C 4.453125 -0.28125 4.421875 -0.34375 4.421875 -0.90625 L 4.421875 -2.640625 C 4.421875 -3.6875 3.9375 -4.203125 2.921875 -4.203125 C 2.59375 -4.203125 2.40625 -4.140625 2.21875 -3.96875 L 1.546875 -3.390625 L 1.546875 -4.15625 L 1.453125 -4.203125 C 1 -4.015625 0.53125 -3.890625 0.0625 -3.828125 L 0.0625 -3.578125 L 0.390625 -3.578125 C 0.75 -3.578125 0.78125 -3.515625 0.78125 -2.921875 L 0.78125 -0.90625 C 0.78125 -0.34375 0.765625 -0.28125 0.453125 -0.265625 L 0.046875 -0.234375 Z M 0.046875 0.03125 "/>
</g>
<g id="glyph-0-9">
<path d="M 0.265625 -0.03125 C 0.734375 0.109375 1.078125 0.171875 1.5 0.171875 C 2.671875 0.171875 3.5 -0.453125 3.5 -1.328125 C 3.5 -1.609375 3.421875 -1.8125 3.25 -1.984375 C 3.015625 -2.21875 2.71875 -2.3125 1.9375 -2.46875 C 1.203125 -2.609375 0.953125 -2.796875 0.953125 -3.203125 C 0.953125 -3.65625 1.265625 -3.90625 1.8125 -3.90625 C 2.421875 -3.90625 2.875 -3.59375 2.875 -3.171875 L 2.875 -2.96875 L 3.125 -2.96875 C 3.140625 -3.484375 3.140625 -3.703125 3.171875 -3.96875 C 2.6875 -4.140625 2.375 -4.203125 2 -4.203125 C 0.96875 -4.203125 0.328125 -3.703125 0.328125 -2.90625 C 0.328125 -2.46875 0.53125 -2.171875 0.9375 -1.984375 C 1.1875 -1.875 1.65625 -1.734375 2.265625 -1.59375 C 2.671875 -1.5 2.84375 -1.3125 2.84375 -0.96875 C 2.84375 -0.5 2.390625 -0.15625 1.75 -0.15625 C 1.09375 -0.15625 0.640625 -0.46875 0.640625 -0.90625 L 0.640625 -1.28125 L 0.359375 -1.28125 C 0.359375 -0.65625 0.34375 -0.390625 0.265625 -0.03125 Z M 0.265625 -0.03125 "/>
</g>
<g id="glyph-0-10">
<path d="M 0.203125 -3.390625 L 0.875 -3.421875 L 0.875 -0.84375 C 0.875 -0.171875 1.171875 0.109375 1.859375 0.109375 C 2.0625 0.109375 2.28125 0.0625 2.34375 0 L 2.765625 -0.46875 L 2.65625 -0.625 C 2.421875 -0.5 2.296875 -0.453125 2.125 -0.453125 C 1.765625 -0.453125 1.625 -0.640625 1.625 -1.078125 L 1.625 -3.421875 L 2.78125 -3.421875 L 2.859375 -3.90625 L 1.625 -3.84375 L 1.625 -4.1875 C 1.625 -4.5625 1.65625 -4.890625 1.734375 -5.46875 L 1.625 -5.5625 C 1.40625 -5.421875 1.140625 -5.3125 0.859375 -5.21875 C 0.890625 -4.953125 0.890625 -4.78125 0.890625 -4.515625 L 0.890625 -3.890625 L 0.203125 -3.578125 Z M 0.203125 -3.390625 "/>
</g>
<g id="glyph-0-11">
<path d="M -0.140625 -5.921875 L 0.359375 -5.921875 C 0.53125 -5.921875 0.59375 -5.8125 0.59375 -5.546875 L 0.59375 -1.375 C 0.59375 -0.8125 0.578125 -0.578125 0.515625 0.046875 L 0.65625 0.109375 L 1.015625 -0.21875 C 1.375 0.015625 1.703125 0.109375 2.171875 0.109375 C 2.53125 0.109375 2.75 0.046875 2.953125 -0.09375 L 3.84375 -0.734375 C 4.234375 -1.015625 4.546875 -1.765625 4.546875 -2.421875 C 4.546875 -3.453125 3.875 -4.203125 2.921875 -4.203125 C 2.5 -4.203125 2.0625 -4.03125 1.828125 -3.8125 L 1.34375 -3.296875 L 1.34375 -6.421875 L 1.265625 -6.5 C 0.875 -6.34375 0.578125 -6.28125 -0.140625 -6.171875 Z M 1.34375 -0.828125 L 1.34375 -2.75 C 1.34375 -2.890625 1.4375 -3.046875 1.578125 -3.203125 C 1.828125 -3.46875 2.171875 -3.609375 2.546875 -3.609375 C 3.296875 -3.609375 3.765625 -3.015625 3.765625 -2.046875 C 3.765625 -1.046875 3.234375 -0.34375 2.46875 -0.34375 C 2 -0.34375 1.34375 -0.640625 1.34375 -0.828125 Z M 1.34375 -0.828125 "/>
</g>
<g id="glyph-0-12">
<path d="M 0.1875 0.03125 C 0.5625 0.015625 0.9375 0 1.3125 0 C 1.6875 0 2.046875 0.015625 2.421875 0.03125 L 2.421875 -0.234375 L 2.015625 -0.265625 C 1.703125 -0.28125 1.6875 -0.34375 1.6875 -0.90625 L 1.6875 -6.421875 L 1.609375 -6.5 C 1.203125 -6.34375 0.90625 -6.28125 0.203125 -6.171875 L 0.203125 -5.921875 L 0.703125 -5.921875 C 0.875 -5.921875 0.9375 -5.8125 0.9375 -5.546875 L 0.9375 -0.90625 C 0.9375 -0.34375 0.90625 -0.28125 0.59375 -0.265625 L 0.1875 -0.234375 Z M 0.1875 0.03125 "/>
</g>
<g id="glyph-0-13">
<path d="M 0.28125 1.15625 C 0.28125 1.96875 1.078125 2.53125 2.21875 2.53125 C 3.578125 2.53125 4.640625 1.6875 4.640625 0.59375 C 4.640625 -0.046875 4.203125 -0.5 3.578125 -0.5 L 2.15625 -0.5 C 1.6875 -0.5 1.46875 -0.609375 1.46875 -0.84375 C 1.46875 -0.96875 1.546875 -1.0625 1.765625 -1.265625 C 1.828125 -1.3125 1.84375 -1.328125 1.875 -1.359375 C 1.96875 -1.359375 2.015625 -1.34375 2.09375 -1.34375 C 2.484375 -1.34375 2.953125 -1.515625 3.328125 -1.765625 C 3.71875 -2.0625 3.921875 -2.421875 3.921875 -2.90625 C 3.921875 -3.078125 3.890625 -3.203125 3.828125 -3.390625 L 4.640625 -3.390625 L 4.875 -3.75 L 4.828125 -3.859375 L 3.5625 -3.828125 C 3.234375 -4.09375 2.90625 -4.203125 2.46875 -4.203125 C 2.078125 -4.203125 1.625 -4.078125 1.25 -3.859375 C 0.75 -3.578125 0.5 -3.140625 0.5 -2.59375 C 0.5 -1.921875 0.90625 -1.46875 1.5625 -1.390625 L 0.859375 -0.84375 C 0.765625 -0.71875 0.71875 -0.59375 0.71875 -0.46875 C 0.71875 -0.21875 0.890625 -0.078125 1.3125 0.046875 L 0.53125 0.46875 C 0.40625 0.546875 0.28125 0.875 0.28125 1.15625 Z M 0.96875 1.140625 C 0.96875 0.734375 1.203125 0.375 1.5625 0.21875 C 1.703125 0.15625 1.953125 0.125 2.5625 0.125 C 3.578125 0.125 3.9375 0.328125 3.9375 0.90625 C 3.9375 1.6875 3.21875 2.25 2.28125 2.25 C 1.5 2.25 0.96875 1.796875 0.96875 1.140625 Z M 1.25 -2.796875 C 1.25 -3.484375 1.578125 -3.890625 2.15625 -3.890625 C 2.75 -3.890625 3.171875 -3.390625 3.171875 -2.625 C 3.171875 -2.046875 2.796875 -1.640625 2.25 -1.640625 C 1.640625 -1.640625 1.25 -2.109375 1.25 -2.796875 Z M 1.25 -2.796875 "/>
</g>
<g id="glyph-0-14">
<path d="M 0.1875 0.03125 C 0.5625 0.015625 0.921875 0 1.296875 0 C 1.71875 0 2.140625 0.015625 2.5625 0.03125 L 2.5625 -0.234375 L 2.109375 -0.265625 C 1.703125 -0.296875 1.6875 -0.328125 1.6875 -0.90625 L 1.6875 -2.453125 C 1.6875 -2.984375 2.046875 -3.4375 2.484375 -3.4375 C 2.75 -3.4375 2.9375 -3.3125 3.078125 -3.03125 L 3.265625 -3.03125 L 3.34375 -4.09375 C 3.25 -4.15625 3.09375 -4.203125 2.921875 -4.203125 C 2.65625 -4.203125 2.375 -4.0625 2.1875 -3.828125 L 1.6875 -3.234375 L 1.6875 -4.15625 L 1.609375 -4.203125 C 1.140625 -4.015625 0.6875 -3.890625 0.203125 -3.828125 L 0.203125 -3.578125 L 0.53125 -3.578125 C 0.890625 -3.578125 0.9375 -3.515625 0.9375 -2.921875 L 0.9375 -0.90625 C 0.9375 -0.34375 0.90625 -0.28125 0.59375 -0.265625 L 0.1875 -0.234375 Z M 0.1875 0.03125 "/>
</g>
<g id="glyph-0-15">
<path d="M 0.28125 -1.9375 C 0.28125 -0.6875 1.078125 0.171875 2.234375 0.171875 C 3.609375 0.171875 4.609375 -0.78125 4.609375 -2.125 C 4.609375 -3.328125 3.71875 -4.203125 2.5 -4.203125 C 1.1875 -4.203125 0.28125 -3.28125 0.28125 -1.9375 Z M 1.125 -2.25 C 1.125 -3.328125 1.546875 -3.90625 2.34375 -3.90625 C 3.15625 -3.90625 3.765625 -3.015625 3.765625 -1.796875 C 3.765625 -0.765625 3.3125 -0.109375 2.59375 -0.109375 C 1.703125 -0.109375 1.125 -0.96875 1.125 -2.25 Z M 1.125 -2.25 "/>
</g>
<g id="glyph-0-16">
<path d="M 0.046875 -3.859375 L 0.296875 -3.84375 C 0.5625 -3.828125 0.671875 -3.671875 0.890625 -2.953125 L 1.8125 0.0625 L 2.234375 0.0625 L 3.109375 -2 C 3.265625 -2.375 3.578125 -3 3.578125 -3 L 4.796875 0.0625 L 5.203125 0.0625 L 6.421875 -3.0625 C 6.671875 -3.703125 6.796875 -3.828125 7 -3.84375 L 7.234375 -3.859375 L 7.234375 -4.109375 C 6.9375 -4.09375 6.65625 -4.078125 6.359375 -4.078125 C 6.0625 -4.078125 5.78125 -4.09375 5.484375 -4.109375 L 5.484375 -3.859375 L 5.78125 -3.84375 C 6.140625 -3.828125 6.203125 -3.59375 6.0625 -3.234375 L 5.625 -1.984375 L 5.1875 -0.875 L 4.15625 -3.46875 C 4.03125 -3.78125 3.96875 -3.953125 3.90625 -4.203125 L 3.703125 -4.203125 L 2.28125 -0.9375 L 1.515625 -3.40625 C 1.4375 -3.671875 1.484375 -3.828125 1.828125 -3.84375 L 2.1875 -3.859375 L 2.1875 -4.109375 C 1.828125 -4.09375 1.484375 -4.078125 1.125 -4.078125 C 0.765625 -4.078125 0.40625 -4.09375 0.046875 -4.109375 Z M 0.046875 -3.859375 "/>
</g>
<g id="glyph-0-17">
<path d="M 0.59375 -0.46875 C 0.59375 -0.203125 0.828125 0.046875 1.09375 0.046875 C 1.375 0.046875 1.625 -0.203125 1.625 -0.46875 C 1.625 -0.75 1.375 -1 1.09375 -1 C 0.828125 -1 0.59375 -0.75 0.59375 -0.46875 Z M 0.59375 -3.5625 C 0.59375 -3.296875 0.828125 -3.046875 1.09375 -3.046875 C 1.375 -3.046875 1.625 -3.28125 1.625 -3.546875 C 1.625 -3.828125 1.375 -4.078125 1.09375 -4.078125 C 0.828125 -4.078125 0.59375 -3.828125 0.59375 -3.5625 Z M 0.59375 -3.5625 "/>
</g>
<g id="glyph-0-18">
<path d="M 1.109375 -1.875 C 1.109375 -0.453125 1.859375 0.953125 3.09375 2.1875 C 3.125 2.125 3.15625 2.09375 3.203125 2.046875 C 3.25 2 3.296875 1.953125 3.34375 1.9375 C 2.21875 0.796875 1.6875 -0.5625 1.6875 -1.875 L 1.6875 -2.59375 C 1.6875 -3.90625 2.21875 -5.265625 3.34375 -6.40625 C 3.296875 -6.4375 3.25 -6.46875 3.203125 -6.515625 C 3.15625 -6.5625 3.125 -6.609375 3.09375 -6.65625 C 1.859375 -5.421875 1.109375 -4.03125 1.109375 -2.59375 Z M 1.109375 -1.875 "/>
</g>
<g id="glyph-0-19">
<path d="M 0.734375 1.9375 C 0.78125 1.953125 0.828125 2 0.875 2.046875 C 0.921875 2.09375 0.953125 2.125 0.984375 2.1875 C 2.21875 0.953125 2.96875 -0.453125 2.96875 -1.875 L 2.96875 -2.59375 C 2.96875 -4.03125 2.21875 -5.421875 0.984375 -6.65625 C 0.953125 -6.609375 0.921875 -6.5625 0.875 -6.515625 C 0.828125 -6.46875 0.78125 -6.4375 0.734375 -6.40625 C 1.875 -5.265625 2.40625 -3.90625 2.40625 -2.59375 L 2.40625 -1.875 C 2.40625 -0.5625 1.875 0.796875 0.734375 1.9375 Z M 0.734375 1.9375 "/>
</g>
<g id="glyph-0-20">
<path d="M 0.140625 1.296875 L 0.265625 1.390625 L 0.640625 1.21875 C 1.359375 0.28125 1.703125 -0.28125 1.953125 -0.96875 L 1.828125 -1.09375 C 1.578125 -1.015625 1.421875 -0.96875 0.953125 -0.828125 C 0.890625 -0.15625 0.65625 0.4375 0.140625 1.296875 Z M 0.140625 1.296875 "/>
</g>
<g id="glyph-0-21">
<path d="M 0.078125 2.25 L 0.078125 2.515625 C 0.453125 2.5 0.8125 2.484375 1.1875 2.484375 C 1.5625 2.484375 1.9375 2.5 2.3125 2.515625 L 2.3125 2.25 L 1.890625 2.21875 C 1.59375 2.203125 1.5625 2.140625 1.5625 1.578125 L 1.5625 -0.109375 C 1.828125 0.046875 2.125 0.109375 2.53125 0.109375 C 2.78125 0.109375 3.015625 0.046875 3.15625 -0.03125 L 4.1875 -0.703125 C 4.546875 -0.9375 4.953125 -1.859375 4.953125 -2.421875 C 4.953125 -3.421875 4.140625 -4.203125 3.09375 -4.203125 C 2.765625 -4.203125 2.4375 -4.109375 2.296875 -3.96875 L 1.5625 -3.296875 L 1.5625 -4.15625 L 1.484375 -4.203125 C 1.03125 -4.015625 0.5625 -3.890625 0.09375 -3.828125 L 0.09375 -3.578125 L 0.421875 -3.578125 C 0.78125 -3.578125 0.8125 -3.515625 0.8125 -2.921875 L 0.8125 1.578125 C 0.8125 2.140625 0.78125 2.203125 0.484375 2.21875 Z M 1.5625 -0.875 L 1.5625 -2.734375 C 1.5625 -2.859375 1.609375 -2.96875 1.734375 -3.109375 C 1.984375 -3.453125 2.359375 -3.609375 2.796875 -3.609375 C 3.640625 -3.609375 4.1875 -3.03125 4.1875 -2.09375 C 4.1875 -1.09375 3.578125 -0.34375 2.78125 -0.34375 C 2.28125 -0.34375 1.921875 -0.515625 1.5625 -0.875 Z M 1.5625 -0.875 "/>
</g>
<g id="glyph-0-22">
<path d="M 0.109375 -3.859375 L 0.265625 -3.84375 C 0.5 -3.8125 0.609375 -3.71875 0.734375 -3.40625 L 2.21875 0.21875 L 2 0.765625 C 1.71875 1.515625 1.375 1.9375 1.03125 1.9375 C 0.890625 1.9375 0.71875 1.859375 0.578125 1.734375 L 0.453125 1.734375 L 0.234375 2.40625 C 0.40625 2.484375 0.5625 2.53125 0.71875 2.53125 C 1.328125 2.53125 1.703125 2.21875 2.046875 1.4375 L 3.875 -2.75 C 4.21875 -3.578125 4.390625 -3.828125 4.625 -3.84375 L 4.875 -3.859375 L 4.875 -4.109375 C 4.578125 -4.09375 4.3125 -4.078125 4.015625 -4.078125 C 3.734375 -4.078125 3.453125 -4.09375 3.171875 -4.109375 L 3.171875 -3.859375 L 3.40625 -3.84375 C 3.78125 -3.8125 3.859375 -3.703125 3.71875 -3.390625 L 2.65625 -0.765625 C 2.46875 -1.109375 2.375 -1.3125 2.203125 -1.75 L 1.625 -3.265625 C 1.484375 -3.65625 1.5 -3.828125 1.84375 -3.84375 L 2.1875 -3.859375 L 2.1875 -4.109375 C 1.828125 -4.09375 1.5 -4.078125 1.140625 -4.078125 C 0.796875 -4.078125 0.453125 -4.09375 0.109375 -4.109375 Z M 0.109375 -3.859375 "/>
</g>
<g id="glyph-0-23">
<path d="M 0.203125 0.03125 C 0.578125 0.015625 0.953125 0 1.328125 0 C 1.703125 0 2.0625 0.015625 2.4375 0.03125 L 2.4375 -0.234375 L 2.03125 -0.265625 C 1.734375 -0.28125 1.703125 -0.34375 1.703125 -0.90625 L 1.703125 -3.453125 L 2.8125 -3.453125 L 2.875 -3.921875 C 2.484375 -3.890625 2.09375 -3.890625 1.703125 -3.890625 L 1.703125 -4.640625 C 1.703125 -5.671875 1.8125 -5.921875 2.328125 -5.921875 C 2.5625 -5.921875 2.734375 -5.859375 2.953125 -5.671875 L 3.046875 -5.734375 L 3.046875 -6.421875 C 2.859375 -6.484375 2.75 -6.515625 2.640625 -6.515625 C 2.359375 -6.515625 2.046875 -6.359375 1.84375 -6.140625 L 1.328125 -5.546875 C 1.0625 -5.25 0.953125 -4.859375 0.953125 -4.265625 L 0.953125 -3.890625 L 0.328125 -3.609375 L 0.328125 -3.40625 L 0.953125 -3.453125 L 0.953125 -0.90625 C 0.953125 -0.34375 0.921875 -0.28125 0.625 -0.265625 L 0.203125 -0.234375 Z M 0.203125 0.03125 "/>
</g>
<g id="glyph-0-24">
<path d="M 0.046875 0.03125 C 0.421875 0.015625 0.796875 0 1.15625 0 C 1.53125 0 1.90625 0.015625 2.28125 0.03125 L 2.28125 -0.234375 L 1.875 -0.265625 C 1.5625 -0.28125 1.546875 -0.34375 1.546875 -0.90625 L 1.546875 -2.8125 C 1.546875 -3.21875 2.125 -3.65625 2.671875 -3.65625 C 3.28125 -3.65625 3.671875 -3.203125 3.671875 -2.515625 L 3.671875 0.03125 C 3.90625 0.015625 4.140625 0 4.375 0 C 4.625 0 4.875 0.015625 5.125 0.03125 L 5.125 -0.234375 L 4.75 -0.265625 C 4.453125 -0.28125 4.421875 -0.34375 4.421875 -0.90625 L 4.421875 -2.640625 C 4.421875 -3.6875 3.9375 -4.203125 2.921875 -4.203125 C 2.59375 -4.203125 2.40625 -4.140625 2.21875 -3.96875 L 1.546875 -3.390625 L 1.546875 -6.421875 L 1.453125 -6.5 C 1.0625 -6.34375 0.765625 -6.28125 0.0625 -6.171875 L 0.0625 -5.921875 L 0.5625 -5.921875 C 0.71875 -5.921875 0.78125 -5.8125 0.78125 -5.546875 L 0.78125 -0.90625 C 0.78125 -0.34375 0.765625 -0.28125 0.453125 -0.265625 L 0.046875 -0.234375 Z M 0.046875 0.03125 "/>
</g>
<g id="glyph-0-25">
<path d="M 0.3125 -1.828125 C 0.3125 -0.65625 1.015625 0.109375 2.125 0.109375 C 2.3125 0.109375 2.46875 0.078125 2.59375 0 L 3.515625 -0.59375 L 3.515625 1.578125 C 3.515625 2.140625 3.484375 2.203125 3.1875 2.21875 L 2.671875 2.25 L 2.671875 2.515625 C 3.078125 2.5 3.5 2.484375 3.90625 2.484375 C 4.28125 2.484375 4.640625 2.5 5.015625 2.515625 L 5.015625 2.25 L 4.609375 2.21875 C 4.296875 2.203125 4.265625 2.140625 4.265625 1.578125 L 4.265625 -2.84375 C 4.265625 -3.40625 4.328125 -3.75 4.46875 -4.078125 L 4.3125 -4.1875 L 3.875 -3.90625 C 3.40625 -4.109375 3.03125 -4.203125 2.640625 -4.203125 C 2.375 -4.203125 2.0625 -4.125 1.9375 -4.046875 L 1.1875 -3.5625 C 0.609375 -3.203125 0.3125 -2.609375 0.3125 -1.828125 Z M 1.09375 -2.21875 C 1.09375 -3.203125 1.59375 -3.78125 2.453125 -3.78125 C 2.890625 -3.78125 3.203125 -3.671875 3.515625 -3.40625 L 3.515625 -1.078125 C 3.515625 -0.953125 3.296875 -0.71875 3.0625 -0.578125 C 2.84375 -0.46875 2.640625 -0.40625 2.421875 -0.40625 C 1.640625 -0.40625 1.09375 -1.140625 1.09375 -2.21875 Z M 1.09375 -2.21875 "/>
</g>
<g id="glyph-0-26">
<path d="M 0.15625 -3.578125 L 0.5 -3.578125 C 0.84375 -3.578125 0.890625 -3.515625 0.890625 -2.921875 L 0.890625 -1.421875 C 0.890625 -0.796875 0.9375 -0.515625 1.09375 -0.296875 C 1.296875 -0.03125 1.640625 0.109375 2.15625 0.109375 C 2.546875 0.109375 2.90625 -0.015625 3.15625 -0.234375 L 3.75 -0.796875 C 3.75 -0.53125 3.75 -0.390625 3.71875 0.03125 C 3.96875 0.015625 4.203125 0 4.453125 0 C 4.703125 0 4.953125 0.015625 5.203125 0.03125 L 5.203125 -0.234375 L 4.828125 -0.265625 C 4.53125 -0.28125 4.5 -0.34375 4.5 -0.90625 L 4.5 -4.15625 L 4.421875 -4.203125 C 3.96875 -4.015625 3.5 -3.890625 3.03125 -3.828125 L 3.03125 -3.578125 L 3.359375 -3.578125 C 3.71875 -3.578125 3.75 -3.515625 3.75 -2.921875 L 3.75 -1.46875 C 3.75 -1.265625 3.625 -1.015625 3.421875 -0.8125 C 3.171875 -0.5625 2.890625 -0.4375 2.53125 -0.4375 C 2.21875 -0.4375 1.96875 -0.53125 1.828125 -0.703125 C 1.703125 -0.84375 1.640625 -1.125 1.640625 -1.515625 L 1.640625 -4.15625 L 1.5625 -4.203125 C 1.09375 -4.015625 0.640625 -3.890625 0.15625 -3.828125 Z M 0.15625 -3.578125 "/>
</g>
<g id="glyph-0-27">
<path d="M 0.1875 0.03125 C 0.5625 0.015625 0.9375 0 1.3125 0 C 1.6875 0 2.046875 0.015625 2.40625 0.03125 L 2.40625 -0.234375 L 2.015625 -0.265625 C 1.703125 -0.28125 1.6875 -0.34375 1.6875 -0.90625 L 1.6875 -2.15625 L 4.0625 0.109375 L 4.921875 -0.15625 L 4.921875 -0.359375 C 4.703125 -0.359375 4.4375 -0.515625 4.15625 -0.78125 L 3.03125 -1.90625 C 2.703125 -2.21875 2.609375 -2.34375 2.453125 -2.515625 L 3.609375 -3.421875 C 4.03125 -3.75 4.265625 -3.84375 4.578125 -3.84375 L 4.578125 -4.109375 L 3.6875 -4.109375 C 3.109375 -3.53125 2.6875 -3.140625 2.34375 -2.859375 L 1.6875 -2.34375 L 1.6875 -6.421875 L 1.609375 -6.5 C 1.203125 -6.34375 0.90625 -6.28125 0.203125 -6.171875 L 0.203125 -5.921875 L 0.703125 -5.921875 C 0.875 -5.921875 0.9375 -5.8125 0.9375 -5.546875 L 0.9375 -0.90625 C 0.9375 -0.34375 0.90625 -0.28125 0.59375 -0.265625 L 0.1875 -0.234375 Z M 0.1875 0.03125 "/>
</g>
<g id="glyph-0-28">
<path d="M 0.140625 0.03125 C 0.515625 0.015625 0.90625 0 1.28125 0 C 1.640625 0 1.984375 0.015625 2.34375 0.03125 L 2.34375 -0.234375 L 1.96875 -0.265625 C 1.671875 -0.28125 1.640625 -0.34375 1.640625 -0.90625 L 1.640625 -2.8125 C 1.640625 -3.21875 2.234375 -3.65625 2.765625 -3.65625 C 3.25 -3.65625 3.578125 -3.203125 3.578125 -2.515625 L 3.578125 -0.90625 C 3.578125 -0.34375 3.546875 -0.28125 3.25 -0.265625 L 2.84375 -0.234375 L 2.84375 0.03125 C 3.21875 0.015625 3.578125 0 3.953125 0 C 4.328125 0 4.703125 0.015625 5.078125 0.03125 L 5.078125 -0.234375 L 4.671875 -0.265625 C 4.359375 -0.28125 4.328125 -0.34375 4.328125 -0.90625 L 4.328125 -2.8125 C 4.328125 -3.21875 4.921875 -3.65625 5.46875 -3.65625 C 5.9375 -3.65625 6.28125 -3.203125 6.28125 -2.515625 L 6.28125 0.03125 C 6.515625 0.015625 6.75 0 6.984375 0 C 7.25 0 7.515625 0.015625 7.78125 0.03125 L 7.78125 -0.234375 L 7.359375 -0.265625 C 7.0625 -0.28125 7.03125 -0.34375 7.03125 -0.90625 L 7.03125 -2.75 C 7.03125 -3.640625 6.515625 -4.203125 5.6875 -4.203125 C 5.375 -4.203125 5.109375 -4.125 4.953125 -3.96875 L 4.265625 -3.359375 C 3.984375 -3.953125 3.609375 -4.203125 3 -4.203125 C 2.671875 -4.203125 2.421875 -4.125 2.25 -3.96875 L 1.640625 -3.40625 L 1.640625 -4.15625 L 1.5625 -4.203125 C 1.09375 -4.015625 0.640625 -3.890625 0.15625 -3.828125 L 0.15625 -3.578125 L 0.5 -3.578125 C 0.84375 -3.578125 0.890625 -3.515625 0.890625 -2.921875 L 0.890625 -0.90625 C 0.890625 -0.34375 0.859375 -0.28125 0.5625 -0.265625 L 0.140625 -0.234375 Z M 0.140625 0.03125 "/>
</g>
<g id="glyph-1-0">
<path d="M 3.875 -4.25 L 3.75 -4.296875 L 3.453125 -4.09375 C 3.0625 -4.25 2.796875 -4.3125 2.546875 -4.3125 C 2.296875 -4.3125 2.09375 -4.25 1.828125 -4.09375 C 1.515625 -3.890625 1.125 -3.578125 0.921875 -3.34375 C 0.5625 -2.921875 0.21875 -1.625 0.21875 -0.703125 C 0.21875 -0.171875 0.328125 0.09375 0.53125 0.09375 C 0.734375 0.09375 0.90625 0.03125 1.1875 -0.171875 L 1.265625 -0.21875 C 1.828125 -0.65625 2.421875 -1.28125 2.75 -1.875 L 2.078125 1.828125 C 2.046875 2.046875 1.9375 2.234375 1.828125 2.34375 L 1.921875 2.46875 C 2.1875 2.40625 2.46875 2.34375 2.6875 2.3125 C 2.71875 1.828125 2.78125 1.34375 2.859375 0.890625 L 3.625 -3.1875 C 3.71875 -3.734375 3.78125 -3.96875 3.875 -4.25 Z M 3.140625 -3.640625 L 2.953125 -2.78125 C 2.859375 -2.328125 2.65625 -1.9375 2.328125 -1.515625 C 1.859375 -0.953125 1.3125 -0.53125 1.0625 -0.53125 C 0.9375 -0.53125 0.859375 -0.71875 0.859375 -1.015625 C 0.859375 -1.875 1.25 -3.21875 1.625 -3.65625 C 1.734375 -3.796875 1.984375 -3.875 2.28125 -3.875 C 2.53125 -3.875 2.71875 -3.828125 3.140625 -3.640625 Z M 3.140625 -3.640625 "/>
</g>
<g id="glyph-1-1">
<path d="M 6.0625 0.03125 L 6.0625 -0.21875 L 5.828125 -0.25 C 5.40625 -0.296875 5.375 -0.3125 5.328125 -0.71875 L 4.546875 -6.3125 L 4.140625 -6.3125 L 0.796875 -1 C 0.484375 -0.5 0.3125 -0.359375 0.015625 -0.28125 L -0.171875 -0.234375 L -0.171875 0.03125 L 0.828125 0 C 1.15625 0 1.484375 0.015625 1.796875 0.03125 L 1.796875 -0.21875 L 1.328125 -0.25 C 1.171875 -0.265625 1.046875 -0.34375 1.046875 -0.421875 C 1.046875 -0.5 1.09375 -0.609375 1.28125 -0.90625 L 2.1875 -2.484375 L 4.390625 -2.484375 L 4.640625 -0.6875 C 4.640625 -0.609375 4.65625 -0.53125 4.65625 -0.5 C 4.65625 -0.34375 4.515625 -0.265625 4.265625 -0.25 L 3.875 -0.21875 L 3.875 0.03125 L 4.96875 0 Z M 4.34375 -2.796875 L 2.421875 -2.796875 L 4.015625 -5.375 Z M 4.34375 -2.796875 "/>
</g>
<g id="glyph-1-2">
<path d="M 3.171875 -6.203125 L 2.171875 -6.171875 L 0.953125 -6.203125 L 0.921875 -5.9375 L 1.34375 -5.921875 C 1.5625 -5.921875 1.65625 -5.84375 1.65625 -5.6875 C 1.65625 -5.609375 1.609375 -5.203125 1.578125 -5 L 0.9375 -1.125 C 0.796875 -0.328125 0.765625 -0.28125 0.40625 -0.25 L 0.09375 -0.21875 L 0.0625 0.03125 L 1.1875 0 L 2.3125 0.03125 L 2.34375 -0.21875 L 1.875 -0.25 C 1.640625 -0.265625 1.5625 -0.328125 1.5625 -0.515625 C 1.5625 -0.578125 1.5625 -0.65625 1.578125 -0.703125 L 2.375 -5.484375 C 2.4375 -5.84375 2.484375 -5.890625 2.828125 -5.921875 L 3.140625 -5.9375 Z M 3.171875 -6.203125 "/>
</g>
<g id="glyph-1-3">
<path d="M 4.53125 -6.015625 C 4.125 -6.234375 3.78125 -6.328125 3.34375 -6.328125 C 2.6875 -6.328125 2.015625 -6.046875 1.53125 -5.5625 C 1.15625 -5.1875 0.96875 -4.75 0.96875 -4.21875 C 0.96875 -3.453125 1.3125 -3.03125 2.0625 -2.859375 L 2.90625 -2.65625 C 3.40625 -2.53125 3.640625 -2.234375 3.640625 -1.703125 C 3.640625 -0.84375 3 -0.265625 2.078125 -0.265625 C 1.59375 -0.265625 1.25 -0.375 0.859375 -0.65625 L 0.859375 -1.546875 L 0.59375 -1.546875 C 0.53125 -1.046875 0.46875 -0.640625 0.375 -0.171875 C 0.828125 0.046875 1.296875 0.15625 1.765625 0.15625 C 3.15625 0.15625 4.34375 -0.875 4.34375 -2.09375 C 4.34375 -2.796875 3.953125 -3.171875 3.046875 -3.375 L 2.46875 -3.5 C 1.875 -3.625 1.609375 -3.953125 1.609375 -4.546875 C 1.609375 -5.328125 2.21875 -5.890625 3.03125 -5.890625 C 3.46875 -5.890625 3.765625 -5.78125 4.03125 -5.484375 L 4.03125 -4.8125 L 4.3125 -4.8125 C 4.34375 -5.296875 4.40625 -5.625 4.53125 -6.015625 Z M 4.53125 -6.015625 "/>
</g>
<g id="glyph-1-4">
<path d="M 6.796875 -3.4375 C 6.828125 -3.953125 6.609375 -4.3125 6.28125 -4.3125 C 6.15625 -4.3125 6.0625 -4.28125 5.984375 -4.203125 L 5.515625 -3.78125 L 5.609375 -3.609375 C 5.6875 -3.671875 5.765625 -3.703125 5.859375 -3.703125 C 6.109375 -3.703125 6.21875 -3.484375 6.203125 -3.140625 C 6.140625 -1.796875 5.21875 -0.34375 4.4375 -0.34375 C 4 -0.34375 3.734375 -0.71875 3.765625 -1.3125 C 3.765625 -1.4375 3.765625 -1.5625 3.828125 -1.796875 L 4.03125 -2.484375 C 4.078125 -2.625 4.140625 -2.75 4.203125 -2.90625 L 4.09375 -3.03125 L 3.515625 -2.796875 L 3.21875 -1.703125 C 3.09375 -1.40625 2.984375 -1.03125 2.71875 -0.8125 C 2.46875 -0.59375 2.1875 -0.453125 1.890625 -0.453125 C 1.625 -0.453125 1.421875 -0.5625 1.28125 -0.75 C 1.09375 -0.953125 1.0625 -1.265625 1.078125 -1.546875 C 1.109375 -2.359375 1.359375 -3.09375 2.15625 -3.8125 C 2.265625 -3.90625 2.4375 -4.0625 2.53125 -4.15625 L 2.40625 -4.3125 C 2.15625 -4.140625 1.734375 -3.84375 1.5 -3.640625 C 0.8125 -3.03125 0.421875 -2.25 0.390625 -1.578125 C 0.359375 -1.0625 0.375 -0.609375 0.65625 -0.265625 C 0.84375 -0.03125 1.046875 0.09375 1.375 0.09375 C 1.640625 0.09375 1.984375 -0.046875 2.234375 -0.1875 C 2.59375 -0.390625 2.78125 -0.5625 3.109375 -0.828125 C 3.171875 -0.265625 3.53125 0.09375 4.03125 0.09375 C 4.4375 0.09375 4.796875 -0.078125 5.25 -0.484375 C 5.65625 -0.84375 6.0625 -1.421875 6.359375 -1.984375 C 6.59375 -2.453125 6.78125 -3.0625 6.796875 -3.4375 Z M 6.796875 -3.4375 "/>
</g>
<g id="glyph-1-5">
<path d="M 1.796875 0.625 C 1.796875 0.296875 1.578125 0.09375 1.25 0.09375 C 0.9375 0.09375 0.71875 0.296875 0.71875 0.625 C 0.71875 0.953125 0.9375 1.15625 1.25 1.15625 C 1.578125 1.15625 1.796875 0.953125 1.796875 0.625 Z M 1.796875 -2.234375 C 1.796875 -2.5625 1.578125 -2.78125 1.25 -2.78125 C 0.9375 -2.78125 0.71875 -2.5625 0.71875 -2.234375 C 0.71875 -1.921875 0.9375 -1.703125 1.25 -1.703125 C 1.578125 -1.703125 1.796875 -1.921875 1.796875 -2.234375 Z M 1.796875 -5.109375 C 1.796875 -5.421875 1.578125 -5.640625 1.25 -5.640625 C 0.9375 -5.640625 0.71875 -5.421875 0.71875 -5.109375 C 0.71875 -4.78125 0.9375 -4.5625 1.25 -4.5625 C 1.578125 -4.5625 1.796875 -4.78125 1.796875 -5.109375 Z M 1.796875 -5.109375 "/>
</g>
<g id="glyph-1-6">
<path d="M 4.15625 -3.28125 C 4.15625 -5.234375 3.578125 -6.171875 2.359375 -6.171875 C 0.96875 -6.171875 0.265625 -5.0625 0.265625 -2.90625 C 0.265625 -1.859375 0.453125 -0.953125 0.765625 -0.515625 C 1.078125 -0.078125 1.578125 0.171875 2.125 0.171875 C 3.484375 0.171875 4.15625 -0.984375 4.15625 -3.28125 Z M 3.40625 -2.828125 C 3.40625 -0.921875 3.078125 -0.140625 2.25 -0.140625 C 1.375 -0.140625 1.015625 -1.03125 1.015625 -3.21875 C 1.015625 -5.109375 1.34375 -5.859375 2.1875 -5.859375 C 3.0625 -5.859375 3.40625 -4.984375 3.40625 -2.828125 Z M 3.40625 -2.828125 "/>
</g>
<g id="glyph-1-7">
<path d="M 6.09375 -1.96875 C 6.0625 -2.0625 6.0625 -2.15625 6.0625 -2.234375 C 6.0625 -2.328125 6.0625 -2.421875 6.09375 -2.5 L 3.671875 -2.5 L 3.671875 -4.921875 C 3.578125 -4.90625 3.484375 -4.890625 3.40625 -4.890625 C 3.3125 -4.890625 3.21875 -4.90625 3.140625 -4.921875 L 3.140625 -2.5 L 0.71875 -2.5 C 0.734375 -2.421875 0.75 -2.328125 0.75 -2.234375 C 0.75 -2.15625 0.734375 -2.0625 0.71875 -1.96875 L 3.140625 -1.96875 L 3.140625 0.453125 C 3.21875 0.4375 3.3125 0.421875 3.40625 0.421875 C 3.484375 0.421875 3.578125 0.4375 3.671875 0.453125 L 3.671875 -1.96875 Z M 6.09375 -1.96875 "/>
</g>
<g id="glyph-1-8">
<path d="M 3.75 0.03125 L 3.75 -0.234375 L 3.28125 -0.265625 C 2.78125 -0.296875 2.6875 -0.390625 2.6875 -0.859375 L 2.6875 -6.171875 L 2.5625 -6.21875 C 1.984375 -5.90625 1.359375 -5.640625 0.53125 -5.359375 L 0.59375 -4.96875 L 0.6875 -4.96875 L 1.84375 -5.484375 L 1.875 -5.5 C 1.921875 -5.5 1.9375 -5.421875 1.9375 -5.203125 L 1.9375 -0.859375 C 1.9375 -0.390625 1.84375 -0.296875 1.359375 -0.265625 L 0.859375 -0.234375 L 0.859375 0.03125 L 2.34375 0 Z M 3.75 0.03125 "/>
</g>
<g id="glyph-1-9">
<path d="M 6.140625 -0.515625 C 6.125 -0.609375 6.109375 -0.703125 6.109375 -0.8125 C 6.109375 -0.90625 6.125 -1 6.140625 -1.09375 L 1.46875 -3.046875 L 6.140625 -4.984375 C 6.125 -5.078125 6.109375 -5.1875 6.109375 -5.28125 C 6.109375 -5.375 6.125 -5.484375 6.140625 -5.578125 L 0.71875 -3.3125 C 0.734375 -3.21875 0.75 -3.140625 0.75 -3.046875 C 0.75 -2.953125 0.734375 -2.859375 0.71875 -2.78125 Z M 6.140625 1.015625 C 6.125 0.921875 6.109375 0.828125 6.109375 0.75 C 6.109375 0.640625 6.125 0.5625 6.140625 0.46875 L 0.71875 0.46875 C 0.734375 0.5625 0.75 0.640625 0.75 0.75 C 0.75 0.828125 0.734375 0.921875 0.71875 1.015625 Z M 6.140625 1.015625 "/>
</g>
<g id="glyph-1-10">
<path d="M 4.328125 -6.46875 L 4.21875 -6.5625 C 3.75 -6.328125 3.421875 -6.25 2.78125 -6.1875 L 2.75 -6 L 3.171875 -6 C 3.390625 -6 3.484375 -5.9375 3.484375 -5.78125 C 3.484375 -5.71875 3.46875 -5.625 3.46875 -5.5625 L 3.21875 -4.1875 C 2.953125 -4.265625 2.703125 -4.3125 2.484375 -4.3125 C 1.859375 -4.3125 1.015625 -3.671875 0.609375 -2.890625 C 0.328125 -2.375 0.15625 -1.515625 0.15625 -0.765625 C 0.15625 -0.1875 0.28125 0.09375 0.546875 0.09375 C 0.78125 0.09375 1.125 -0.046875 1.421875 -0.296875 C 1.90625 -0.6875 2.203125 -1.03125 2.796875 -1.9375 L 2.59375 -1.125 C 2.5 -0.734375 2.453125 -0.453125 2.453125 -0.21875 C 2.453125 -0.03125 2.53125 0.09375 2.6875 0.09375 C 2.84375 0.09375 3.046875 -0.03125 3.359375 -0.25 L 4.078125 -0.78125 L 4 -0.953125 L 3.59375 -0.6875 C 3.46875 -0.59375 3.328125 -0.53125 3.25 -0.53125 C 3.171875 -0.53125 3.125 -0.609375 3.125 -0.734375 C 3.125 -0.8125 3.140625 -0.890625 3.203125 -1.140625 Z M 3.125 -3.671875 L 3.015625 -3.140625 C 2.859375 -2.359375 2.421875 -1.5625 1.859375 -1.03125 C 1.546875 -0.75 1.1875 -0.53125 1.015625 -0.53125 C 0.875 -0.53125 0.796875 -0.65625 0.796875 -0.875 C 0.796875 -2 1.203125 -3.40625 1.640625 -3.75 C 1.765625 -3.828125 1.9375 -3.875 2.171875 -3.875 C 2.5625 -3.875 2.828125 -3.828125 3.125 -3.671875 Z M 3.125 -3.671875 "/>
</g>
<g id="glyph-1-11">
<path d="M 5.109375 -6.171875 C 4.90625 -6.1875 4.6875 -6.203125 4.484375 -6.203125 L 2.375 -6.171875 L 0.9375 -6.203125 L 0.90625 -5.9375 L 1.390625 -5.921875 C 1.609375 -5.921875 1.703125 -5.84375 1.703125 -5.6875 C 1.703125 -5.5625 1.6875 -5.296875 1.625 -5 L 0.84375 -0.5 C 0.828125 -0.328125 0.703125 -0.265625 0.3125 -0.203125 L 0.265625 0.03125 L 1.640625 0 L 3.65625 0.03125 C 4.4375 0.03125 4.25 0.015625 4.609375 0 L 4.640625 -0.328125 C 4.6875 -0.703125 4.75 -1.078125 4.828125 -1.4375 L 4.578125 -1.4375 L 4.4375 -0.90625 C 4.359375 -0.59375 4.28125 -0.484375 4.09375 -0.4375 C 3.921875 -0.390625 3.28125 -0.34375 2.75 -0.34375 C 2.375 -0.34375 2.140625 -0.359375 1.578125 -0.40625 C 1.578125 -0.515625 1.578125 -0.625 1.59375 -0.71875 L 1.984375 -2.984375 L 3.03125 -2.984375 C 4.15625 -2.984375 3.9375 -2.96875 4.203125 -2.953125 L 4.375 -3.359375 L 4.34375 -3.421875 L 2.375 -3.359375 L 2.046875 -3.359375 L 2.421875 -5.5 C 2.453125 -5.640625 2.46875 -5.71875 2.5 -5.78125 C 3.015625 -5.796875 2.78125 -5.796875 3.671875 -5.8125 C 4.25 -5.8125 4.625 -5.734375 4.625 -5.609375 L 4.703125 -4.8125 L 4.921875 -4.8125 C 4.9375 -5.375 5 -5.828125 5.109375 -6.171875 Z M 5.109375 -6.171875 "/>
</g>
<g id="glyph-1-12">
<path d="M 5.71875 -4.3125 L 5.65625 -4.421875 C 5.421875 -4.34375 5 -4.28125 4.703125 -4.28125 L 3.765625 -4.28125 C 3.484375 -4.296875 3.171875 -4.3125 2.953125 -4.3125 C 2.5625 -4.3125 2.171875 -4.1875 1.765625 -3.90625 C 0.984375 -3.390625 0.53125 -2.484375 0.46875 -1.359375 C 0.421875 -0.234375 0.828125 0.09375 1.40625 0.09375 C 1.796875 0.09375 2.171875 -0.078125 2.609375 -0.484375 C 3.015625 -0.84375 3.4375 -1.421875 3.71875 -1.984375 C 3.96875 -2.453125 4.15625 -3.0625 4.171875 -3.4375 C 4.1875 -3.546875 4.15625 -3.65625 4.140625 -3.765625 C 4.4375 -3.75 4.6875 -3.75 4.890625 -3.75 C 5.046875 -3.75 5.25 -3.8125 5.40625 -3.875 C 5.5 -4.0625 5.546875 -4.09375 5.71875 -4.3125 Z M 3.578125 -3.1875 C 3.515625 -1.859375 2.59375 -0.34375 1.796875 -0.34375 C 1.359375 -0.34375 1.125 -0.765625 1.15625 -1.359375 C 1.203125 -2.421875 1.609375 -3.46875 2.046875 -3.828125 C 2.171875 -3.921875 2.375 -3.96875 2.59375 -3.96875 C 3.140625 -3.96875 3.609375 -3.890625 3.578125 -3.1875 Z M 3.578125 -3.1875 "/>
</g>
<g id="glyph-2-0">
<path d="M 3.359375 -2.1875 C 3.359375 -3.484375 2.90625 -4.109375 1.953125 -4.109375 C 0.875 -4.109375 0.328125 -3.375 0.328125 -1.9375 C 0.328125 -1.234375 0.46875 -0.625 0.703125 -0.34375 C 0.953125 -0.046875 1.34375 0.125 1.78125 0.125 C 2.828125 0.125 3.359375 -0.65625 3.359375 -2.1875 Z M 2.78125 -1.890625 C 2.78125 -0.609375 2.515625 -0.09375 1.875 -0.09375 C 1.1875 -0.09375 0.90625 -0.6875 0.90625 -2.15625 C 0.90625 -3.40625 1.15625 -3.90625 1.828125 -3.90625 C 2.5 -3.90625 2.78125 -3.3125 2.78125 -1.890625 Z M 2.78125 -1.890625 "/>
</g>
<g id="glyph-2-1">
<path d="M 3.03125 0.015625 L 3.03125 -0.15625 L 2.671875 -0.171875 C 2.296875 -0.203125 2.21875 -0.265625 2.21875 -0.578125 L 2.21875 -4.109375 L 2.125 -4.140625 C 1.671875 -3.9375 1.171875 -3.765625 0.53125 -3.5625 L 0.578125 -3.3125 L 0.65625 -3.3125 L 1.5625 -3.65625 L 1.578125 -3.671875 C 1.625 -3.671875 1.640625 -3.609375 1.640625 -3.46875 L 1.640625 -0.578125 C 1.640625 -0.265625 1.5625 -0.203125 1.1875 -0.171875 L 0.78125 -0.15625 L 0.78125 0.015625 L 1.9375 0 Z M 3.03125 0.015625 "/>
</g>
<g id="glyph-2-2">
<path d="M 3.390625 0.015625 C 3.375 -0.109375 3.375 -0.171875 3.375 -0.25 C 3.375 -0.328125 3.375 -0.390625 3.390625 -0.515625 L 0.96875 -0.453125 L 2.25 -1.609375 C 2.921875 -2.21875 3.125 -2.546875 3.125 -3 C 3.125 -3.6875 2.578125 -4.109375 1.6875 -4.109375 C 1.1875 -4.109375 0.859375 -4 0.515625 -3.6875 L 0.390625 -2.890625 L 0.59375 -2.890625 L 0.6875 -3.15625 C 0.796875 -3.5 1.046875 -3.65625 1.515625 -3.65625 C 2.125 -3.65625 2.5 -3.328125 2.5 -2.828125 C 2.5 -2.375 2.203125 -1.9375 1.421875 -1.21875 L 0.234375 -0.140625 L 0.234375 0.015625 L 1.796875 0 Z M 3.390625 0.015625 "/>
</g>
<g id="glyph-2-3">
<path d="M 3.34375 -1.34375 C 3.34375 -1.625 3.203125 -1.875 2.953125 -2.015625 C 2.78125 -2.125 2.625 -2.171875 2.265625 -2.234375 C 2.828125 -2.609375 3.03125 -2.875 3.03125 -3.234375 C 3.03125 -3.765625 2.515625 -4.109375 1.75 -4.109375 C 1.265625 -4.109375 0.953125 -4 0.625 -3.71875 L 0.421875 -2.96875 L 0.640625 -2.96875 L 0.765625 -3.3125 C 0.84375 -3.515625 1.28125 -3.71875 1.640625 -3.71875 C 2.09375 -3.71875 2.46875 -3.390625 2.46875 -3.015625 C 2.46875 -2.578125 2.046875 -2.203125 1.5625 -2.203125 C 1.5 -2.203125 1.234375 -2.21875 1.234375 -2.21875 L 1.140625 -1.890625 L 1.1875 -1.859375 C 1.46875 -1.96875 1.59375 -2 1.78125 -2 C 2.359375 -2 2.703125 -1.671875 2.703125 -1.140625 C 2.703125 -0.53125 2.265625 -0.125 1.625 -0.125 C 1.296875 -0.125 1.015625 -0.21875 0.8125 -0.375 C 0.640625 -0.515625 0.546875 -0.65625 0.40625 -0.96875 L 0.234375 -0.90625 C 0.375 -0.546875 0.421875 -0.328125 0.46875 -0.03125 C 0.84375 0.078125 1.140625 0.125 1.40625 0.125 C 1.96875 0.125 2.609375 -0.15625 2.984375 -0.546875 C 3.234375 -0.796875 3.34375 -1.0625 3.34375 -1.34375 Z M 3.34375 -1.34375 "/>
</g>
<g id="glyph-2-4">
<path d="M 3.703125 -0.5 L 3.640625 -0.609375 L 3.453125 -0.515625 C 3.25 -0.40625 3.109375 -0.328125 3.03125 -0.328125 C 2.984375 -0.328125 2.9375 -0.390625 2.9375 -0.453125 C 2.9375 -0.484375 2.953125 -0.546875 2.953125 -0.578125 L 3.421875 -2.21875 C 3.46875 -2.390625 3.484375 -2.5625 3.484375 -2.65625 C 3.484375 -2.796875 3.421875 -2.875 3.28125 -2.875 C 2.984375 -2.875 2.5 -2.65625 2.09375 -2.328125 C 1.828125 -2.109375 1.625 -1.90625 1.265625 -1.46875 L 1.53125 -2.4375 C 1.5625 -2.546875 1.5625 -2.609375 1.5625 -2.6875 C 1.5625 -2.8125 1.515625 -2.875 1.40625 -2.875 C 1.265625 -2.875 0.984375 -2.75 0.484375 -2.4375 L 0.28125 -2.3125 L 0.328125 -2.203125 L 0.5625 -2.328125 C 0.8125 -2.46875 0.84375 -2.46875 0.890625 -2.46875 C 0.96875 -2.46875 1.015625 -2.40625 1.015625 -2.328125 C 1.015625 -2.015625 0.734375 -0.859375 0.4375 -0.015625 L 0.484375 0.046875 C 0.65625 0.015625 0.828125 -0.03125 0.984375 -0.046875 C 1.109375 -0.796875 1.265625 -1.1875 1.578125 -1.59375 C 1.96875 -2.09375 2.484375 -2.46875 2.796875 -2.46875 C 2.875 -2.46875 2.90625 -2.421875 2.90625 -2.328125 C 2.90625 -2.21875 2.890625 -2.09375 2.828125 -1.90625 L 2.46875 -0.640625 C 2.40625 -0.421875 2.375 -0.28125 2.375 -0.1875 C 2.375 -0.03125 2.453125 0.046875 2.59375 0.046875 C 2.78125 0.046875 3.03125 -0.078125 3.703125 -0.5 Z M 3.703125 -0.5 "/>
</g>
<g id="glyph-2-5">
<path d="M 4.0625 -1.3125 C 4.046875 -1.375 4.046875 -1.4375 4.046875 -1.5 C 4.046875 -1.546875 4.046875 -1.609375 4.0625 -1.671875 L 0.484375 -1.671875 C 0.484375 -1.609375 0.5 -1.546875 0.5 -1.5 C 0.5 -1.4375 0.484375 -1.375 0.484375 -1.3125 Z M 4.0625 -1.3125 "/>
</g>
<g id="glyph-3-0">
<path d="M 0.09375 0.015625 C 0.34375 0 0.609375 0 0.859375 0 C 1.09375 0 1.328125 0 1.5625 0.015625 L 1.5625 -0.15625 L 1.3125 -0.171875 C 1.109375 -0.1875 1.09375 -0.234375 1.09375 -0.609375 L 1.09375 -1.875 C 1.09375 -2.140625 1.484375 -2.4375 1.84375 -2.4375 C 2.171875 -2.4375 2.390625 -2.125 2.390625 -1.671875 L 2.390625 -0.609375 C 2.390625 -0.234375 2.375 -0.1875 2.171875 -0.171875 L 1.890625 -0.15625 L 1.890625 0.015625 C 2.140625 0 2.390625 0 2.640625 0 C 2.890625 0 3.140625 0 3.390625 0.015625 L 3.390625 -0.15625 L 3.109375 -0.171875 C 2.90625 -0.1875 2.890625 -0.234375 2.890625 -0.609375 L 2.890625 -1.875 C 2.890625 -2.140625 3.28125 -2.4375 3.640625 -2.4375 C 3.96875 -2.4375 4.1875 -2.125 4.1875 -1.671875 L 4.1875 0.015625 C 4.34375 0 4.5 0 4.65625 0 C 4.828125 0 5.015625 0 5.1875 0.015625 L 5.1875 -0.15625 L 4.90625 -0.171875 C 4.703125 -0.1875 4.6875 -0.234375 4.6875 -0.609375 L 4.6875 -1.84375 C 4.6875 -2.421875 4.34375 -2.796875 3.796875 -2.796875 C 3.578125 -2.796875 3.40625 -2.75 3.296875 -2.65625 L 2.84375 -2.25 C 2.65625 -2.640625 2.40625 -2.796875 2 -2.796875 C 1.78125 -2.796875 1.609375 -2.75 1.5 -2.65625 L 1.09375 -2.265625 L 1.09375 -2.78125 L 1.03125 -2.796875 C 0.734375 -2.671875 0.421875 -2.59375 0.109375 -2.546875 L 0.109375 -2.390625 L 0.328125 -2.390625 C 0.5625 -2.390625 0.59375 -2.34375 0.59375 -1.953125 L 0.59375 -0.609375 C 0.59375 -0.234375 0.578125 -0.1875 0.375 -0.171875 L 0.09375 -0.15625 Z M 0.09375 0.015625 "/>
</g>
<g id="glyph-3-1">
<path d="M 0.1875 -0.65625 C 0.1875 -0.203125 0.46875 0.078125 0.9375 0.078125 C 1.046875 0.078125 1.15625 0.046875 1.1875 0.03125 L 1.9375 -0.484375 L 1.90625 0.015625 C 2.0625 0 2.21875 0 2.375 0 C 2.515625 0 2.65625 0 2.8125 0.015625 L 2.8125 -0.15625 L 2.578125 -0.171875 C 2.4375 -0.171875 2.40625 -0.234375 2.40625 -0.515625 L 2.40625 -1.609375 C 2.40625 -2.484375 2.15625 -2.796875 1.46875 -2.796875 C 1.21875 -2.796875 0.96875 -2.734375 0.75 -2.59375 L 0.4375 -2.40625 L 0.4375 -2.015625 L 0.578125 -1.96875 L 0.65625 -2.15625 C 0.78125 -2.4375 0.84375 -2.484375 1.125 -2.484375 C 1.6875 -2.484375 1.921875 -2.265625 1.9375 -1.71875 L 1.34375 -1.609375 C 0.53125 -1.46875 0.1875 -1.1875 0.1875 -0.65625 Z M 0.703125 -0.75 C 0.703125 -0.96875 0.828125 -1.171875 1 -1.296875 C 1.15625 -1.375 1.484375 -1.46875 1.9375 -1.53125 L 1.9375 -0.734375 C 1.765625 -0.5 1.390625 -0.265625 1.15625 -0.265625 C 0.90625 -0.265625 0.703125 -0.484375 0.703125 -0.75 Z M 0.703125 -0.75 "/>
</g>
<g id="glyph-3-2">
<path d="M 0.125 0 L 0.625 0 C 0.625 0 0.671875 -0.140625 0.984375 -0.5625 L 1.4375 -1.140625 L 2.21875 0.015625 C 2.34375 0 2.46875 0 2.59375 0 C 2.71875 0 2.828125 0 2.953125 0.015625 L 2.953125 -0.15625 L 2.8125 -0.171875 C 2.734375 -0.1875 2.671875 -0.234375 2.609375 -0.328125 L 1.71875 -1.515625 L 2.5625 -2.5 C 2.609375 -2.546875 2.671875 -2.578125 2.765625 -2.578125 L 2.859375 -2.578125 L 2.859375 -2.734375 L 2.359375 -2.734375 L 1.625 -1.6875 L 1.171875 -2.390625 C 1.078125 -2.515625 1.015625 -2.59375 0.8125 -2.796875 L 0.125 -2.6875 L 0.15625 -2.53125 L 0.28125 -2.515625 C 0.375 -2.5 0.515625 -2.421875 0.578125 -2.34375 L 1.296875 -1.296875 L 0.40625 -0.25 C 0.359375 -0.203125 0.28125 -0.15625 0.21875 -0.15625 L 0.125 -0.15625 Z M 0.125 0 "/>
</g>
</g>
</defs>
<g fill="rgb(65.899658%, 43.899536%, 12.5%)" fill-opacity="1">
<use xlink:href="#glyph-0-0" x="47.416479" y="11.827011"/>
<use xlink:href="#glyph-0-1" x="52.833602" y="11.827011"/>
</g>
<g fill="rgb(65.899658%, 43.899536%, 12.5%)" fill-opacity="1">
<use xlink:href="#glyph-0-2" x="57.238932" y="11.827011"/>
<use xlink:href="#glyph-0-3" x="61.527861" y="11.827011"/>
</g>
<g fill="rgb(18.798828%, 40.79895%, 56.498718%)" fill-opacity="1">
<use xlink:href="#glyph-0-4" x="111.512533" y="11.818043"/>
<use xlink:href="#glyph-0-3" x="115.989494" y="11.818043"/>
<use xlink:href="#glyph-0-5" x="121.460341" y="11.818043"/>
<use xlink:href="#glyph-0-6" x="126.519308" y="11.818043"/>
<use xlink:href="#glyph-0-7" x="129.089083" y="11.818043"/>
<use xlink:href="#glyph-0-2" x="133.064625" y="11.818043"/>
</g>
<g fill="rgb(21.998596%, 47.099304%, 28.199768%)" fill-opacity="1">
<use xlink:href="#glyph-0-6" x="162.059641" y="11.441966"/>
<use xlink:href="#glyph-0-8" x="164.629417" y="11.441966"/>
<use xlink:href="#glyph-0-9" x="169.8406" y="11.441966"/>
</g>
<g fill="rgb(21.998596%, 47.099304%, 28.199768%)" fill-opacity="1">
<use xlink:href="#glyph-0-10" x="173.511708" y="11.441966"/>
<use xlink:href="#glyph-0-4" x="176.430687" y="11.441966"/>
<use xlink:href="#glyph-0-8" x="180.907648" y="11.441966"/>
<use xlink:href="#glyph-0-7" x="186.118831" y="11.441966"/>
<use xlink:href="#glyph-0-2" x="190.094373" y="11.441966"/>
</g>
<g fill="rgb(39.99939%, 39.99939%, 39.99939%)" fill-opacity="1">
<use xlink:href="#glyph-0-10" x="211.623417" y="11.818043"/>
<use xlink:href="#glyph-0-4" x="214.542396" y="11.818043"/>
<use xlink:href="#glyph-0-11" x="219.019357" y="11.818043"/>
<use xlink:href="#glyph-0-12" x="223.970876" y="11.818043"/>
<use xlink:href="#glyph-0-2" x="226.576468" y="11.818043"/>
</g>
<g fill="rgb(0%, 0%, 0%)" fill-opacity="1">
<use xlink:href="#glyph-1-0" x="39.570242" y="26.139325"/>
</g>
<g fill="rgb(0%, 0%, 0%)" fill-opacity="1">
<use xlink:href="#glyph-2-0" x="43.715916" y="28.216855"/>
</g>
<g fill="rgb(0%, 0%, 0%)" fill-opacity="1">
<use xlink:href="#glyph-1-0" x="66.46223" y="26.139325"/>
</g>
<g fill="rgb(0%, 0%, 0%)" fill-opacity="1">
<use xlink:href="#glyph-2-1" x="70.607904" y="28.216855"/>
</g>
<g fill="rgb(0%, 0%, 0%)" fill-opacity="1">
<use xlink:href="#glyph-1-1" x="92.194671" y="27.274896"/>
</g>
<g fill="rgb(0%, 0%, 0%)" fill-opacity="1">
<use xlink:href="#glyph-2-0" x="98.659399" y="29.352426"/>
</g>
<g fill="rgb(0%, 0%, 0%)" fill-opacity="1">
<use xlink:href="#glyph-1-1" x="119.086669" y="27.325625"/>
</g>
<g fill="rgb(0%, 0%, 0%)" fill-opacity="1">
<use xlink:href="#glyph-2-1" x="125.551398" y="29.403155"/>
</g>
<g fill="rgb(0%, 0%, 0%)" fill-opacity="1">
<use xlink:href="#glyph-1-1" x="145.978647" y="27.325625"/>
</g>
<g fill="rgb(0%, 0%, 0%)" fill-opacity="1">
<use xlink:href="#glyph-2-2" x="152.443376" y="29.403155"/>
</g>
<g fill="rgb(0%, 0%, 0%)" fill-opacity="1">
<use xlink:href="#glyph-1-2" x="176.506977" y="28.301747"/>
</g>
<g fill="rgb(0%, 0%, 0%)" fill-opacity="1">
<use xlink:href="#glyph-1-3" x="218.755318" y="28.297264"/>
</g>
<g fill="rgb(0%, 0%, 0%)" fill-opacity="1">
<use xlink:href="#glyph-1-4" x="9.883031" y="46.473154"/>
</g>
<g fill="rgb(0%, 0%, 0%)" fill-opacity="1">
<use xlink:href="#glyph-2-0" x="16.929761" y="43.303123"/>
</g>
<path fill-rule="nonzero" fill="rgb(97.880554%, 94.587708%, 89.881897%)" fill-opacity="1" stroke-width="0.3985" stroke-linecap="butt" stroke-linejoin="miter" stroke="rgb(0%, 0%, 0%)" stroke-opacity="1" stroke-miterlimit="10" d="M -12.047419 -8.505873 L 12.048548 -8.505873 L 12.048548 8.506035 L -12.047419 8.506035 Z M -12.047419 -8.505873 " transform="matrix(0.998611, 0, 0, -0.998611, 43.757249, 42.88094)"/>
<path fill-rule="nonzero" fill="rgb(97.880554%, 94.587708%, 89.881897%)" fill-opacity="1" stroke-width="0.3985" stroke-linecap="butt" stroke-linejoin="miter" stroke="rgb(0%, 0%, 0%)" stroke-opacity="1" stroke-miterlimit="10" d="M 14.880607 -8.505873 L 38.976573 -8.505873 L 38.976573 8.506035 L 14.880607 8.506035 Z M 14.880607 -8.505873 " transform="matrix(0.998611, 0, 0, -0.998611, 43.757249, 42.88094)"/>
<path fill-rule="nonzero" fill="rgb(90.821838%, 94.117737%, 96.469116%)" fill-opacity="1" stroke-width="0.3985" stroke-linecap="butt" stroke-linejoin="miter" stroke="rgb(0%, 0%, 0%)" stroke-opacity="1" stroke-miterlimit="10" d="M 41.812543 -8.505873 L 65.904598 -8.505873 L 65.904598 8.506035 L 41.812543 8.506035 Z M 41.812543 -8.505873 " transform="matrix(0.998611, 0, 0, -0.998611, 43.757249, 42.88094)"/>
<path fill-rule="nonzero" fill="rgb(90.821838%, 94.117737%, 96.469116%)" fill-opacity="1" stroke-width="0.3985" stroke-linecap="butt" stroke-linejoin="miter" stroke="rgb(0%, 0%, 0%)" stroke-opacity="1" stroke-miterlimit="10" d="M 68.740568 -8.505873 L 92.836535 -8.505873 L 92.836535 8.506035 L 68.740568 8.506035 Z M 68.740568 -8.505873 " transform="matrix(0.998611, 0, 0, -0.998611, 43.757249, 42.88094)"/>
<path fill-rule="nonzero" fill="rgb(90.821838%, 94.117737%, 96.469116%)" fill-opacity="1" stroke-width="0.3985" stroke-linecap="butt" stroke-linejoin="miter" stroke="rgb(0%, 0%, 0%)" stroke-opacity="1" stroke-miterlimit="10" d="M 95.668593 -8.505873 L 119.76456 -8.505873 L 119.76456 8.506035 L 95.668593 8.506035 Z M 95.668593 -8.505873 " transform="matrix(0.998611, 0, 0, -0.998611, 43.757249, 42.88094)"/>
<path fill-rule="nonzero" fill="rgb(91.294861%, 95.057678%, 92.234802%)" fill-opacity="1" stroke-width="0.3985" stroke-linecap="butt" stroke-linejoin="miter" stroke="rgb(0%, 0%, 0%)" stroke-opacity="1" stroke-miterlimit="10" d="M 122.60053 -8.505873 L 146.692585 -8.505873 L 146.692585 8.506035 L 122.60053 8.506035 Z M 122.60053 -8.505873 " transform="matrix(0.998611, 0, 0, -0.998611, 43.757249, 42.88094)"/>
<path fill-rule="nonzero" fill="rgb(93.998718%, 93.998718%, 93.998718%)" fill-opacity="1" stroke-width="0.3985" stroke-linecap="butt" stroke-linejoin="miter" stroke="rgb(0%, 0%, 0%)" stroke-opacity="1" stroke-miterlimit="10" d="M 165.687717 -8.505873 L 189.779772 -8.505873 L 189.779772 8.506035 L 165.687717 8.506035 Z M 165.687717 -8.505873 " transform="matrix(0.998611, 0, 0, -0.998611, 43.757249, 42.88094)"/>
<g fill="rgb(0%, 0%, 0%)" fill-opacity="1">
<use xlink:href="#glyph-1-4" x="9.883031" y="68.567854"/>
</g>
<g fill="rgb(0%, 0%, 0%)" fill-opacity="1">
<use xlink:href="#glyph-2-1" x="16.929761" y="65.397823"/>
</g>
<path fill-rule="nonzero" fill="rgb(97.880554%, 94.587708%, 89.881897%)" fill-opacity="1" stroke-width="0.3985" stroke-linecap="butt" stroke-linejoin="miter" stroke="rgb(0%, 0%, 0%)" stroke-opacity="1" stroke-miterlimit="10" d="M -12.047419 -30.614705 L 12.048548 -30.614705 L 12.048548 -13.606708 L -12.047419 -13.606708 Z M -12.047419 -30.614705 " transform="matrix(0.998611, 0, 0, -0.998611, 43.757249, 42.88094)"/>
<path fill-rule="nonzero" fill="rgb(97.880554%, 94.587708%, 89.881897%)" fill-opacity="1" stroke-width="0.3985" stroke-linecap="butt" stroke-linejoin="miter" stroke="rgb(0%, 0%, 0%)" stroke-opacity="1" stroke-miterlimit="10" d="M 14.880607 -30.614705 L 38.976573 -30.614705 L 38.976573 -13.606708 L 14.880607 -13.606708 Z M 14.880607 -30.614705 " transform="matrix(0.998611, 0, 0, -0.998611, 43.757249, 42.88094)"/>
<path fill-rule="nonzero" fill="rgb(90.821838%, 94.117737%, 96.469116%)" fill-opacity="1" stroke-width="0.3985" stroke-linecap="butt" stroke-linejoin="miter" stroke="rgb(0%, 0%, 0%)" stroke-opacity="1" stroke-miterlimit="10" d="M 41.812543 -30.614705 L 65.904598 -30.614705 L 65.904598 -13.606708 L 41.812543 -13.606708 Z M 41.812543 -30.614705 " transform="matrix(0.998611, 0, 0, -0.998611, 43.757249, 42.88094)"/>
<path fill-rule="nonzero" fill="rgb(90.821838%, 94.117737%, 96.469116%)" fill-opacity="1" stroke-width="0.3985" stroke-linecap="butt" stroke-linejoin="miter" stroke="rgb(0%, 0%, 0%)" stroke-opacity="1" stroke-miterlimit="10" d="M 68.740568 -30.614705 L 92.836535 -30.614705 L 92.836535 -13.606708 L 68.740568 -13.606708 Z M 68.740568 -30.614705 " transform="matrix(0.998611, 0, 0, -0.998611, 43.757249, 42.88094)"/>
<path fill-rule="nonzero" fill="rgb(90.821838%, 94.117737%, 96.469116%)" fill-opacity="1" stroke-width="0.3985" stroke-linecap="butt" stroke-linejoin="miter" stroke="rgb(0%, 0%, 0%)" stroke-opacity="1" stroke-miterlimit="10" d="M 95.668593 -30.614705 L 119.76456 -30.614705 L 119.76456 -13.606708 L 95.668593 -13.606708 Z M 95.668593 -30.614705 " transform="matrix(0.998611, 0, 0, -0.998611, 43.757249, 42.88094)"/>
<path fill-rule="nonzero" fill="rgb(91.294861%, 95.057678%, 92.234802%)" fill-opacity="1" stroke-width="0.3985" stroke-linecap="butt" stroke-linejoin="miter" stroke="rgb(0%, 0%, 0%)" stroke-opacity="1" stroke-miterlimit="10" d="M 122.60053 -30.614705 L 146.692585 -30.614705 L 146.692585 -13.606708 L 122.60053 -13.606708 Z M 122.60053 -30.614705 " transform="matrix(0.998611, 0, 0, -0.998611, 43.757249, 42.88094)"/>
<path fill-rule="nonzero" fill="rgb(93.998718%, 93.998718%, 93.998718%)" fill-opacity="1" stroke-width="0.3985" stroke-linecap="butt" stroke-linejoin="miter" stroke="rgb(0%, 0%, 0%)" stroke-opacity="1" stroke-miterlimit="10" d="M 165.687717 -30.614705 L 189.779772 -30.614705 L 189.779772 -13.606708 L 165.687717 -13.606708 Z M 165.687717 -30.614705 " transform="matrix(0.998611, 0, 0, -0.998611, 43.757249, 42.88094)"/>
<g fill="rgb(0%, 0%, 0%)" fill-opacity="1">
<use xlink:href="#glyph-1-4" x="9.883031" y="90.632686"/>
</g>
<g fill="rgb(0%, 0%, 0%)" fill-opacity="1">
<use xlink:href="#glyph-2-2" x="16.929761" y="87.462655"/>
</g>
<path fill-rule="nonzero" fill="rgb(97.880554%, 94.587708%, 89.881897%)" fill-opacity="1" stroke-width="0.3985" stroke-linecap="butt" stroke-linejoin="miter" stroke="rgb(0%, 0%, 0%)" stroke-opacity="1" stroke-miterlimit="10" d="M -12.047419 -52.723537 L 12.048548 -52.723537 L 12.048548 -35.71554 L -12.047419 -35.71554 Z M -12.047419 -52.723537 " transform="matrix(0.998611, 0, 0, -0.998611, 43.757249, 42.88094)"/>
<path fill-rule="nonzero" fill="rgb(97.880554%, 94.587708%, 89.881897%)" fill-opacity="1" stroke-width="0.3985" stroke-linecap="butt" stroke-linejoin="miter" stroke="rgb(0%, 0%, 0%)" stroke-opacity="1" stroke-miterlimit="10" d="M 14.880607 -52.723537 L 38.976573 -52.723537 L 38.976573 -35.71554 L 14.880607 -35.71554 Z M 14.880607 -52.723537 " transform="matrix(0.998611, 0, 0, -0.998611, 43.757249, 42.88094)"/>
<path fill-rule="nonzero" fill="rgb(90.821838%, 94.117737%, 96.469116%)" fill-opacity="1" stroke-width="0.3985" stroke-linecap="butt" stroke-linejoin="miter" stroke="rgb(0%, 0%, 0%)" stroke-opacity="1" stroke-miterlimit="10" d="M 41.812543 -52.723537 L 65.904598 -52.723537 L 65.904598 -35.71554 L 41.812543 -35.71554 Z M 41.812543 -52.723537 " transform="matrix(0.998611, 0, 0, -0.998611, 43.757249, 42.88094)"/>
<path fill-rule="nonzero" fill="rgb(90.821838%, 94.117737%, 96.469116%)" fill-opacity="1" stroke-width="0.3985" stroke-linecap="butt" stroke-linejoin="miter" stroke="rgb(0%, 0%, 0%)" stroke-opacity="1" stroke-miterlimit="10" d="M 68.740568 -52.723537 L 92.836535 -52.723537 L 92.836535 -35.71554 L 68.740568 -35.71554 Z M 68.740568 -52.723537 " transform="matrix(0.998611, 0, 0, -0.998611, 43.757249, 42.88094)"/>
<path fill-rule="nonzero" fill="rgb(90.821838%, 94.117737%, 96.469116%)" fill-opacity="1" stroke-width="0.3985" stroke-linecap="butt" stroke-linejoin="miter" stroke="rgb(0%, 0%, 0%)" stroke-opacity="1" stroke-miterlimit="10" d="M 95.668593 -52.723537 L 119.76456 -52.723537 L 119.76456 -35.71554 L 95.668593 -35.71554 Z M 95.668593 -52.723537 " transform="matrix(0.998611, 0, 0, -0.998611, 43.757249, 42.88094)"/>
<path fill-rule="nonzero" fill="rgb(91.294861%, 95.057678%, 92.234802%)" fill-opacity="1" stroke-width="0.3985" stroke-linecap="butt" stroke-linejoin="miter" stroke="rgb(0%, 0%, 0%)" stroke-opacity="1" stroke-miterlimit="10" d="M 122.60053 -52.723537 L 146.692585 -52.723537 L 146.692585 -35.71554 L 122.60053 -35.71554 Z M 122.60053 -52.723537 " transform="matrix(0.998611, 0, 0, -0.998611, 43.757249, 42.88094)"/>
<path fill-rule="nonzero" fill="rgb(93.998718%, 93.998718%, 93.998718%)" fill-opacity="1" stroke-width="0.3985" stroke-linecap="butt" stroke-linejoin="miter" stroke="rgb(0%, 0%, 0%)" stroke-opacity="1" stroke-miterlimit="10" d="M 165.687717 -52.723537 L 189.779772 -52.723537 L 189.779772 -35.71554 L 165.687717 -35.71554 Z M 165.687717 -52.723537 " transform="matrix(0.998611, 0, 0, -0.998611, 43.757249, 42.88094)"/>
<g fill="rgb(0%, 0%, 0%)" fill-opacity="1">
<use xlink:href="#glyph-1-4" x="9.883031" y="112.712447"/>
</g>
<g fill="rgb(0%, 0%, 0%)" fill-opacity="1">
<use xlink:href="#glyph-2-3" x="16.929761" y="109.542416"/>
</g>
<path fill-rule="nonzero" fill="rgb(97.880554%, 94.587708%, 89.881897%)" fill-opacity="1" stroke-width="0.3985" stroke-linecap="butt" stroke-linejoin="miter" stroke="rgb(0%, 0%, 0%)" stroke-opacity="1" stroke-miterlimit="10" d="M -12.047419 -74.83628 L 12.048548 -74.83628 L 12.048548 -57.828283 L -12.047419 -57.828283 Z M -12.047419 -74.83628 " transform="matrix(0.998611, 0, 0, -0.998611, 43.757249, 42.88094)"/>
<path fill-rule="nonzero" fill="rgb(97.880554%, 94.587708%, 89.881897%)" fill-opacity="1" stroke-width="0.3985" stroke-linecap="butt" stroke-linejoin="miter" stroke="rgb(0%, 0%, 0%)" stroke-opacity="1" stroke-miterlimit="10" d="M 14.880607 -74.83628 L 38.976573 -74.83628 L 38.976573 -57.828283 L 14.880607 -57.828283 Z M 14.880607 -74.83628 " transform="matrix(0.998611, 0, 0, -0.998611, 43.757249, 42.88094)"/>
<path fill-rule="nonzero" fill="rgb(90.821838%, 94.117737%, 96.469116%)" fill-opacity="1" stroke-width="0.3985" stroke-linecap="butt" stroke-linejoin="miter" stroke="rgb(0%, 0%, 0%)" stroke-opacity="1" stroke-miterlimit="10" d="M 41.812543 -74.83628 L 65.904598 -74.83628 L 65.904598 -57.828283 L 41.812543 -57.828283 Z M 41.812543 -74.83628 " transform="matrix(0.998611, 0, 0, -0.998611, 43.757249, 42.88094)"/>
<path fill-rule="nonzero" fill="rgb(90.821838%, 94.117737%, 96.469116%)" fill-opacity="1" stroke-width="0.3985" stroke-linecap="butt" stroke-linejoin="miter" stroke="rgb(0%, 0%, 0%)" stroke-opacity="1" stroke-miterlimit="10" d="M 68.740568 -74.83628 L 92.836535 -74.83628 L 92.836535 -57.828283 L 68.740568 -57.828283 Z M 68.740568 -74.83628 " transform="matrix(0.998611, 0, 0, -0.998611, 43.757249, 42.88094)"/>
<path fill-rule="nonzero" fill="rgb(90.821838%, 94.117737%, 96.469116%)" fill-opacity="1" stroke-width="0.3985" stroke-linecap="butt" stroke-linejoin="miter" stroke="rgb(0%, 0%, 0%)" stroke-opacity="1" stroke-miterlimit="10" d="M 95.668593 -74.83628 L 119.76456 -74.83628 L 119.76456 -57.828283 L 95.668593 -57.828283 Z M 95.668593 -74.83628 " transform="matrix(0.998611, 0, 0, -0.998611, 43.757249, 42.88094)"/>
<path fill-rule="nonzero" fill="rgb(91.294861%, 95.057678%, 92.234802%)" fill-opacity="1" stroke-width="0.3985" stroke-linecap="butt" stroke-linejoin="miter" stroke="rgb(0%, 0%, 0%)" stroke-opacity="1" stroke-miterlimit="10" d="M 122.60053 -74.83628 L 146.692585 -74.83628 L 146.692585 -57.828283 L 122.60053 -57.828283 Z M 122.60053 -74.83628 " transform="matrix(0.998611, 0, 0, -0.998611, 43.757249, 42.88094)"/>
<path fill-rule="nonzero" fill="rgb(93.998718%, 93.998718%, 93.998718%)" fill-opacity="1" stroke-width="0.3985" stroke-linecap="butt" stroke-linejoin="miter" stroke="rgb(0%, 0%, 0%)" stroke-opacity="1" stroke-miterlimit="10" d="M 165.687717 -74.83628 L 189.779772 -74.83628 L 189.779772 -57.828283 L 165.687717 -57.828283 Z M 165.687717 -74.83628 " transform="matrix(0.998611, 0, 0, -0.998611, 43.757249, 42.88094)"/>
<g fill="rgb(0%, 0%, 0%)" fill-opacity="1">
<use xlink:href="#glyph-1-4" x="5.552265" y="156.886898"/>
</g>
<g fill="rgb(0%, 0%, 0%)" fill-opacity="1">
<use xlink:href="#glyph-2-4" x="12.598994" y="153.716867"/>
<use xlink:href="#glyph-2-5" x="16.723768" y="153.716867"/>
<use xlink:href="#glyph-2-1" x="21.260422" y="153.716867"/>
</g>
<path fill-rule="nonzero" fill="rgb(97.880554%, 94.587708%, 89.881897%)" fill-opacity="1" stroke-width="0.3985" stroke-linecap="butt" stroke-linejoin="miter" stroke="rgb(0%, 0%, 0%)" stroke-opacity="1" stroke-miterlimit="10" d="M -12.047419 -119.057855 L 12.048548 -119.057855 L 12.048548 -102.049858 L -12.047419 -102.049858 Z M -12.047419 -119.057855 " transform="matrix(0.998611, 0, 0, -0.998611, 43.757249, 42.88094)"/>
<path fill-rule="nonzero" fill="rgb(97.880554%, 94.587708%, 89.881897%)" fill-opacity="1" stroke-width="0.3985" stroke-linecap="butt" stroke-linejoin="miter" stroke="rgb(0%, 0%, 0%)" stroke-opacity="1" stroke-miterlimit="10" d="M 14.880607 -119.057855 L 38.976573 -119.057855 L 38.976573 -102.049858 L 14.880607 -102.049858 Z M 14.880607 -119.057855 " transform="matrix(0.998611, 0, 0, -0.998611, 43.757249, 42.88094)"/>
<path fill-rule="nonzero" fill="rgb(90.821838%, 94.117737%, 96.469116%)" fill-opacity="1" stroke-width="0.3985" stroke-linecap="butt" stroke-linejoin="miter" stroke="rgb(0%, 0%, 0%)" stroke-opacity="1" stroke-miterlimit="10" d="M 41.812543 -119.057855 L 65.904598 -119.057855 L 65.904598 -102.049858 L 41.812543 -102.049858 Z M 41.812543 -119.057855 " transform="matrix(0.998611, 0, 0, -0.998611, 43.757249, 42.88094)"/>
<path fill-rule="nonzero" fill="rgb(90.821838%, 94.117737%, 96.469116%)" fill-opacity="1" stroke-width="0.3985" stroke-linecap="butt" stroke-linejoin="miter" stroke="rgb(0%, 0%, 0%)" stroke-opacity="1" stroke-miterlimit="10" d="M 68.740568 -119.057855 L 92.836535 -119.057855 L 92.836535 -102.049858 L 68.740568 -102.049858 Z M 68.740568 -119.057855 " transform="matrix(0.998611, 0, 0, -0.998611, 43.757249, 42.88094)"/>
<path fill-rule="nonzero" fill="rgb(90.821838%, 94.117737%, 96.469116%)" fill-opacity="1" stroke-width="0.3985" stroke-linecap="butt" stroke-linejoin="miter" stroke="rgb(0%, 0%, 0%)" stroke-opacity="1" stroke-miterlimit="10" d="M 95.668593 -119.057855 L 119.76456 -119.057855 L 119.76456 -102.049858 L 95.668593 -102.049858 Z M 95.668593 -119.057855 " transform="matrix(0.998611, 0, 0, -0.998611, 43.757249, 42.88094)"/>
<path fill-rule="nonzero" fill="rgb(91.294861%, 95.057678%, 92.234802%)" fill-opacity="1" stroke-width="0.3985" stroke-linecap="butt" stroke-linejoin="miter" stroke="rgb(0%, 0%, 0%)" stroke-opacity="1" stroke-miterlimit="10" d="M 122.60053 -119.057855 L 146.692585 -119.057855 L 146.692585 -102.049858 L 122.60053 -102.049858 Z M 122.60053 -119.057855 " transform="matrix(0.998611, 0, 0, -0.998611, 43.757249, 42.88094)"/>
<path fill-rule="nonzero" fill="rgb(93.998718%, 93.998718%, 93.998718%)" fill-opacity="1" stroke-width="0.3985" stroke-linecap="butt" stroke-linejoin="miter" stroke="rgb(0%, 0%, 0%)" stroke-opacity="1" stroke-miterlimit="10" d="M 165.687717 -119.057855 L 189.779772 -119.057855 L 189.779772 -102.049858 L 165.687717 -102.049858 Z M 165.687717 -119.057855 " transform="matrix(0.998611, 0, 0, -0.998611, 43.757249, 42.88094)"/>
<g fill="rgb(0%, 0%, 0%)" fill-opacity="1">
<use xlink:href="#glyph-1-5" x="14.267034" y="133.438491"/>
</g>
<g fill="rgb(0%, 0%, 0%)" fill-opacity="1">
<use xlink:href="#glyph-1-5" x="42.503692" y="133.438491"/>
</g>
<g fill="rgb(0%, 0%, 0%)" fill-opacity="1">
<use xlink:href="#glyph-1-5" x="69.39568" y="133.438491"/>
</g>
<g fill="rgb(0%, 0%, 0%)" fill-opacity="1">
<use xlink:href="#glyph-1-5" x="96.287658" y="133.438491"/>
</g>
<g fill="rgb(0%, 0%, 0%)" fill-opacity="1">
<use xlink:href="#glyph-1-5" x="123.179656" y="133.438491"/>
</g>
<g fill="rgb(0%, 0%, 0%)" fill-opacity="1">
<use xlink:href="#glyph-1-5" x="150.071654" y="133.438491"/>
</g>
<g fill="rgb(0%, 0%, 0%)" fill-opacity="1">
<use xlink:href="#glyph-1-5" x="176.963632" y="133.438491"/>
</g>
<g fill="rgb(0%, 0%, 0%)" fill-opacity="1">
<use xlink:href="#glyph-1-5" x="219.990979" y="133.438491"/>
</g>
<path fill="none" stroke-width="0.79701" stroke-linecap="butt" stroke-linejoin="miter" stroke="rgb(18.798828%, 40.79895%, 56.498718%)" stroke-opacity="1" stroke-miterlimit="10" d="M 40.392602 -14.154344 L 40.392602 -52.179813 C 40.392602 -53.278996 41.284466 -54.170859 42.387561 -54.170859 L 119.189543 -54.170859 C 120.288725 -54.170859 121.180589 -53.278996 121.180589 -52.179813 L 121.180589 -14.154344 C 121.180589 -13.051249 120.288725 -12.159385 119.189543 -12.159385 L 42.387561 -12.159385 C 41.284466 -12.159385 40.392602 -13.051249 40.392602 -14.154344 Z M 40.392602 -14.154344 " transform="matrix(0.998611, 0, 0, -0.998611, 43.757249, 42.88094)"/>
<g fill="rgb(0%, 0%, 0%)" fill-opacity="1">
<use xlink:href="#glyph-0-13" x="248.962105" y="47.574512"/>
</g>
<g fill="rgb(0%, 0%, 0%)" fill-opacity="1">
<use xlink:href="#glyph-0-4" x="253.815131" y="47.574512"/>
</g>
<g fill="rgb(0%, 0%, 0%)" fill-opacity="1">
<use xlink:href="#glyph-0-10" x="258.283139" y="47.574512"/>
<use xlink:href="#glyph-0-2" x="261.202118" y="47.574512"/>
</g>
<g fill="rgb(0%, 0%, 0%)" fill-opacity="1">
<use xlink:href="#glyph-0-4" x="268.472703" y="47.574512"/>
<use xlink:href="#glyph-0-10" x="272.949664" y="47.574512"/>
</g>
<g fill="rgb(0%, 0%, 0%)" fill-opacity="1">
<use xlink:href="#glyph-0-14" x="278.850299" y="47.574512"/>
<use xlink:href="#glyph-0-15" x="282.387099" y="47.574512"/>
</g>
<g fill="rgb(0%, 0%, 0%)" fill-opacity="1">
<use xlink:href="#glyph-0-16" x="287.061046" y="47.574512"/>
</g>
<g fill="rgb(0%, 0%, 0%)" fill-opacity="1">
<use xlink:href="#glyph-1-4" x="297.509325" y="47.574512"/>
</g>
<g fill="rgb(0%, 0%, 0%)" fill-opacity="1">
<use xlink:href="#glyph-2-1" x="304.556054" y="44.404481"/>
</g>
<g fill="rgb(0%, 0%, 0%)" fill-opacity="1">
<use xlink:href="#glyph-0-17" x="308.784293" y="47.574512"/>
</g>
<g fill="rgb(0%, 0%, 0%)" fill-opacity="1">
<use xlink:href="#glyph-0-14" x="315.499735" y="47.574512"/>
<use xlink:href="#glyph-0-2" x="319.036535" y="47.574512"/>
<use xlink:href="#glyph-0-4" x="323.325464" y="47.574512"/>
<use xlink:href="#glyph-0-3" x="327.802425" y="47.574512"/>
<use xlink:href="#glyph-0-9" x="333.273272" y="47.574512"/>
</g>
<g fill="rgb(0%, 0%, 0%)" fill-opacity="1">
<use xlink:href="#glyph-0-14" x="340.051391" y="47.574512"/>
<use xlink:href="#glyph-0-15" x="343.588191" y="47.574512"/>
</g>
<g fill="rgb(0%, 0%, 0%)" fill-opacity="1">
<use xlink:href="#glyph-0-10" x="348.351678" y="47.574512"/>
<use xlink:href="#glyph-0-4" x="351.270657" y="47.574512"/>
<use xlink:href="#glyph-0-10" x="355.747618" y="47.574512"/>
<use xlink:href="#glyph-0-6" x="358.666597" y="47.574512"/>
<use xlink:href="#glyph-0-15" x="361.236373" y="47.574512"/>
<use xlink:href="#glyph-0-8" x="366.125214" y="47.574512"/>
</g>
<g fill="rgb(0%, 0%, 0%)" fill-opacity="1">
<use xlink:href="#glyph-1-6" x="374.314433" y="47.574512"/>
</g>
<g fill="rgb(0%, 0%, 0%)" fill-opacity="1">
<use xlink:href="#glyph-0-18" x="248.550228" y="58.518192"/>
<use xlink:href="#glyph-0-14" x="252.633217" y="58.518192"/>
<use xlink:href="#glyph-0-15" x="256.170016" y="58.518192"/>
</g>
<g fill="rgb(0%, 0%, 0%)" fill-opacity="1">
<use xlink:href="#glyph-0-16" x="260.843964" y="58.518192"/>
</g>
<g fill="rgb(0%, 0%, 0%)" fill-opacity="1">
<use xlink:href="#glyph-1-4" x="271.286906" y="58.518192"/>
</g>
<g fill="rgb(0%, 0%, 0%)" fill-opacity="1">
<use xlink:href="#glyph-2-1" x="278.333635" y="55.348161"/>
</g>
<g fill="rgb(0%, 0%, 0%)" fill-opacity="1">
<use xlink:href="#glyph-0-19" x="282.561874" y="58.518192"/>
</g>
<g fill="rgb(0%, 0%, 0%)" fill-opacity="1">
<use xlink:href="#glyph-0-4" x="289.626519" y="58.518192"/>
<use xlink:href="#glyph-0-8" x="294.10348" y="58.518192"/>
<use xlink:href="#glyph-0-3" x="299.314663" y="58.518192"/>
</g>
<g fill="rgb(0%, 0%, 0%)" fill-opacity="1">
<use xlink:href="#glyph-0-14" x="307.767167" y="58.518192"/>
<use xlink:href="#glyph-0-15" x="311.303966" y="58.518192"/>
</g>
<g fill="rgb(0%, 0%, 0%)" fill-opacity="1">
<use xlink:href="#glyph-0-10" x="316.067453" y="58.518192"/>
<use xlink:href="#glyph-0-4" x="318.986432" y="58.518192"/>
<use xlink:href="#glyph-0-10" x="323.463393" y="58.518192"/>
<use xlink:href="#glyph-0-6" x="326.382372" y="58.518192"/>
<use xlink:href="#glyph-0-15" x="328.952148" y="58.518192"/>
<use xlink:href="#glyph-0-8" x="333.840989" y="58.518192"/>
</g>
<g fill="rgb(0%, 0%, 0%)" fill-opacity="1">
<use xlink:href="#glyph-1-7" x="342.032871" y="58.518192"/>
<use xlink:href="#glyph-1-8" x="348.837852" y="58.518192"/>
</g>
<g fill="rgb(0%, 0%, 0%)" fill-opacity="1">
<use xlink:href="#glyph-0-18" x="356.299129" y="58.518192"/>
<use xlink:href="#glyph-0-14" x="360.382118" y="58.518192"/>
<use xlink:href="#glyph-0-15" x="363.918917" y="58.518192"/>
</g>
<g fill="rgb(0%, 0%, 0%)" fill-opacity="1">
<use xlink:href="#glyph-0-16" x="368.592865" y="58.518192"/>
</g>
<g fill="rgb(0%, 0%, 0%)" fill-opacity="1">
<use xlink:href="#glyph-1-4" x="248.962095" y="69.461871"/>
</g>
<g fill="rgb(0%, 0%, 0%)" fill-opacity="1">
<use xlink:href="#glyph-2-2" x="256.008825" y="66.29184"/>
</g>
<g fill="rgb(0%, 0%, 0%)" fill-opacity="1">
<use xlink:href="#glyph-0-19" x="260.237064" y="69.461871"/>
<use xlink:href="#glyph-0-20" x="264.320053" y="69.461871"/>
</g>
<g fill="rgb(0%, 0%, 0%)" fill-opacity="1">
<use xlink:href="#glyph-0-3" x="269.54019" y="69.461871"/>
<use xlink:href="#glyph-0-2" x="275.011036" y="69.461871"/>
<use xlink:href="#glyph-0-13" x="279.299965" y="69.461871"/>
</g>
<g fill="rgb(0%, 0%, 0%)" fill-opacity="1">
<use xlink:href="#glyph-0-14" x="284.412655" y="69.461871"/>
<use xlink:href="#glyph-0-2" x="287.949455" y="69.461871"/>
<use xlink:href="#glyph-0-2" x="292.238384" y="69.461871"/>
</g>
<g fill="rgb(0%, 0%, 0%)" fill-opacity="1">
<use xlink:href="#glyph-1-9" x="299.514316" y="69.461871"/>
</g>
<g fill="rgb(0%, 0%, 0%)" fill-opacity="1">
<use xlink:href="#glyph-1-10" x="308.853258" y="69.461871"/>
</g>
<g fill="rgb(0%, 0%, 0%)" fill-opacity="1">
<use xlink:href="#glyph-3-0" x="313.337411" y="71.539402"/>
<use xlink:href="#glyph-3-1" x="318.608287" y="71.539402"/>
<use xlink:href="#glyph-3-2" x="321.592928" y="71.539402"/>
</g>
<path fill="none" stroke-width="0.3985" stroke-linecap="butt" stroke-linejoin="miter" stroke="rgb(18.798828%, 40.79895%, 56.498718%)" stroke-opacity="1" stroke-miterlimit="10" d="M 201.968576 -13.266391 L 127.400165 -21.566983 " transform="matrix(0.998611, 0, 0, -0.998611, 43.757249, 42.88094)"/>
<path fill-rule="nonzero" fill="rgb(18.798828%, 40.79895%, 56.498718%)" fill-opacity="1" stroke-width="0.3985" stroke-linecap="butt" stroke-linejoin="miter" stroke="rgb(18.798828%, 40.79895%, 56.498718%)" stroke-opacity="1" stroke-miterlimit="10" d="M 4.083274 0.000971224 C 3.581316 0.123763 1.375236 0.814122 -0.00139105 1.565653 L 0.00012186 -1.56764 C 1.378788 -0.815813 3.581697 -0.120317 4.083274 0.000971224 Z M 4.083274 0.000971224 " transform="matrix(-0.99242, 0.110476, 0.110476, 0.99242, 170.981902, 64.419025)"/>
<path fill="none" stroke-width="0.79701" stroke-linecap="butt" stroke-linejoin="miter" stroke="rgb(27.49939%, 58.799744%, 35.299683%)" stroke-opacity="1" stroke-miterlimit="10" d="M 53.860527 -13.407212 C 53.860527 -48.643652 91.561326 -57.487967 103.014734 -57.585759 " transform="matrix(0.998611, 0, 0, -0.998611, 43.757249, 42.88094)"/>
<path fill-rule="nonzero" fill="rgb(27.49939%, 58.799744%, 35.299683%)" fill-opacity="1" stroke-width="0.79701" stroke-linecap="butt" stroke-linejoin="miter" stroke="rgb(27.49939%, 58.799744%, 35.299683%)" stroke-opacity="1" stroke-miterlimit="10" d="M 3.059014 -0.00174654 C 2.683492 0.0960455 1.032762 0.631946 0.0000779277 1.218699 L 0.0000779277 -1.21828 C 1.032762 -0.635439 2.683492 -0.0956269 3.059014 -0.00174654 Z M 3.059014 -0.00174654 " transform="matrix(0, -0.998611, -0.998611, 0, 97.541225, 56.269609)"/>
<path fill-rule="nonzero" fill="rgb(27.49939%, 58.799744%, 35.299683%)" fill-opacity="1" stroke-width="0.79701" stroke-linecap="butt" stroke-linejoin="miter" stroke="rgb(27.49939%, 58.799744%, 35.299683%)" stroke-opacity="1" stroke-miterlimit="10" d="M 3.059909 0.000590814 C 2.683535 0.095116 1.031911 0.632337 0.00187238 1.217998 L -0.000394317 -1.219195 C 1.031203 -0.635156 2.685203 -0.0965573 3.059909 0.000590814 Z M 3.059909 0.000590814 " transform="matrix(0.998531, 0.00868792, 0.00868792, -0.998531, 146.628174, 100.388068)"/>
<g fill="rgb(0%, 0%, 0%)" fill-opacity="1">
<use xlink:href="#glyph-0-7" x="248.962105" y="103.432484"/>
<use xlink:href="#glyph-0-15" x="252.937647" y="103.432484"/>
<use xlink:href="#glyph-0-21" x="257.826489" y="103.432484"/>
</g>
<g fill="rgb(0%, 0%, 0%)" fill-opacity="1">
<use xlink:href="#glyph-0-22" x="262.858593" y="103.432484"/>
</g>
<g fill="rgb(0%, 0%, 0%)" fill-opacity="1">
<use xlink:href="#glyph-0-7" x="270.809677" y="103.432484"/>
<use xlink:href="#glyph-0-15" x="274.785218" y="103.432484"/>
<use xlink:href="#glyph-0-8" x="279.67406" y="103.432484"/>
<use xlink:href="#glyph-0-9" x="284.885243" y="103.432484"/>
</g>
<g fill="rgb(0%, 0%, 0%)" fill-opacity="1">
<use xlink:href="#glyph-0-10" x="288.556352" y="103.432484"/>
<use xlink:href="#glyph-0-14" x="291.47533" y="103.432484"/>
</g>
<g fill="rgb(0%, 0%, 0%)" fill-opacity="1">
<use xlink:href="#glyph-0-4" x="294.877821" y="103.432484"/>
<use xlink:href="#glyph-0-6" x="299.354782" y="103.432484"/>
<use xlink:href="#glyph-0-8" x="301.924558" y="103.432484"/>
<use xlink:href="#glyph-0-10" x="307.135741" y="103.432484"/>
<use xlink:href="#glyph-0-17" x="310.05472" y="103.432484"/>
</g>
<g fill="rgb(0%, 0%, 0%)" fill-opacity="1">
<use xlink:href="#glyph-0-10" x="316.761208" y="103.432484"/>
<use xlink:href="#glyph-0-16" x="319.680187" y="103.432484"/>
</g>
<g fill="rgb(0%, 0%, 0%)" fill-opacity="1">
<use xlink:href="#glyph-0-15" x="326.798555" y="103.432484"/>
</g>
<g fill="rgb(0%, 0%, 0%)" fill-opacity="1">
<use xlink:href="#glyph-0-7" x="334.6601" y="103.432484"/>
<use xlink:href="#glyph-0-2" x="338.635641" y="103.432484"/>
<use xlink:href="#glyph-0-12" x="342.92457" y="103.432484"/>
<use xlink:href="#glyph-0-12" x="345.530162" y="103.432484"/>
<use xlink:href="#glyph-0-9" x="348.135753" y="103.432484"/>
</g>
<g fill="rgb(0%, 0%, 0%)" fill-opacity="1">
<use xlink:href="#glyph-0-15" x="354.913873" y="103.432484"/>
<use xlink:href="#glyph-0-23" x="359.802714" y="103.432484"/>
</g>
<g fill="rgb(0%, 0%, 0%)" fill-opacity="1">
<use xlink:href="#glyph-1-11" x="365.776697" y="103.432484"/>
</g>
<g fill="rgb(0%, 0%, 0%)" fill-opacity="1">
<use xlink:href="#glyph-0-6" x="374.231858" y="103.432484"/>
<use xlink:href="#glyph-0-8" x="376.801633" y="103.432484"/>
</g>
<g fill="rgb(0%, 0%, 0%)" fill-opacity="1">
<use xlink:href="#glyph-0-15" x="248.962105" y="114.376163"/>
<use xlink:href="#glyph-0-8" x="253.850947" y="114.376163"/>
<use xlink:href="#glyph-0-2" x="259.06213" y="114.376163"/>
</g>
<g fill="rgb(0%, 0%, 0%)" fill-opacity="1">
<use xlink:href="#glyph-0-7" x="266.332715" y="114.376163"/>
<use xlink:href="#glyph-0-22" x="270.308257" y="114.376163"/>
</g>
<g fill="rgb(0%, 0%, 0%)" fill-opacity="1">
<use xlink:href="#glyph-0-7" x="274.892666" y="114.376163"/>
<use xlink:href="#glyph-0-12" x="278.868207" y="114.376163"/>
<use xlink:href="#glyph-0-2" x="281.473799" y="114.376163"/>
</g>
<g fill="rgb(0%, 0%, 0%)" fill-opacity="1">
<use xlink:href="#glyph-0-15" x="288.73543" y="114.376163"/>
<use xlink:href="#glyph-0-23" x="293.624272" y="114.376163"/>
</g>
<g fill="rgb(0%, 0%, 0%)" fill-opacity="1">
<use xlink:href="#glyph-1-12" x="299.595573" y="114.376163"/>
</g>
<g fill="rgb(0%, 0%, 0%)" fill-opacity="1">
<use xlink:href="#glyph-0-24" x="308.552166" y="114.376163"/>
<use xlink:href="#glyph-0-15" x="313.763349" y="114.376163"/>
<use xlink:href="#glyph-0-12" x="318.652191" y="114.376163"/>
<use xlink:href="#glyph-0-3" x="321.257783" y="114.376163"/>
</g>
<g fill="rgb(0%, 0%, 0%)" fill-opacity="1">
<use xlink:href="#glyph-0-2" x="329.710286" y="114.376163"/>
<use xlink:href="#glyph-0-25" x="333.999215" y="114.376163"/>
<use xlink:href="#glyph-0-26" x="339.013411" y="114.376163"/>
<use xlink:href="#glyph-0-4" x="344.412627" y="114.376163"/>
<use xlink:href="#glyph-0-12" x="348.889588" y="114.376163"/>
</g>
<g fill="rgb(0%, 0%, 0%)" fill-opacity="1">
<use xlink:href="#glyph-0-5" x="354.476836" y="114.376163"/>
</g>
<g fill="rgb(0%, 0%, 0%)" fill-opacity="1">
<use xlink:href="#glyph-0-4" x="359.276138" y="114.376163"/>
<use xlink:href="#glyph-0-12" x="363.7531" y="114.376163"/>
<use xlink:href="#glyph-0-26" x="366.358691" y="114.376163"/>
<use xlink:href="#glyph-0-2" x="371.757907" y="114.376163"/>
<use xlink:href="#glyph-0-9" x="376.046836" y="114.376163"/>
</g>
<path fill="none" stroke-width="0.3985" stroke-linecap="butt" stroke-linejoin="miter" stroke="rgb(27.49939%, 58.799744%, 35.299683%)" stroke-opacity="1" stroke-miterlimit="10" d="M 201.968576 -64.118269 L 96.462665 -64.118269 " transform="matrix(0.998611, 0, 0, -0.998611, 43.757249, 42.88094)"/>
<path fill-rule="nonzero" fill="rgb(27.49939%, 58.799744%, 35.299683%)" fill-opacity="1" stroke-width="0.3985" stroke-linecap="butt" stroke-linejoin="miter" stroke="rgb(27.49939%, 58.799744%, 35.299683%)" stroke-opacity="1" stroke-miterlimit="10" d="M 4.08016 -0.0019509 C 3.579465 0.123223 1.377187 0.815591 0.000275076 1.566634 L 0.000275076 -1.566624 C 1.377187 -0.815581 3.579465 -0.123213 4.08016 -0.0019509 Z M 4.08016 -0.0019509 " transform="matrix(-0.998611, 0, 0, 0.998611, 140.086212, 106.912104)"/>
<path fill="none" stroke-width="0.79701" stroke-linecap="butt" stroke-linejoin="miter" stroke="rgb(78.399658%, 23.498535%, 23.498535%)" stroke-opacity="1" stroke-miterlimit="10" d="M 93.036031 -110.553857 C 140.030989 -126.028474 140.030989 -126.028474 160.942846 -120.466061 " transform="matrix(0.998611, 0, 0, -0.998611, 43.757249, 42.88094)"/>
<path fill-rule="nonzero" fill="rgb(78.399658%, 23.498535%, 23.498535%)" fill-opacity="1" stroke-width="0.79701" stroke-linecap="butt" stroke-linejoin="miter" stroke="rgb(78.399658%, 23.498535%, 23.498535%)" stroke-opacity="1" stroke-miterlimit="10" d="M 3.060856 -0.0016364 C 2.685603 0.0941691 1.032314 0.635303 0.00114553 1.217336 L 0.000426202 -1.21933 C 1.031224 -0.631411 2.683689 -0.0955744 3.060856 -0.0016364 Z M 3.060856 -0.0016364 " transform="matrix(0.964998, -0.256783, -0.256783, -0.964998, 204.475548, 163.178927)"/>
<g fill="rgb(0%, 0%, 0%)" fill-opacity="1">
<use xlink:href="#glyph-0-12" x="248.962105" y="152.129665"/>
<use xlink:href="#glyph-0-15" x="251.567697" y="152.129665"/>
<use xlink:href="#glyph-0-15" x="256.456539" y="152.129665"/>
<use xlink:href="#glyph-0-27" x="261.34538" y="152.129665"/>
<use xlink:href="#glyph-0-26" x="266.323761" y="152.129665"/>
<use xlink:href="#glyph-0-21" x="271.722977" y="152.129665"/>
<use xlink:href="#glyph-0-17" x="277.104284" y="152.129665"/>
</g>
<g fill="rgb(0%, 0%, 0%)" fill-opacity="1">
<use xlink:href="#glyph-0-10" x="283.819726" y="152.129665"/>
</g>
<g fill="rgb(0%, 0%, 0%)" fill-opacity="1">
<use xlink:href="#glyph-0-24" x="286.873014" y="152.129665"/>
<use xlink:href="#glyph-0-2" x="292.084197" y="152.129665"/>
</g>
<g fill="rgb(0%, 0%, 0%)" fill-opacity="1">
<use xlink:href="#glyph-0-5" x="299.354782" y="152.129665"/>
</g>
<g fill="rgb(0%, 0%, 0%)" fill-opacity="1">
<use xlink:href="#glyph-0-4" x="304.154085" y="152.129665"/>
<use xlink:href="#glyph-0-12" x="308.631046" y="152.129665"/>
<use xlink:href="#glyph-0-26" x="311.236638" y="152.129665"/>
<use xlink:href="#glyph-0-2" x="316.635853" y="152.129665"/>
</g>
<g fill="rgb(0%, 0%, 0%)" fill-opacity="1">
<use xlink:href="#glyph-0-15" x="323.897484" y="152.129665"/>
<use xlink:href="#glyph-0-23" x="328.786326" y="152.129665"/>
</g>
<g fill="rgb(0%, 0%, 0%)" fill-opacity="1">
<use xlink:href="#glyph-1-1" x="334.757629" y="152.129665"/>
</g>
<g fill="rgb(0%, 0%, 0%)" fill-opacity="1">
<use xlink:href="#glyph-2-1" x="341.222358" y="154.207195"/>
</g>
<g fill="rgb(0%, 0%, 0%)" fill-opacity="1">
<use xlink:href="#glyph-0-4" x="348.434917" y="152.129665"/>
<use xlink:href="#glyph-0-10" x="352.911878" y="152.129665"/>
</g>
<g fill="rgb(0%, 0%, 0%)" fill-opacity="1">
<use xlink:href="#glyph-0-10" x="358.812513" y="152.129665"/>
</g>
<g fill="rgb(0%, 0%, 0%)" fill-opacity="1">
<use xlink:href="#glyph-0-24" x="361.865801" y="152.129665"/>
<use xlink:href="#glyph-0-6" x="367.076984" y="152.129665"/>
<use xlink:href="#glyph-0-9" x="369.646759" y="152.129665"/>
</g>
<g fill="rgb(0%, 0%, 0%)" fill-opacity="1">
<use xlink:href="#glyph-0-14" x="376.424879" y="152.129665"/>
<use xlink:href="#glyph-0-15" x="379.961678" y="152.129665"/>
</g>
<g fill="rgb(0%, 0%, 0%)" fill-opacity="1">
<use xlink:href="#glyph-0-16" x="384.635626" y="152.129665"/>
</g>
<g fill="rgb(0%, 0%, 0%)" fill-opacity="1">
<use xlink:href="#glyph-0-4" x="248.962095" y="163.073344"/>
<use xlink:href="#glyph-0-21" x="253.439057" y="163.073344"/>
<use xlink:href="#glyph-0-21" x="258.820364" y="163.073344"/>
<use xlink:href="#glyph-0-2" x="264.201672" y="163.073344"/>
<use xlink:href="#glyph-0-4" x="268.490601" y="163.073344"/>
<use xlink:href="#glyph-0-14" x="272.967562" y="163.073344"/>
<use xlink:href="#glyph-0-9" x="276.504362" y="163.073344"/>
</g>
<g fill="rgb(0%, 0%, 0%)" fill-opacity="1">
<use xlink:href="#glyph-0-9" x="283.282481" y="163.073344"/>
<use xlink:href="#glyph-0-15" x="287.078944" y="163.073344"/>
<use xlink:href="#glyph-0-28" x="291.967786" y="163.073344"/>
<use xlink:href="#glyph-0-2" x="299.8741" y="163.073344"/>
</g>
<g fill="rgb(0%, 0%, 0%)" fill-opacity="1">
<use xlink:href="#glyph-0-16" x="304.082444" y="163.073344"/>
<use xlink:href="#glyph-0-24" x="311.550015" y="163.073344"/>
<use xlink:href="#glyph-0-2" x="316.761198" y="163.073344"/>
<use xlink:href="#glyph-0-14" x="321.050127" y="163.073344"/>
<use xlink:href="#glyph-0-2" x="324.586926" y="163.073344"/>
</g>
<g fill="rgb(0%, 0%, 0%)" fill-opacity="1">
<use xlink:href="#glyph-0-6" x="331.848558" y="163.073344"/>
<use xlink:href="#glyph-0-8" x="334.418334" y="163.073344"/>
</g>
<g fill="rgb(0%, 0%, 0%)" fill-opacity="1">
<use xlink:href="#glyph-0-10" x="342.611173" y="163.073344"/>
</g>
<g fill="rgb(0%, 0%, 0%)" fill-opacity="1">
<use xlink:href="#glyph-0-24" x="345.664461" y="163.073344"/>
<use xlink:href="#glyph-0-2" x="350.875644" y="163.073344"/>
</g>
<g fill="rgb(0%, 0%, 0%)" fill-opacity="1">
<use xlink:href="#glyph-0-10" x="358.155183" y="163.073344"/>
<use xlink:href="#glyph-0-4" x="361.074162" y="163.073344"/>
<use xlink:href="#glyph-0-11" x="365.551123" y="163.073344"/>
<use xlink:href="#glyph-0-12" x="370.502642" y="163.073344"/>
<use xlink:href="#glyph-0-2" x="373.108234" y="163.073344"/>
</g>
<g fill="rgb(0%, 0%, 0%)" fill-opacity="1">
<use xlink:href="#glyph-0-7" x="248.962095" y="174.017024"/>
<use xlink:href="#glyph-0-15" x="252.937637" y="174.017024"/>
<use xlink:href="#glyph-0-12" x="257.826479" y="174.017024"/>
<use xlink:href="#glyph-0-26" x="260.43207" y="174.017024"/>
<use xlink:href="#glyph-0-28" x="265.831286" y="174.017024"/>
<use xlink:href="#glyph-0-8" x="273.737599" y="174.017024"/>
</g>
<g fill="rgb(0%, 0%, 0%)" fill-opacity="1">
<use xlink:href="#glyph-1-3" x="281.933109" y="174.017024"/>
</g>
<path fill="none" stroke-width="0.3985" stroke-linecap="butt" stroke-linejoin="miter" stroke="rgb(78.399658%, 23.498535%, 23.498535%)" stroke-opacity="1" stroke-miterlimit="10" d="M 201.968576 -117.184159 L 194.755433 -117.184159 " transform="matrix(0.998611, 0, 0, -0.998611, 43.757249, 42.88094)"/>
<path fill-rule="nonzero" fill="rgb(78.399658%, 23.498535%, 23.498535%)" fill-opacity="1" stroke-width="0.3985" stroke-linecap="butt" stroke-linejoin="miter" stroke="rgb(78.399658%, 23.498535%, 23.498535%)" stroke-opacity="1" stroke-miterlimit="10" d="M 4.079913 -0.00139078 C 3.579217 0.123783 1.37694 0.812239 0.0000273435 1.567194 L 0.0000273435 -1.566064 C 1.37694 -0.815021 3.579217 -0.122653 4.079913 -0.00139078 Z M 4.079913 -0.00139078 " transform="matrix(-0.998611, 0, 0, 0.998611, 238.242215, 159.903733)"/>
</svg>
