<?xml version="1.0" encoding="UTF-8"?>
<svg xmlns="http://www.w3.org/2000/svg" xmlns:xlink="http://www.w3.org/1999/xlink" width="244.31pt" height="227.29pt" viewBox="0 0 244.31 227.29">
<defs>
<g>
<g id="glyph-0-0">
<path d="M 0.546875 0.109375 C 1.03125 0.109375 1.53125 -0.25 2.46875 -1.3125 C 2.546875 -1.375 2.546875 -1.3125 2.5 -1.203125 C 2.34375 -0.890625 2.0625 -0.25 2.140625 -0.390625 C 2.109375 -0.328125 2.09375 -0.265625 2.09375 -0.21875 C 2.09375 -0.0625 2.28125 0.109375 2.453125 0.109375 C 2.703125 0.109375 3.03125 -0.046875 3.34375 -0.328125 C 3.53125 -0.5 3.703125 -0.78125 3.703125 -0.859375 C 3.703125 -0.921875 3.6875 -0.953125 3.65625 -0.953125 C 3.625 -0.953125 3.59375 -0.9375 3.578125 -0.90625 C 3.375 -0.640625 3.078125 -0.4375 2.890625 -0.4375 C 2.765625 -0.4375 2.71875 -0.546875 2.78125 -0.703125 L 3.671875 -3.03125 C 3.703125 -3.125 3.71875 -3.171875 3.71875 -3.203125 C 3.71875 -3.296875 3.53125 -3.390625 3.375 -3.390625 C 3.328125 -3.390625 3.296875 -3.375 3.265625 -3.3125 C 3.28125 -3.34375 3.28125 -3.3125 3.140625 -3.078125 C 3.125 -3.046875 3.109375 -3.03125 3.09375 -3.03125 C 3.078125 -3.03125 3.125 -2.96875 3 -3.140625 C 2.921875 -3.21875 2.828125 -3.265625 2.734375 -3.265625 C 2.5625 -3.265625 2.203125 -3.015625 1.640625 -2.515625 C 0.71875 -1.65625 0.140625 -0.796875 0.140625 -0.25 C 0.140625 -0.078125 0.34375 0.109375 0.546875 0.109375 Z M 1.046875 -0.4375 C 0.90625 -0.4375 0.8125 -0.546875 0.8125 -0.703125 C 0.8125 -1.078125 1.28125 -1.828125 1.796875 -2.328125 C 2.0625 -2.59375 2.4375 -2.8125 2.625 -2.8125 C 2.6875 -2.8125 2.765625 -2.765625 2.84375 -2.71875 C 2.90625 -2.65625 2.953125 -2.59375 2.953125 -2.5625 C 2.953125 -2.375 2.703125 -1.953125 2.3125 -1.5 C 1.75 -0.828125 1.265625 -0.4375 1.046875 -0.4375 Z M 1.046875 -0.4375 "/>
</g>
<g id="glyph-0-1">
<path d="M 1.046875 0.078125 C 2.140625 0.078125 3.515625 -1.46875 3.515625 -2.703125 C 3.515625 -3.046875 3.25 -3.296875 2.90625 -3.296875 C 2.5 -3.296875 1.90625 -2.84375 1.28125 -2.015625 C 1.21875 -1.90625 1.15625 -1.9375 1.203125 -2.046875 C 1.453125 -2.875 2.09375 -4.703125 2.296875 -5.25 C 2.34375 -5.359375 2.359375 -5.421875 2.359375 -5.53125 C 2.359375 -5.59375 2.3125 -5.609375 2.21875 -5.609375 C 2.125 -5.609375 1.53125 -5.4375 1.265625 -5.34375 C 1.15625 -5.3125 1.125 -5.28125 1.125 -5.234375 C 1.125 -5.203125 1.203125 -5.15625 1.359375 -5.109375 C 1.515625 -5.078125 1.5625 -5.03125 1.5625 -4.96875 C 1.5625 -4.828125 1.546875 -4.703125 1.484375 -4.53125 L 0.5 -1.546875 C 0.375 -1.203125 0.328125 -0.859375 0.328125 -0.609375 C 0.328125 -0.203125 0.609375 0.078125 1.046875 0.078125 Z M 1.25 -0.1875 C 1.03125 -0.1875 0.84375 -0.4375 0.84375 -0.71875 C 0.84375 -0.921875 1.078125 -1.359375 1.421875 -1.859375 C 1.96875 -2.609375 2.375 -2.953125 2.6875 -2.953125 C 2.8125 -2.953125 2.921875 -2.828125 2.921875 -2.65625 C 2.921875 -2.28125 2.609375 -1.546875 2.234375 -1.03125 C 1.875 -0.5625 1.453125 -0.1875 1.25 -0.1875 Z M 1.25 -0.1875 "/>
</g>
<g id="glyph-0-2">
<path d="M 2.859375 0.109375 C 3.34375 0.109375 4.28125 -0.1875 4.40625 -0.484375 C 4.34375 -0.59375 4.3125 -0.65625 4.3125 -0.75 C 4.3125 -0.875 4.453125 -1.390625 4.609375 -1.703125 C 4.703125 -1.90625 4.828125 -2 5.078125 -2.046875 C 5.234375 -2.078125 5.3125 -2.140625 5.3125 -2.203125 C 5.3125 -2.265625 5.25 -2.3125 5.15625 -2.3125 C 4.875 -2.3125 4.703125 -2.265625 4.4375 -2.265625 C 4.078125 -2.265625 3.828125 -2.3125 3.46875 -2.3125 C 3.328125 -2.3125 3.21875 -2.265625 3.21875 -2.203125 C 3.21875 -2.125 3.34375 -2.09375 3.453125 -2.078125 C 3.546875 -2.0625 3.6875 -2.03125 3.828125 -1.984375 C 3.96875 -1.9375 4.015625 -1.859375 3.96875 -1.671875 L 3.734375 -0.796875 C 3.640625 -0.421875 3.359375 -0.125 2.875 -0.125 C 2.0625 -0.125 1.171875 -0.796875 1.203125 -1.875 C 1.265625 -3.515625 2.359375 -5.03125 3.765625 -5.03125 C 4.171875 -5.03125 4.421875 -4.828125 4.5625 -4.640625 C 4.734375 -4.421875 4.734375 -4.15625 4.703125 -3.90625 C 4.671875 -3.75 4.71875 -3.65625 4.828125 -3.65625 C 4.890625 -3.65625 4.9375 -3.734375 4.96875 -3.84375 C 5.046875 -4.203125 5.328125 -4.75 5.515625 -4.984375 C 5.546875 -5.03125 5.546875 -5.125 5.453125 -5.125 C 5.390625 -5.125 5.34375 -5.09375 5.28125 -5.0625 C 5.21875 -5.03125 5.15625 -5 5.09375 -5 C 4.96875 -5 4.84375 -5.046875 4.6875 -5.109375 C 4.5 -5.1875 4.25 -5.265625 3.90625 -5.265625 C 1.96875 -5.265625 0.5 -3.890625 0.453125 -2.109375 C 0.390625 -0.640625 1.46875 0.109375 2.859375 0.109375 Z M 2.859375 0.109375 "/>
</g>
<g id="glyph-0-3">
<path d="M 2.609375 0.015625 C 1.59375 -0.078125 0.796875 -0.9375 0.796875 -1.984375 C 0.796875 -3.09375 1.703125 -4 2.796875 -4 C 3.90625 -4 4.8125 -3.09375 4.8125 -1.984375 C 4.8125 -0.90625 3.9375 -0.03125 2.875 0.015625 C 2.828125 0.03125 2.828125 0.015625 2.875 0 C 2.96875 -0.03125 3.046875 -0.0625 3.046875 -0.15625 L 3.046875 -1.75 C 3.046875 -1.78125 3.046875 -1.78125 3.078125 -1.78125 L 4.546875 -1.78125 C 4.6875 -1.78125 4.78125 -1.96875 4.78125 -2.109375 C 4.78125 -2.15625 4.734375 -2.1875 4.6875 -2.1875 L 3.0625 -2.1875 C 3.046875 -2.1875 3.046875 -2.1875 3.046875 -2.234375 L 3.046875 -3.75 C 3.046875 -3.796875 2.984375 -3.84375 2.921875 -3.84375 C 2.875 -3.84375 2.5625 -3.78125 2.5625 -3.609375 L 2.5625 -2.25 C 2.5625 -2.203125 2.5625 -2.1875 2.515625 -2.1875 L 1.015625 -2.1875 C 0.859375 -2.1875 0.8125 -1.953125 0.8125 -1.875 C 0.8125 -1.828125 0.875 -1.78125 0.921875 -1.78125 L 2.53125 -1.78125 C 2.5625 -1.78125 2.5625 -1.765625 2.5625 -1.75 L 2.5625 -0.078125 C 2.5625 -0.046875 2.578125 -0.015625 2.609375 0.015625 Z M 2.796875 0.421875 C 4.125 0.421875 5.203125 -0.65625 5.203125 -1.984375 C 5.203125 -3.3125 4.125 -4.390625 2.796875 -4.390625 C 1.46875 -4.390625 0.390625 -3.3125 0.390625 -1.984375 C 0.390625 -0.65625 1.46875 0.421875 2.796875 0.421875 Z M 2.796875 0.421875 "/>
</g>
<g id="glyph-0-4">
<path d="M 0.390625 0.109375 C 0.59375 0.109375 0.78125 0.03125 1.015625 -0.25 C 1.265625 -0.546875 1.5 -0.875 1.734375 -1.1875 C 1.796875 -1.265625 1.828125 -1.25 1.859375 -1.140625 C 1.875 -1.09375 2.03125 -0.453125 2.046875 -0.421875 C 2.125 -0.09375 2.25 0.109375 2.546875 0.109375 C 3.03125 0.109375 3.390625 -0.640625 3.390625 -0.9375 C 3.390625 -1.09375 3.359375 -1.109375 3.328125 -1.109375 C 3.28125 -1.109375 3.25 -1.078125 3.21875 -1 C 3.0625 -0.625 2.859375 -0.390625 2.71875 -0.390625 C 2.65625 -0.390625 2.578125 -0.4375 2.546875 -0.59375 L 2.28125 -1.546875 C 2.234375 -1.671875 2.265625 -1.75 2.296875 -1.8125 C 2.5 -2.109375 2.671875 -2.3125 2.8125 -2.5 C 3 -2.71875 3.140625 -2.8125 3.265625 -2.8125 C 3.34375 -2.8125 3.375 -2.765625 3.4375 -2.640625 C 3.46875 -2.5625 3.515625 -2.515625 3.59375 -2.515625 C 3.71875 -2.515625 3.9375 -2.8125 3.921875 -2.953125 C 3.921875 -3.078125 3.71875 -3.3125 3.515625 -3.3125 C 3.234375 -3.3125 2.96875 -3.0625 2.78125 -2.8125 L 2.234375 -2.046875 C 2.1875 -1.96875 2.140625 -1.96875 2.125 -2.0625 L 1.921875 -2.875 C 1.859375 -3.171875 1.75 -3.3125 1.578125 -3.3125 C 1.1875 -3.3125 0.6875 -2.703125 0.6875 -2.375 C 0.6875 -2.296875 0.703125 -2.25 0.75 -2.25 C 0.8125 -2.25 0.859375 -2.328125 0.875 -2.359375 C 1.078125 -2.640625 1.25 -2.78125 1.328125 -2.78125 C 1.390625 -2.78125 1.421875 -2.765625 1.453125 -2.640625 L 1.75 -1.546875 C 1.765625 -1.5 1.765625 -1.4375 1.71875 -1.390625 C 1.40625 -1.03125 1.234375 -0.796875 0.9375 -0.5 C 0.859375 -0.421875 0.78125 -0.375 0.703125 -0.390625 C 0.640625 -0.390625 0.578125 -0.4375 0.546875 -0.5625 C 0.53125 -0.640625 0.5 -0.703125 0.421875 -0.703125 C 0.28125 -0.703125 0.0625 -0.390625 0.0625 -0.203125 C 0.0625 0.015625 0.21875 0.109375 0.390625 0.109375 Z M 0.390625 0.109375 "/>
</g>
<g id="glyph-0-5">
<path d="M 0 0.046875 C 0.390625 0.046875 0.546875 0 0.859375 0 C 1.1875 0 1.359375 0.046875 1.75 0.046875 C 1.875 0.046875 1.984375 0.015625 1.984375 -0.0625 C 1.984375 -0.125 1.953125 -0.171875 1.796875 -0.203125 C 1.46875 -0.265625 1.296875 -0.375 1.421875 -0.8125 L 1.890625 -2.34375 C 1.90625 -2.40625 1.921875 -2.4375 1.96875 -2.4375 L 4.609375 -2.4375 C 4.65625 -2.4375 4.625 -2.375 4.609375 -2.3125 L 4.125 -0.765625 C 4.015625 -0.4375 3.78125 -0.265625 3.4375 -0.203125 C 3.265625 -0.171875 3.171875 -0.125 3.171875 -0.0625 C 3.171875 0.015625 3.234375 0.046875 3.34375 0.046875 C 3.734375 0.046875 3.890625 0 4.203125 0 C 4.5 0 4.609375 0.046875 5 0.046875 C 5.109375 0.046875 5.21875 0.015625 5.21875 -0.0625 C 5.21875 -0.125 5.1875 -0.171875 5.046875 -0.203125 C 4.734375 -0.25 4.6875 -0.390625 4.765625 -0.65625 L 5.90625 -4.375 C 6 -4.6875 6.09375 -4.859375 6.484375 -4.9375 C 6.65625 -4.96875 6.75 -5.03125 6.75 -5.09375 C 6.75 -5.15625 6.703125 -5.1875 6.578125 -5.1875 C 6.1875 -5.1875 6.125 -5.15625 5.84375 -5.15625 C 5.515625 -5.15625 5.34375 -5.1875 4.953125 -5.1875 C 4.84375 -5.1875 4.734375 -5.15625 4.734375 -5.09375 C 4.71875 -5.03125 4.75 -4.96875 4.90625 -4.9375 C 5.265625 -4.859375 5.3125 -4.671875 5.234375 -4.375 L 4.75 -2.84375 C 4.734375 -2.765625 4.703125 -2.75 4.671875 -2.75 L 2.09375 -2.75 C 2.046875 -2.75 2 -2.765625 2.015625 -2.828125 L 2.5 -4.375 C 2.59375 -4.6875 2.78125 -4.859375 3.171875 -4.9375 C 3.34375 -4.96875 3.453125 -5.03125 3.453125 -5.09375 C 3.453125 -5.15625 3.390625 -5.1875 3.28125 -5.1875 C 2.890625 -5.1875 2.75 -5.15625 2.4375 -5.15625 C 2.15625 -5.15625 2.03125 -5.1875 1.640625 -5.1875 C 1.53125 -5.1875 1.40625 -5.15625 1.40625 -5.09375 C 1.40625 -5.03125 1.4375 -4.96875 1.59375 -4.9375 C 1.9375 -4.859375 1.9375 -4.734375 1.828125 -4.375 L 0.65625 -0.59375 C 0.578125 -0.359375 0.421875 -0.296875 0.09375 -0.203125 C -0.09375 -0.15625 -0.171875 -0.125 -0.171875 -0.0625 C -0.171875 0.015625 -0.125 0.046875 0 0.046875 Z M 0 0.046875 "/>
</g>
<g id="glyph-0-6">
<path d="M -0.234375 2.296875 C 0.203125 2.296875 0.84375 1.71875 1.40625 1.03125 C 2.609375 -0.421875 3.40625 -2.03125 3.40625 -3.015625 C 3.40625 -3.21875 3.1875 -3.375 3.109375 -3.375 C 3.0625 -3.375 2.9375 -3.265625 2.9375 -3.21875 C 2.9375 -2.15625 2.640625 -1.28125 2.28125 -0.609375 C 2.21875 -0.46875 2.15625 -0.4375 2.171875 -0.625 C 2.21875 -1.6875 2.078125 -2.3125 1.921875 -2.78125 C 1.828125 -3.125 1.640625 -3.3125 1.375 -3.3125 C 1.015625 -3.3125 0.53125 -2.78125 0.53125 -2.28125 C 0.53125 -2.171875 0.5625 -2.0625 0.59375 -2.0625 C 0.65625 -2.0625 0.734375 -2.234375 0.75 -2.28125 C 0.796875 -2.46875 1.03125 -2.8125 1.1875 -2.8125 C 1.34375 -2.8125 1.640625 -2.375 1.640625 -1.1875 C 1.640625 -0.46875 1.578125 0.125 1.34375 0.609375 C 1.015625 1.28125 0.59375 1.796875 0.234375 1.796875 C 0.125 1.796875 0.046875 1.734375 -0.03125 1.671875 C -0.109375 1.609375 -0.1875 1.53125 -0.296875 1.53125 C -0.453125 1.53125 -0.625 1.71875 -0.625 1.9375 C -0.625 2.1875 -0.40625 2.296875 -0.234375 2.296875 Z M -0.234375 2.296875 "/>
</g>
<g id="glyph-0-7">
<path d="M 1.015625 0.125 C 1.65625 0.125 2.25 -0.515625 2.25 -0.734375 C 2.25 -0.78125 2.234375 -0.828125 2.1875 -0.828125 C 2.125 -0.828125 2.09375 -0.796875 2.03125 -0.734375 C 1.8125 -0.53125 1.65625 -0.375 1.3125 -0.375 C 1.078125 -0.375 0.90625 -0.5 0.90625 -0.859375 C 0.90625 -1.71875 1.5625 -3.078125 2.0625 -3.078125 C 2.21875 -3.078125 2.3125 -2.953125 2.390625 -2.828125 C 2.453125 -2.71875 2.5 -2.625 2.59375 -2.625 C 2.703125 -2.625 2.84375 -2.84375 2.84375 -3.03125 C 2.84375 -3.171875 2.671875 -3.3125 2.359375 -3.3125 C 1.046875 -3.3125 0.296875 -1.75 0.28125 -0.75 C 0.28125 -0.234375 0.6875 0.125 1.015625 0.125 Z M 1.015625 0.125 "/>
</g>
<g id="glyph-0-8">
<path d="M 4.390625 -5.28125 C 4.421875 -5.375 4.421875 -5.421875 4.421875 -5.484375 C 4.421875 -5.5625 4.390625 -5.59375 4.3125 -5.59375 C 4.25 -5.59375 3.8125 -5.546875 3.5 -5.484375 C 3.3125 -5.453125 3.234375 -5.40625 3.234375 -5.328125 C 3.234375 -5.296875 3.25 -5.296875 3.46875 -5.21875 C 3.640625 -5.15625 3.703125 -5.09375 3.703125 -4.984375 C 3.703125 -4.9375 3.703125 -4.96875 3.65625 -4.78125 L 3.15625 -3.078125 C 3.15625 -3.078125 3.109375 -3.03125 3.109375 -3.03125 C 3.109375 -3.046875 3.0625 -3.046875 2.921875 -3.140625 C 2.640625 -3.3125 2.59375 -3.34375 2.4375 -3.34375 C 2.09375 -3.34375 1.65625 -3.078125 1.234375 -2.59375 C 0.65625 -1.9375 0.234375 -1.078125 0.234375 -0.46875 C 0.234375 -0.125 0.453125 0.109375 0.765625 0.109375 C 1.328125 0.109375 1.828125 -0.25 2.5625 -1.171875 C 2.59375 -1.21875 2.625 -1.1875 2.609375 -1.109375 C 2.59375 -1.046875 2.5 -0.640625 2.4375 -0.453125 C 2.421875 -0.34375 2.40625 -0.296875 2.40625 -0.25 C 2.40625 -0.078125 2.609375 0.109375 2.78125 0.109375 C 3.15625 0.109375 4.03125 -0.671875 4.03125 -0.96875 C 4.046875 -1.03125 4.015625 -1.046875 3.984375 -1.046875 C 3.953125 -1.046875 3.9375 -1.046875 3.90625 -1.015625 C 3.703125 -0.71875 3.34375 -0.46875 3.140625 -0.46875 C 3.078125 -0.46875 3.046875 -0.515625 3.046875 -0.625 C 3.046875 -0.703125 3.0625 -0.78125 3.078125 -0.859375 Z M 1.109375 -0.3125 C 0.90625 -0.3125 0.84375 -0.390625 0.84375 -0.609375 C 0.84375 -1.453125 1.984375 -3.078125 2.578125 -3.078125 C 2.8125 -3.078125 2.953125 -2.890625 2.953125 -2.59375 C 2.953125 -1.75 1.796875 -0.3125 1.109375 -0.3125 Z M 1.109375 -0.3125 "/>
</g>
<g id="glyph-1-0">
<path d="M 2.78125 -4.375 C 2.796875 -4.6875 2.640625 -4.90625 2.28125 -4.90625 C 1.21875 -4.90625 0.375 -2.40625 0.375 -1.09375 C 0.375 -0.375 0.578125 0.09375 1.078125 0.09375 C 1.53125 0.09375 1.78125 -0.265625 1.890625 -0.515625 C 1.921875 -0.578125 1.84375 -0.703125 1.78125 -0.59375 C 1.59375 -0.34375 1.390625 -0.203125 1.21875 -0.203125 C 1.015625 -0.203125 0.84375 -0.40625 0.84375 -0.875 C 0.84375 -1.140625 0.890625 -1.453125 0.9375 -1.8125 C 2.0625 -2.578125 2.78125 -3.71875 2.78125 -4.375 Z M 2.28125 -4.6875 C 2.421875 -4.6875 2.484375 -4.59375 2.484375 -4.421875 C 2.46875 -3.859375 1.734375 -2.59375 0.984375 -2.046875 C 1.21875 -3.28125 1.75 -4.6875 2.28125 -4.6875 Z M 2.28125 -4.6875 "/>
</g>
<g id="glyph-1-1">
<path d="M 2.0625 1.453125 C 2.15625 1.453125 2.25 1.40625 2.25 1.3125 C 2.25 1.296875 2.15625 1.1875 2.15625 1.171875 C 1.71875 0.671875 1.265625 -0.8125 1.265625 -1.984375 C 1.265625 -3.171875 1.75 -4.1875 2.171875 -4.6875 C 2.1875 -4.703125 2.265625 -4.8125 2.265625 -4.828125 C 2.265625 -4.890625 2.15625 -4.9375 2.109375 -4.9375 C 2.03125 -4.9375 1.953125 -4.890625 1.921875 -4.859375 C 1.421875 -4.359375 0.703125 -3.09375 0.703125 -1.90625 C 0.703125 -0.71875 1.453125 0.90625 1.953125 1.40625 C 1.984375 1.4375 2.015625 1.453125 2.0625 1.453125 Z M 2.0625 1.453125 "/>
</g>
<g id="glyph-1-2">
<path d="M 0.484375 0.09375 C 0.890625 0.09375 1.34375 -0.21875 2.171875 -1.15625 C 2.21875 -1.203125 2.21875 -1.140625 2.1875 -1.0625 C 2.046875 -0.78125 1.796875 -0.21875 1.875 -0.34375 C 1.84375 -0.296875 1.828125 -0.234375 1.828125 -0.1875 C 1.828125 -0.046875 2 0.09375 2.15625 0.09375 C 2.375 0.09375 2.65625 -0.03125 2.921875 -0.28125 C 3.09375 -0.4375 3.25 -0.6875 3.25 -0.75 C 3.25 -0.8125 3.234375 -0.828125 3.203125 -0.828125 C 3.171875 -0.828125 3.15625 -0.828125 3.140625 -0.796875 C 2.953125 -0.5625 2.6875 -0.375 2.53125 -0.375 C 2.421875 -0.375 2.390625 -0.46875 2.4375 -0.609375 L 3.21875 -2.65625 C 3.25 -2.734375 3.25 -2.78125 3.25 -2.8125 C 3.25 -2.890625 3.09375 -2.96875 2.953125 -2.96875 C 2.921875 -2.96875 2.890625 -2.953125 2.859375 -2.90625 C 2.875 -2.921875 2.875 -2.90625 2.75 -2.703125 C 2.734375 -2.671875 2.71875 -2.65625 2.703125 -2.65625 C 2.703125 -2.65625 2.734375 -2.59375 2.625 -2.75 C 2.5625 -2.8125 2.46875 -2.859375 2.40625 -2.859375 C 2.25 -2.859375 1.921875 -2.640625 1.4375 -2.203125 C 0.625 -1.453125 0.125 -0.703125 0.125 -0.21875 C 0.125 -0.0625 0.3125 0.09375 0.484375 0.09375 Z M 0.921875 -0.375 C 0.796875 -0.375 0.71875 -0.484375 0.71875 -0.625 C 0.71875 -0.953125 1.125 -1.609375 1.578125 -2.03125 C 1.8125 -2.265625 2.140625 -2.46875 2.296875 -2.46875 C 2.34375 -2.46875 2.421875 -2.421875 2.484375 -2.375 C 2.546875 -2.328125 2.59375 -2.28125 2.59375 -2.234375 C 2.59375 -2.078125 2.359375 -1.71875 2.015625 -1.3125 C 1.53125 -0.734375 1.109375 -0.375 0.921875 -0.375 Z M 0.921875 -0.375 "/>
</g>
<g id="glyph-1-3">
<path d="M 2.125 1.453125 L 2.125 -4.828125 C 2.125 -4.96875 2 -5.046875 1.859375 -5.046875 C 1.8125 -5.046875 1.765625 -4.984375 1.765625 -4.9375 L 1.765625 1.34375 C 1.765625 1.484375 1.890625 1.5625 2.03125 1.5625 C 2.078125 1.5625 2.125 1.515625 2.125 1.453125 Z M 1.125 1.453125 L 1.125 -4.828125 C 1.125 -4.96875 1 -5.046875 0.859375 -5.046875 C 0.8125 -5.046875 0.765625 -4.984375 0.765625 -4.9375 L 0.765625 1.34375 C 0.765625 1.484375 0.890625 1.5625 1.03125 1.5625 C 1.078125 1.5625 1.125 1.515625 1.125 1.453125 Z M 1.125 1.453125 "/>
</g>
<g id="glyph-1-4">
<path d="M 0.90625 0.0625 C 1.875 0.0625 3.078125 -1.296875 3.078125 -2.375 C 3.078125 -2.671875 2.84375 -2.890625 2.546875 -2.890625 C 2.1875 -2.890625 1.671875 -2.484375 1.125 -1.765625 C 1.0625 -1.671875 1.015625 -1.703125 1.046875 -1.796875 C 1.28125 -2.515625 1.828125 -4.125 2.015625 -4.609375 C 2.046875 -4.703125 2.078125 -4.75 2.078125 -4.84375 C 2.078125 -4.890625 2.03125 -4.921875 1.953125 -4.921875 C 1.859375 -4.921875 1.328125 -4.765625 1.109375 -4.6875 C 1.015625 -4.65625 0.984375 -4.625 0.984375 -4.59375 C 0.984375 -4.5625 1.0625 -4.515625 1.1875 -4.484375 C 1.328125 -4.4375 1.375 -4.40625 1.375 -4.359375 C 1.375 -4.234375 1.359375 -4.109375 1.296875 -3.96875 L 0.4375 -1.34375 C 0.328125 -1.046875 0.28125 -0.765625 0.28125 -0.53125 C 0.28125 -0.171875 0.53125 0.0625 0.90625 0.0625 Z M 1.09375 -0.171875 C 0.90625 -0.171875 0.734375 -0.390625 0.734375 -0.625 C 0.734375 -0.8125 0.953125 -1.203125 1.25 -1.640625 C 1.71875 -2.28125 2.078125 -2.59375 2.359375 -2.59375 C 2.46875 -2.59375 2.5625 -2.46875 2.5625 -2.328125 C 2.5625 -2 2.28125 -1.34375 1.953125 -0.90625 C 1.640625 -0.484375 1.265625 -0.171875 1.09375 -0.171875 Z M 1.09375 -0.171875 "/>
</g>
<g id="glyph-1-5">
<path d="M 0.546875 1.453125 C 0.578125 1.453125 0.625 1.4375 0.65625 1.40625 C 1.15625 0.90625 1.90625 -0.71875 1.90625 -1.90625 C 1.90625 -3.09375 1.1875 -4.359375 0.6875 -4.859375 C 0.640625 -4.890625 0.5625 -4.9375 0.5 -4.9375 C 0.453125 -4.9375 0.34375 -4.890625 0.34375 -4.828125 C 0.34375 -4.8125 0.421875 -4.703125 0.4375 -4.6875 C 0.859375 -4.1875 1.328125 -3.171875 1.328125 -1.984375 C 1.328125 -0.8125 0.890625 0.671875 0.453125 1.171875 C 0.453125 1.1875 0.359375 1.296875 0.359375 1.3125 C 0.359375 1.40625 0.453125 1.453125 0.546875 1.453125 Z M 0.546875 1.453125 "/>
</g>
<g id="glyph-1-6">
<path d="M 0.4375 -2.1875 L 3.359375 -2.1875 C 3.484375 -2.1875 3.59375 -2.359375 3.59375 -2.453125 C 3.59375 -2.5 3.53125 -2.53125 3.484375 -2.53125 L 0.515625 -2.53125 C 0.390625 -2.53125 0.34375 -2.328125 0.34375 -2.265625 C 0.34375 -2.21875 0.390625 -2.1875 0.4375 -2.1875 Z M 0.4375 -1 L 3.359375 -1 C 3.484375 -1 3.59375 -1.140625 3.59375 -1.265625 C 3.59375 -1.3125 3.53125 -1.34375 3.484375 -1.34375 L 0.515625 -1.34375 C 0.390625 -1.34375 0.34375 -1.140625 0.34375 -1.078125 C 0.34375 -1.03125 0.390625 -1 0.4375 -1 Z M 0.4375 -1 "/>
</g>
<g id="glyph-1-7">
<path d="M 0.890625 0.109375 C 1.453125 0.109375 1.96875 -0.453125 1.96875 -0.640625 C 1.96875 -0.6875 1.953125 -0.734375 1.90625 -0.734375 C 1.859375 -0.734375 1.828125 -0.703125 1.765625 -0.640625 C 1.59375 -0.46875 1.453125 -0.328125 1.15625 -0.328125 C 0.9375 -0.328125 0.796875 -0.4375 0.796875 -0.75 C 0.796875 -1.515625 1.359375 -2.6875 1.796875 -2.6875 C 1.953125 -2.6875 2.03125 -2.59375 2.09375 -2.46875 C 2.15625 -2.375 2.1875 -2.296875 2.265625 -2.296875 C 2.375 -2.296875 2.484375 -2.484375 2.484375 -2.65625 C 2.484375 -2.78125 2.34375 -2.90625 2.078125 -2.90625 C 0.90625 -2.90625 0.265625 -1.53125 0.25 -0.65625 C 0.25 -0.203125 0.59375 0.109375 0.890625 0.109375 Z M 0.890625 0.109375 "/>
</g>
<g id="glyph-1-8">
<path d="M 3.84375 -4.625 C 3.875 -4.703125 3.875 -4.75 3.875 -4.8125 C 3.875 -4.875 3.84375 -4.90625 3.78125 -4.90625 C 3.71875 -4.90625 3.34375 -4.859375 3.0625 -4.8125 C 2.90625 -4.78125 2.84375 -4.734375 2.84375 -4.671875 C 2.84375 -4.640625 2.84375 -4.640625 3.03125 -4.578125 C 3.1875 -4.515625 3.234375 -4.453125 3.234375 -4.359375 C 3.234375 -4.328125 3.25 -4.359375 3.203125 -4.1875 L 2.765625 -2.703125 C 2.765625 -2.6875 2.71875 -2.65625 2.71875 -2.65625 C 2.71875 -2.65625 2.671875 -2.671875 2.5625 -2.75 C 2.3125 -2.90625 2.28125 -2.9375 2.140625 -2.9375 C 1.828125 -2.9375 1.453125 -2.6875 1.078125 -2.28125 C 0.5625 -1.703125 0.203125 -0.9375 0.203125 -0.421875 C 0.203125 -0.109375 0.390625 0.09375 0.671875 0.09375 C 1.15625 0.09375 1.609375 -0.21875 2.25 -1.015625 C 2.28125 -1.0625 2.296875 -1.03125 2.28125 -0.96875 C 2.28125 -0.90625 2.1875 -0.5625 2.140625 -0.40625 C 2.125 -0.296875 2.109375 -0.25 2.109375 -0.21875 C 2.109375 -0.0625 2.28125 0.09375 2.4375 0.09375 C 2.765625 0.09375 3.53125 -0.578125 3.53125 -0.859375 C 3.546875 -0.890625 3.515625 -0.921875 3.484375 -0.921875 C 3.46875 -0.921875 3.453125 -0.90625 3.421875 -0.890625 C 3.234375 -0.625 2.921875 -0.40625 2.75 -0.40625 C 2.6875 -0.40625 2.65625 -0.453125 2.65625 -0.546875 C 2.65625 -0.609375 2.671875 -0.6875 2.703125 -0.75 Z M 0.96875 -0.28125 C 0.796875 -0.28125 0.75 -0.34375 0.75 -0.53125 C 0.75 -1.265625 1.734375 -2.6875 2.25 -2.6875 C 2.46875 -2.6875 2.59375 -2.53125 2.59375 -2.265625 C 2.59375 -1.53125 1.578125 -0.28125 0.96875 -0.28125 Z M 0.96875 -0.28125 "/>
</g>
<g id="glyph-2-0">
<path d="M 0 0.03125 C 0.234375 0.03125 0.40625 0 0.640625 0 C 1.125 0 1.765625 0.03125 2.390625 0.03125 C 2.421875 0.03125 2.46875 -0.015625 2.5 -0.0625 C 2.59375 -0.203125 2.765625 -0.671875 2.765625 -0.78125 C 2.765625 -0.828125 2.75 -0.84375 2.71875 -0.84375 C 2.6875 -0.84375 2.671875 -0.828125 2.640625 -0.796875 C 2.53125 -0.609375 2.4375 -0.484375 2.3125 -0.359375 C 2.171875 -0.234375 1.953125 -0.15625 1.609375 -0.15625 L 1.28125 -0.15625 C 1.046875 -0.15625 1 -0.3125 1.078125 -0.609375 L 1.734375 -2.796875 C 1.796875 -2.984375 1.953125 -3.0625 2.21875 -3.09375 C 2.328125 -3.109375 2.40625 -3.125 2.40625 -3.1875 C 2.40625 -3.21875 2.375 -3.25 2.296875 -3.25 C 2.0625 -3.25 1.875 -3.21875 1.65625 -3.21875 C 1.453125 -3.21875 1.34375 -3.25 1.09375 -3.25 C 1.03125 -3.25 0.953125 -3.234375 0.953125 -3.1875 C 0.953125 -3.140625 0.96875 -3.109375 1.0625 -3.078125 C 1.28125 -3.03125 1.328125 -3 1.25 -2.765625 L 0.5625 -0.484375 C 0.484375 -0.265625 0.296875 -0.171875 0.046875 -0.125 C -0.046875 -0.109375 -0.109375 -0.078125 -0.109375 -0.03125 C -0.109375 0 -0.078125 0.03125 0 0.03125 Z M 0 0.03125 "/>
</g>
<g id="glyph-2-1">
<path d="M 0 0.03125 C 0.25 0.03125 0.40625 -0.015625 0.640625 -0.015625 C 0.8125 -0.015625 0.921875 0.015625 1.171875 0.015625 C 1.234375 0.015625 1.296875 0 1.3125 -0.046875 C 1.3125 -0.09375 1.28125 -0.109375 1.203125 -0.125 C 0.96875 -0.171875 0.921875 -0.296875 1 -0.53125 L 1.265625 -1.390625 C 1.28125 -1.453125 1.3125 -1.484375 1.4375 -1.484375 C 1.59375 -1.484375 1.640625 -1.4375 1.71875 -1.25 C 1.828125 -0.953125 2.015625 -0.515625 2.171875 -0.234375 C 2.25 -0.046875 2.46875 0.015625 2.796875 0.015625 C 3.03125 0.015625 3.15625 0 3.15625 -0.078125 C 3.15625 -0.140625 3.078125 -0.15625 2.984375 -0.15625 C 2.78125 -0.1875 2.671875 -0.265625 2.546875 -0.515625 C 2.453125 -0.71875 2.1875 -1.25 2.109375 -1.484375 C 2.078125 -1.53125 2.109375 -1.5625 2.140625 -1.5625 C 2.578125 -1.703125 3 -2 3 -2.515625 C 3 -3.015625 2.578125 -3.25 2.03125 -3.25 C 1.84375 -3.25 1.625 -3.234375 1.4375 -3.234375 C 1.375 -3.234375 1.015625 -3.25 0.9375 -3.25 C 0.859375 -3.25 0.765625 -3.21875 0.765625 -3.171875 C 0.765625 -3.125 0.8125 -3.09375 0.90625 -3.078125 C 1.234375 -3.046875 1.28125 -3.015625 1.1875 -2.6875 L 0.5 -0.484375 C 0.4375 -0.265625 0.3125 -0.171875 0.0625 -0.125 C -0.046875 -0.109375 -0.109375 -0.078125 -0.109375 -0.03125 C -0.109375 0 -0.0625 0.03125 0 0.03125 Z M 1.609375 -1.59375 C 1.421875 -1.59375 1.375 -1.625 1.40625 -1.78125 L 1.671875 -2.734375 C 1.765625 -3.078125 1.8125 -3.125 1.953125 -3.125 C 2.265625 -3.125 2.515625 -2.859375 2.515625 -2.546875 C 2.515625 -1.84375 1.9375 -1.59375 1.609375 -1.59375 Z M 1.609375 -1.59375 "/>
</g>
<g id="glyph-3-0">
<path d="M 1.796875 0.09375 C 2.71875 0.09375 3.34375 -0.5625 3.34375 -1.515625 C 3.34375 -2.28125 2.78125 -2.875 2.09375 -2.875 C 1.78125 -2.875 1.359375 -2.703125 1.078125 -2.46875 C 1.015625 -2.46875 1.015625 -2.515625 1.015625 -2.703125 L 1.015625 -4.125 C 1.015625 -4.515625 1.03125 -4.8125 1.03125 -4.859375 C 1.03125 -4.875 1.015625 -4.90625 0.984375 -4.90625 C 0.96875 -4.90625 0.953125 -4.890625 0.921875 -4.875 C 0.828125 -4.84375 0.375 -4.65625 0.1875 -4.609375 C 0.15625 -4.609375 0.109375 -4.59375 0.109375 -4.546875 C 0.109375 -4.484375 0.15625 -4.46875 0.203125 -4.4375 C 0.390625 -4.359375 0.515625 -4.171875 0.515625 -3.9375 L 0.515625 -0.5625 C 0.515625 -0.390625 0.46875 -0.140625 0.46875 -0.0625 C 0.46875 -0.015625 0.53125 0.015625 0.5625 0.015625 C 0.59375 0.015625 0.609375 0 0.625 -0.015625 C 0.671875 -0.0625 0.734375 -0.109375 0.78125 -0.109375 C 0.828125 -0.109375 1 -0.046875 1.203125 0 C 1.390625 0.0625 1.59375 0.09375 1.796875 0.09375 Z M 1.953125 -0.125 C 1.46875 -0.125 1.015625 -0.4375 1.015625 -0.921875 L 1.015625 -2.265625 C 1.203125 -2.453125 1.484375 -2.59375 1.859375 -2.59375 C 2.515625 -2.59375 2.8125 -1.890625 2.8125 -1.359375 C 2.8125 -0.65625 2.484375 -0.125 1.953125 -0.125 Z M 1.953125 -0.125 "/>
</g>
<g id="glyph-3-1">
<path d="M 0.4375 1.984375 C 0.640625 1.984375 0.8125 1.890625 0.890625 1.703125 C 1.1875 1.03125 1.53125 0.15625 1.5625 0.09375 L 2.515625 -2.15625 C 2.59375 -2.390625 2.78125 -2.59375 2.921875 -2.625 C 3 -2.65625 3.078125 -2.6875 3.078125 -2.75 C 3.078125 -2.8125 2.984375 -2.8125 2.9375 -2.8125 C 2.78125 -2.8125 2.78125 -2.78125 2.53125 -2.78125 C 2.28125 -2.78125 2.15625 -2.8125 2.03125 -2.8125 C 1.984375 -2.8125 1.890625 -2.796875 1.890625 -2.734375 C 1.890625 -2.671875 2.015625 -2.609375 2.09375 -2.578125 C 2.1875 -2.53125 2.234375 -2.484375 2.234375 -2.3125 C 2.234375 -2.234375 2.21875 -2.109375 2.1875 -2.046875 L 1.703125 -0.78125 C 1.703125 -0.765625 1.6875 -0.734375 1.671875 -0.734375 C 1.640625 -0.734375 1.640625 -0.765625 1.625 -0.78125 L 1.0625 -2.171875 C 1.046875 -2.21875 1.015625 -2.3125 1.015625 -2.359375 C 1.015625 -2.5 1.046875 -2.5625 1.140625 -2.59375 C 1.21875 -2.609375 1.34375 -2.671875 1.34375 -2.734375 C 1.34375 -2.796875 1.265625 -2.8125 1.203125 -2.8125 C 0.9375 -2.8125 0.921875 -2.78125 0.6875 -2.78125 C 0.4375 -2.78125 0.453125 -2.8125 0.171875 -2.8125 C 0.125 -2.8125 0.03125 -2.8125 0.03125 -2.75 C 0.03125 -2.6875 0.125 -2.65625 0.1875 -2.625 C 0.328125 -2.59375 0.4375 -2.453125 0.5 -2.28125 L 1.3125 -0.25 C 1.328125 -0.1875 1.34375 -0.125 1.34375 -0.046875 C 1.34375 0.015625 1.328125 0.0625 1.328125 0.109375 C 1.125 0.640625 0.890625 1.109375 0.734375 1.34375 C 0.703125 1.40625 0.65625 1.421875 0.59375 1.421875 C 0.515625 1.421875 0.421875 1.390625 0.3125 1.390625 C 0.171875 1.390625 0.09375 1.53125 0.09375 1.703125 C 0.09375 1.90625 0.265625 1.984375 0.4375 1.984375 Z M 0.4375 1.984375 "/>
</g>
<g id="glyph-3-2">
<path d="M 1.3125 0.09375 C 1.734375 0.09375 2.125 -0.25 2.125 -0.328125 C 2.125 -0.375 2.109375 -0.421875 2.078125 -0.421875 C 2.078125 -0.421875 2.0625 -0.421875 2.046875 -0.40625 C 1.9375 -0.328125 1.8125 -0.28125 1.53125 -0.28125 C 1.234375 -0.28125 1.078125 -0.5 1.078125 -0.890625 L 1.078125 -2.25 C 1.078125 -2.4375 1.125 -2.453125 1.359375 -2.453125 L 2.046875 -2.453125 C 2.078125 -2.453125 2.109375 -2.546875 2.109375 -2.625 C 2.109375 -2.71875 2.078125 -2.78125 2.046875 -2.78125 L 1.25 -2.78125 C 1.140625 -2.78125 1.078125 -2.8125 1.078125 -2.90625 L 1.125 -3.21875 C 1.125 -3.28125 1.078125 -3.296875 1.03125 -3.296875 C 0.984375 -3.296875 0.953125 -3.265625 0.90625 -3.21875 C 0.78125 -3.0625 0.5625 -2.84375 0.296875 -2.65625 C 0.28125 -2.65625 0.25 -2.609375 0.25 -2.59375 C 0.25 -2.515625 0.28125 -2.453125 0.328125 -2.453125 L 0.375 -2.453125 C 0.546875 -2.453125 0.59375 -2.421875 0.59375 -2.34375 L 0.59375 -0.734375 C 0.59375 -0.1875 0.859375 0.09375 1.3125 0.09375 Z M 1.3125 0.09375 "/>
</g>
<g id="glyph-3-3">
<path d="M 1.484375 0.109375 C 1.84375 0.109375 2.203125 -0.0625 2.40625 -0.328125 C 2.5 -0.4375 2.53125 -0.53125 2.53125 -0.625 C 2.53125 -0.65625 2.515625 -0.6875 2.484375 -0.6875 C 2.453125 -0.6875 2.4375 -0.6875 2.40625 -0.625 C 2.234375 -0.4375 2 -0.3125 1.71875 -0.3125 C 1.140625 -0.3125 0.65625 -0.859375 0.65625 -1.53125 C 0.65625 -1.734375 0.703125 -1.78125 0.828125 -1.78125 L 2.296875 -1.78125 C 2.4375 -1.78125 2.5 -1.859375 2.5 -2 C 2.5 -2.515625 2.109375 -2.875 1.546875 -2.875 C 0.828125 -2.875 0.203125 -2.21875 0.203125 -1.40625 C 0.203125 -0.5 0.71875 0.109375 1.484375 0.109375 Z M 0.84375 -2 C 0.78125 -2 0.765625 -2.015625 0.765625 -2.078125 C 0.765625 -2.34375 1.125 -2.671875 1.453125 -2.671875 C 1.765625 -2.671875 2.046875 -2.453125 2.046875 -2.1875 C 2.046875 -2.09375 2.03125 -2.046875 1.984375 -2.03125 C 1.828125 -2.015625 1.703125 -2 1.46875 -2 Z M 0.84375 -2 "/>
</g>
<g id="glyph-3-4">
<path d="M 1 0.09375 C 1.609375 0.09375 2.015625 -0.25 2.015625 -0.75 C 2.015625 -1.1875 1.765625 -1.390625 1.21875 -1.703125 C 0.84375 -1.921875 0.75 -2.0625 0.75 -2.28125 C 0.75 -2.53125 0.953125 -2.6875 1.1875 -2.6875 C 1.453125 -2.6875 1.625 -2.515625 1.75 -2.21875 C 1.765625 -2.171875 1.828125 -2.15625 1.890625 -2.15625 C 1.921875 -2.15625 1.953125 -2.15625 1.953125 -2.203125 C 1.953125 -2.390625 1.890625 -2.640625 1.828125 -2.75 C 1.734375 -2.8125 1.546875 -2.875 1.265625 -2.875 C 0.640625 -2.875 0.328125 -2.53125 0.328125 -2.078125 C 0.328125 -1.734375 0.515625 -1.515625 0.984375 -1.21875 C 1.40625 -0.953125 1.546875 -0.8125 1.546875 -0.5625 C 1.546875 -0.296875 1.328125 -0.09375 1.0625 -0.09375 C 0.796875 -0.09375 0.5 -0.265625 0.375 -0.71875 C 0.375 -0.765625 0.328125 -0.765625 0.296875 -0.765625 C 0.25 -0.765625 0.203125 -0.75 0.203125 -0.703125 C 0.203125 -0.546875 0.234375 -0.25 0.28125 -0.15625 C 0.453125 0 0.71875 0.09375 1 0.09375 Z M 1 0.09375 "/>
</g>
<g id="glyph-3-5">
<path d="M 0.34375 0.015625 C 0.625 0.015625 0.65625 -0.015625 0.90625 -0.015625 C 1.140625 -0.015625 1.234375 0.015625 1.515625 0.015625 C 1.609375 0.015625 1.640625 0 1.640625 -0.0625 C 1.640625 -0.125 1.578125 -0.140625 1.484375 -0.171875 C 1.265625 -0.234375 1.125 -0.3125 1.125 -0.4375 L 1.125 -1.828125 C 1.125 -2.296875 1.375 -2.421875 1.59375 -2.421875 C 1.671875 -2.421875 1.75 -2.390625 1.828125 -2.359375 C 1.890625 -2.328125 1.953125 -2.296875 2.015625 -2.296875 C 2.15625 -2.296875 2.28125 -2.515625 2.28125 -2.65625 C 2.28125 -2.78125 2.15625 -2.875 1.953125 -2.875 C 1.6875 -2.875 1.375 -2.671875 1.15625 -2.40625 C 1.140625 -2.40625 1.140625 -2.40625 1.140625 -2.421875 C 1.15625 -2.640625 1.15625 -2.890625 1.15625 -2.9375 C 1.15625 -2.96875 1.140625 -2.984375 1.125 -2.984375 C 1.109375 -2.984375 1.078125 -2.96875 1.015625 -2.9375 C 0.875 -2.84375 0.578125 -2.671875 0.328125 -2.59375 C 0.3125 -2.59375 0.265625 -2.5625 0.265625 -2.515625 C 0.265625 -2.46875 0.3125 -2.4375 0.34375 -2.421875 C 0.5625 -2.375 0.625 -2.171875 0.625 -1.921875 L 0.625 -0.4375 C 0.625 -0.296875 0.53125 -0.203125 0.359375 -0.171875 C 0.25 -0.140625 0.203125 -0.125 0.203125 -0.0625 C 0.203125 0 0.25 0.015625 0.34375 0.015625 Z M 0.34375 0.015625 "/>
</g>
<g id="glyph-3-6">
<path d="M 1.625 0.09375 C 2.671875 0.09375 3.203125 -0.671875 3.203125 -1.484375 C 3.203125 -2.234375 2.578125 -2.875 1.765625 -2.875 C 0.90625 -2.875 0.25 -2.078125 0.25 -1.296875 C 0.25 -0.484375 0.84375 0.09375 1.625 0.09375 Z M 1.765625 -0.109375 C 1.21875 -0.109375 0.8125 -0.765625 0.8125 -1.453125 C 0.8125 -1.796875 0.84375 -2.15625 1.03125 -2.390625 C 1.203125 -2.59375 1.390625 -2.65625 1.640625 -2.65625 C 2.234375 -2.65625 2.625 -1.96875 2.625 -1.3125 C 2.625 -1.046875 2.59375 -0.703125 2.484375 -0.5 C 2.34375 -0.21875 2.09375 -0.109375 1.765625 -0.109375 Z M 1.765625 -0.109375 "/>
</g>
<g id="glyph-3-7">
<path d="M 2.546875 0.125 C 2.59375 0.125 2.65625 0.109375 2.6875 0.09375 C 2.890625 0 3.140625 -0.09375 3.5 -0.140625 C 3.546875 -0.15625 3.59375 -0.171875 3.59375 -0.25 C 3.59375 -0.328125 3.546875 -0.328125 3.484375 -0.328125 C 3.421875 -0.328125 3.234375 -0.3125 3.171875 -0.3125 C 3.09375 -0.3125 3.046875 -0.40625 3.046875 -0.65625 L 3.046875 -2.265625 C 3.046875 -2.375 3.078125 -2.703125 3.09375 -2.75 C 3.09375 -2.78125 3.109375 -2.796875 3.109375 -2.8125 C 3.109375 -2.859375 3.0625 -2.890625 3.015625 -2.890625 C 3 -2.890625 2.96875 -2.875 2.953125 -2.875 C 2.703125 -2.796875 2.515625 -2.765625 2.09375 -2.765625 C 2.015625 -2.765625 1.953125 -2.734375 1.953125 -2.65625 C 1.953125 -2.5625 2.015625 -2.53125 2.09375 -2.53125 C 2.234375 -2.53125 2.5625 -2.46875 2.5625 -2.1875 L 2.5625 -0.921875 C 2.5625 -0.625 2.34375 -0.46875 2.25 -0.390625 C 2.078125 -0.265625 1.890625 -0.25 1.65625 -0.25 C 1.359375 -0.25 1.078125 -0.5625 1.078125 -0.890625 L 1.078125 -2.25 C 1.078125 -2.453125 1.09375 -2.5625 1.125 -2.78125 C 1.125 -2.859375 1.09375 -2.875 1.046875 -2.875 C 1.03125 -2.875 1.015625 -2.875 1 -2.875 C 0.734375 -2.8125 0.625 -2.78125 0.3125 -2.765625 C 0.25 -2.75 0.203125 -2.734375 0.203125 -2.65625 C 0.203125 -2.578125 0.25 -2.546875 0.296875 -2.53125 C 0.5 -2.453125 0.59375 -2.34375 0.59375 -2.140625 L 0.59375 -0.734375 C 0.59375 -0.1875 0.9375 0.09375 1.390625 0.09375 C 1.8125 0.09375 2.171875 -0.046875 2.53125 -0.390625 L 2.53125 -0.359375 C 2.53125 -0.234375 2.5 -0.015625 2.5 0.078125 C 2.5 0.109375 2.515625 0.125 2.546875 0.125 Z M 2.546875 0.125 "/>
</g>
<g id="glyph-3-8">
<path d="M 0.3125 0.015625 C 0.578125 0.015625 0.625 -0.015625 0.875 -0.015625 C 1.109375 -0.015625 1.15625 0.015625 1.4375 0.015625 C 1.515625 0.015625 1.578125 0 1.578125 -0.0625 C 1.578125 -0.109375 1.515625 -0.140625 1.40625 -0.171875 C 1.265625 -0.203125 1.109375 -0.25 1.109375 -0.4375 L 1.109375 -2.109375 C 1.109375 -2.15625 1.140625 -2.234375 1.171875 -2.265625 C 1.359375 -2.421875 1.609375 -2.546875 1.9375 -2.546875 C 2.3125 -2.53125 2.5625 -2.296875 2.5625 -1.890625 L 2.5625 -0.4375 C 2.5625 -0.25 2.40625 -0.203125 2.265625 -0.171875 C 2.1875 -0.140625 2.109375 -0.109375 2.109375 -0.046875 C 2.109375 0.015625 2.203125 0.015625 2.25 0.015625 C 2.53125 0.015625 2.578125 -0.015625 2.8125 -0.015625 C 3.0625 -0.015625 3.09375 0.015625 3.375 0.015625 C 3.421875 0.015625 3.515625 0.015625 3.515625 -0.046875 C 3.515625 -0.109375 3.421875 -0.140625 3.34375 -0.171875 C 3.21875 -0.203125 3.046875 -0.25 3.046875 -0.4375 L 3.046875 -1.90625 C 3.046875 -2.453125 2.71875 -2.875 2.265625 -2.875 C 1.828125 -2.875 1.46875 -2.71875 1.140625 -2.40625 C 1.140625 -2.421875 1.140625 -2.453125 1.140625 -2.5 C 1.140625 -2.625 1.171875 -2.875 1.171875 -2.9375 C 1.171875 -2.96875 1.15625 -2.984375 1.140625 -2.984375 C 1.109375 -2.984375 1.078125 -2.96875 1.0625 -2.953125 C 0.859375 -2.8125 0.6875 -2.6875 0.359375 -2.59375 C 0.3125 -2.59375 0.296875 -2.5625 0.296875 -2.515625 C 0.296875 -2.46875 0.328125 -2.4375 0.375 -2.421875 C 0.609375 -2.359375 0.625 -2.171875 0.625 -1.921875 L 0.625 -0.4375 C 0.625 -0.25 0.46875 -0.203125 0.328125 -0.171875 C 0.21875 -0.140625 0.171875 -0.125 0.171875 -0.0625 C 0.171875 0 0.21875 0.015625 0.3125 0.015625 Z M 0.3125 0.015625 "/>
</g>
<g id="glyph-3-9">
<path d="M 2.484375 0.125 C 2.515625 0.125 2.515625 0.125 2.59375 0.09375 C 2.921875 -0.046875 3.15625 -0.109375 3.40625 -0.140625 C 3.453125 -0.140625 3.5 -0.203125 3.5 -0.265625 C 3.5 -0.328125 3.46875 -0.34375 3.375 -0.328125 C 3.265625 -0.3125 3.125 -0.3125 3.078125 -0.3125 C 2.96875 -0.3125 2.9375 -0.4375 2.9375 -0.765625 L 2.9375 -3.90625 C 2.9375 -4.53125 2.984375 -4.765625 2.984375 -4.859375 C 2.96875 -4.875 2.96875 -4.890625 2.9375 -4.890625 C 2.90625 -4.890625 2.875 -4.890625 2.84375 -4.875 C 2.71875 -4.8125 2.5 -4.71875 2.09375 -4.609375 C 2.046875 -4.609375 2.03125 -4.5625 2.03125 -4.53125 C 2.03125 -4.484375 2.0625 -4.453125 2.09375 -4.4375 C 2.328125 -4.40625 2.453125 -4.3125 2.453125 -3.9375 L 2.453125 -2.953125 C 2.453125 -2.828125 2.421875 -2.78125 2.40625 -2.78125 C 2.375 -2.78125 2.34375 -2.78125 2.3125 -2.796875 C 2.203125 -2.84375 2 -2.875 1.8125 -2.875 C 0.828125 -2.875 0.25 -2.125 0.25 -1.328125 C 0.25 -0.625 0.734375 0.09375 1.53125 0.09375 C 1.984375 0.09375 2.296875 -0.1875 2.4375 -0.390625 L 2.4375 -0.359375 C 2.4375 -0.234375 2.40625 -0.03125 2.40625 0.0625 C 2.40625 0.078125 2.46875 0.125 2.484375 0.125 Z M 1.78125 -0.265625 C 1.46875 -0.265625 0.734375 -0.4375 0.734375 -1.484375 C 0.734375 -2.40625 1.265625 -2.640625 1.59375 -2.640625 C 2.109375 -2.640625 2.453125 -2.234375 2.453125 -1.859375 L 2.4375 -0.609375 C 2.265625 -0.40625 2.015625 -0.265625 1.78125 -0.265625 Z M 1.78125 -0.265625 "/>
</g>
<g id="glyph-3-10">
<path d="M 0.75 0.015625 C 1.125 0.015625 1.40625 -0.015625 1.78125 -0.015625 C 2.15625 -0.015625 2.40625 0.015625 2.8125 0.015625 C 2.859375 0.015625 2.90625 -0.015625 2.90625 -0.0625 C 2.90625 -0.09375 2.84375 -0.125 2.78125 -0.140625 C 2.21875 -0.28125 2.046875 -0.3125 2.046875 -0.671875 L 2.046875 -3.875 C 2.046875 -4.0625 2.0625 -4.234375 2.078125 -4.359375 C 2.09375 -4.40625 2.03125 -4.421875 2 -4.421875 C 1.984375 -4.421875 1.96875 -4.421875 1.953125 -4.421875 C 1.640625 -4.109375 1.328125 -4.046875 0.921875 -3.984375 C 0.828125 -3.984375 0.75 -3.921875 0.75 -3.859375 C 0.75 -3.796875 0.828125 -3.75 0.921875 -3.75 C 1.21875 -3.734375 1.515625 -3.671875 1.515625 -3.40625 L 1.515625 -0.765625 C 1.515625 -0.34375 1.265625 -0.28125 0.75 -0.15625 C 0.6875 -0.140625 0.640625 -0.09375 0.640625 -0.0625 C 0.640625 -0.015625 0.671875 0.015625 0.75 0.015625 Z M 0.75 0.015625 "/>
</g>
<g id="glyph-3-11">
<path d="M 2.90625 0.015625 C 2.96875 0.015625 3.03125 0 3.0625 -0.140625 C 3.140625 -0.5 3.28125 -0.78125 3.28125 -0.84375 C 3.28125 -0.890625 3.265625 -0.9375 3.21875 -0.9375 C 3.15625 -0.9375 3.09375 -0.828125 3.046875 -0.765625 C 2.875 -0.5 2.78125 -0.46875 2.390625 -0.4375 C 2.140625 -0.4375 1.859375 -0.421875 1.59375 -0.421875 C 1.34375 -0.421875 1.140625 -0.4375 0.984375 -0.4375 C 0.9375 -0.453125 0.890625 -0.453125 0.890625 -0.5 C 0.890625 -0.53125 2.03125 -1.640625 2.34375 -2.015625 C 2.640625 -2.375 2.859375 -2.859375 2.859375 -3.234375 C 2.859375 -3.90625 2.4375 -4.375 1.75 -4.375 C 0.953125 -4.375 0.390625 -3.703125 0.390625 -3.484375 C 0.390625 -3.359375 0.453125 -3.28125 0.5 -3.28125 C 0.53125 -3.28125 0.578125 -3.3125 0.609375 -3.375 C 0.8125 -3.703125 1.140625 -3.9375 1.53125 -3.9375 C 1.921875 -3.9375 2.28125 -3.640625 2.28125 -3.140625 C 2.28125 -2.53125 1.9375 -1.90625 1.46875 -1.421875 L 0.28125 -0.1875 C 0.234375 -0.15625 0.21875 -0.140625 0.21875 -0.109375 C 0.21875 -0.0625 0.328125 0.015625 0.359375 0.015625 C 0.5 0.015625 1.625 -0.015625 1.96875 -0.015625 C 2.328125 -0.015625 2.78125 0.015625 2.90625 0.015625 Z M 2.90625 0.015625 "/>
</g>
<g id="glyph-3-12">
<path d="M 1.125 0.265625 C 2.0625 0.265625 3.046875 -0.375 3.046875 -1.40625 C 3.046875 -2 2.59375 -2.5 2 -2.5 C 1.953125 -2.5 1.953125 -2.53125 1.984375 -2.546875 C 2.53125 -2.859375 2.71875 -3.25 2.71875 -3.59375 C 2.71875 -4.0625 2.28125 -4.375 1.8125 -4.375 C 0.875 -4.375 0.46875 -3.71875 0.46875 -3.484375 C 0.46875 -3.40625 0.546875 -3.34375 0.578125 -3.34375 C 0.6875 -3.34375 0.796875 -3.96875 1.515625 -3.96875 C 1.890625 -3.96875 2.171875 -3.625 2.171875 -3.234375 C 2.171875 -2.75 1.453125 -2.390625 1.296875 -2.3125 C 1.203125 -2.265625 1.125 -2.1875 1.078125 -2.078125 C 1.078125 -2.015625 1.15625 -1.984375 1.203125 -2.015625 C 1.359375 -2.09375 1.546875 -2.109375 1.65625 -2.109375 C 2.1875 -2.109375 2.46875 -1.546875 2.46875 -1.015625 C 2.46875 -0.4375 1.953125 0 1.453125 0 C 1.1875 0 1.046875 -0.109375 0.921875 -0.21875 C 0.828125 -0.28125 0.765625 -0.359375 0.65625 -0.359375 C 0.546875 -0.359375 0.34375 -0.125 0.34375 -0.03125 C 0.34375 0.078125 0.796875 0.265625 1.125 0.265625 Z M 1.125 0.265625 "/>
</g>
<g id="glyph-3-13">
<path d="M 1.453125 0.015625 C 1.828125 0.015625 1.90625 -0.015625 2.265625 -0.015625 C 2.59375 -0.015625 2.65625 0.015625 3.046875 0.015625 C 3.09375 0.015625 3.15625 -0.015625 3.15625 -0.0625 C 3.15625 -0.09375 3.078125 -0.140625 3.03125 -0.15625 C 2.65625 -0.25 2.5625 -0.3125 2.5625 -0.578125 L 2.5625 -1.234375 C 2.5625 -1.25 2.609375 -1.265625 2.65625 -1.28125 C 2.703125 -1.28125 2.78125 -1.296875 2.859375 -1.296875 C 2.96875 -1.296875 3.09375 -1.28125 3.203125 -1.28125 C 3.234375 -1.28125 3.34375 -1.4375 3.34375 -1.546875 C 3.34375 -1.578125 3.3125 -1.609375 3.28125 -1.609375 C 3.125 -1.59375 3 -1.59375 2.859375 -1.59375 C 2.78125 -1.59375 2.6875 -1.59375 2.59375 -1.59375 C 2.5625 -1.59375 2.546875 -1.625 2.546875 -1.640625 L 2.546875 -2.53125 C 2.546875 -2.828125 2.546875 -2.984375 2.453125 -2.984375 C 2.390625 -2.984375 2.203125 -2.96875 2.0625 -2.890625 C 2 -2.859375 2 -2.84375 2 -2.734375 L 2 -1.65625 C 2 -1.640625 1.953125 -1.609375 1.90625 -1.609375 L 0.703125 -1.609375 C 0.6875 -1.609375 0.703125 -1.640625 0.703125 -1.671875 L 2.59375 -4.359375 C 2.59375 -4.359375 2.640625 -4.46875 2.59375 -4.46875 L 2.453125 -4.46875 C 2.390625 -4.46875 2.296875 -4.359375 2.25 -4.265625 L 0.40625 -1.640625 C 0.3125 -1.515625 0.3125 -1.515625 0.140625 -1.3125 C 0.125 -1.296875 0.125 -1.296875 0.125 -1.28125 C 0.125 -1.265625 0.171875 -1.21875 0.203125 -1.21875 C 0.9375 -1.21875 1.328125 -1.265625 1.890625 -1.265625 C 1.890625 -1.265625 2 -1.25 2 -1.203125 L 2 -0.5625 C 2 -0.328125 1.890625 -0.203125 1.453125 -0.15625 C 1.40625 -0.140625 1.328125 -0.125 1.328125 -0.0625 C 1.328125 0 1.40625 0.015625 1.453125 0.015625 Z M 1.453125 0.015625 "/>
</g>
<g id="glyph-4-0">
<path d="M 1.421875 0.078125 C 2.328125 0.078125 2.703125 -0.984375 2.703125 -1.875 C 2.703125 -2.75 2.3125 -3.75 1.484375 -3.75 C 0.59375 -3.75 0.203125 -2.703125 0.203125 -1.796875 C 0.203125 -0.921875 0.59375 0.078125 1.421875 0.078125 Z M 1.53125 -0.09375 C 1 -0.09375 0.75 -1.015625 0.75 -1.90625 C 0.75 -2.796875 0.90625 -3.578125 1.375 -3.578125 C 1.890625 -3.578125 2.171875 -2.65625 2.171875 -1.78125 C 2.171875 -0.890625 1.984375 -0.09375 1.53125 -0.09375 Z M 1.53125 -0.09375 "/>
</g>
<g id="glyph-4-1">
<path d="M 0.609375 0.015625 C 0.921875 0.015625 1.203125 -0.015625 1.515625 -0.015625 C 1.828125 -0.015625 2.078125 0.015625 2.40625 0.015625 C 2.453125 0.015625 2.5 -0.015625 2.5 -0.046875 C 2.5 -0.09375 2.4375 -0.125 2.390625 -0.125 C 1.921875 -0.25 1.765625 -0.28125 1.765625 -0.578125 L 1.765625 -3.3125 C 1.765625 -3.484375 1.78125 -3.625 1.796875 -3.734375 C 1.796875 -3.765625 1.75 -3.796875 1.71875 -3.796875 C 1.703125 -3.796875 1.6875 -3.796875 1.671875 -3.78125 C 1.40625 -3.53125 1.109375 -3.46875 0.75 -3.421875 C 0.65625 -3.40625 0.59375 -3.359375 0.59375 -3.296875 C 0.59375 -3.234375 0.671875 -3.203125 0.75 -3.203125 C 1 -3.171875 1.25 -3.125 1.25 -2.90625 L 1.25 -0.640625 C 1.25 -0.296875 1.046875 -0.25 0.609375 -0.140625 C 0.5625 -0.125 0.515625 -0.09375 0.515625 -0.046875 C 0.515625 -0.015625 0.546875 0.015625 0.609375 0.015625 Z M 0.609375 0.015625 "/>
</g>
<g id="glyph-5-0">
<path d="M 2.484375 -4.21875 L 0.78125 -4.21875 C 0.5625 -4.21875 0.453125 -4.234375 0.453125 -4.234375 L 0.4375 -4.21875 C 0.484375 -3.84375 0.5 -3.390625 0.5 -2.90625 L 0.5 -1.3125 C 0.5 -0.8125 0.484375 -0.359375 0.4375 0 L 0.4375 0.015625 C 0.4375 0.015625 0.5625 0 0.78125 0 C 1 0 1.109375 0.015625 1.109375 0.015625 L 1.125 0 C 1.078125 -0.375 1.0625 -0.8125 1.0625 -1.3125 L 1.0625 -2.078125 C 1.375 -2.078125 2.078125 -2.046875 2.515625 -2 L 2.546875 -2.03125 C 2.53125 -2.078125 2.515625 -2.171875 2.515625 -2.234375 C 2.515625 -2.296875 2.53125 -2.390625 2.546875 -2.4375 L 2.515625 -2.46875 C 2.140625 -2.421875 1.828125 -2.390625 1.0625 -2.390625 L 1.0625 -2.90625 C 1.0625 -3.015625 1.078125 -3.6875 1.109375 -3.84375 C 1.984375 -3.84375 2.890625 -3.765625 2.890625 -3.765625 L 2.90625 -3.796875 C 2.90625 -3.84375 2.890625 -3.9375 2.890625 -3.984375 C 2.890625 -4.046875 2.90625 -4.125 2.90625 -4.21875 L 2.890625 -4.234375 C 2.78125 -4.21875 2.640625 -4.21875 2.484375 -4.21875 Z M 2.484375 -4.21875 "/>
</g>
<g id="glyph-5-1">
<path d="M 1.90625 -0.96875 C 1.90625 -0.46875 1.890625 -0.328125 1.84375 0 L 1.859375 0.015625 C 1.859375 0.015625 2.0625 0 2.15625 0 C 2.265625 0 2.375 0.015625 2.4375 0.015625 C 2.4375 0.015625 2.453125 0 2.453125 0 C 2.421875 -0.375 2.40625 -0.59375 2.40625 -0.96875 L 2.734375 -0.96875 C 2.828125 -0.96875 2.921875 -1.109375 2.921875 -1.1875 C 2.921875 -1.25 2.890625 -1.296875 2.828125 -1.296875 L 2.40625 -1.296875 L 2.40625 -2.953125 C 2.40625 -3.171875 2.421875 -3.625 2.453125 -3.921875 C 2.453125 -3.9375 2.4375 -3.9375 2.4375 -3.9375 C 2.375 -3.9375 2.28125 -3.921875 2.1875 -3.921875 C 2.078125 -3.921875 1.953125 -3.9375 1.953125 -3.9375 C 1.953125 -3.9375 1.9375 -3.921875 1.9375 -3.921875 C 1.53125 -3.375 0.59375 -1.9375 0.25 -1.359375 C 0.1875 -1.234375 0.171875 -1.15625 0.171875 -1.09375 C 0.171875 -1 0.3125 -0.96875 0.5625 -0.96875 Z M 1.90625 -3.34375 L 1.90625 -1.296875 L 0.578125 -1.296875 Z M 1.90625 -3.34375 "/>
</g>
<g id="glyph-5-2">
<path d="M 0.859375 -0.625 C 0.859375 -0.046875 0.828125 0.734375 0.3125 0.734375 C 0.125 0.734375 0 0.640625 -0.078125 0.5 L -0.140625 0.515625 C -0.1875 0.6875 -0.25 0.921875 -0.328125 1.046875 L -0.3125 1.0625 C -0.265625 1.09375 -0.15625 1.125 -0.03125 1.125 C 0.390625 1.125 0.734375 0.984375 1 0.625 C 1.359375 0.171875 1.421875 -0.015625 1.421875 -0.765625 L 1.421875 -2.90625 C 1.421875 -3.390625 1.4375 -3.859375 1.484375 -4.21875 L 1.46875 -4.234375 C 1.390625 -4.21875 1.21875 -4.21875 1.140625 -4.21875 C 1.0625 -4.21875 0.875 -4.21875 0.796875 -4.234375 L 0.796875 -4.21875 C 0.84375 -3.84375 0.859375 -3.390625 0.859375 -2.90625 Z M 0.859375 -0.625 "/>
</g>
<g id="glyph-5-3">
<path d="M 2.1875 -0.59375 L 2.21875 -0.578125 L 2.25 0 C 2.25 0.015625 2.265625 0.015625 2.28125 0.015625 C 2.359375 0 2.4375 0 2.53125 0 C 2.625 0 2.75 0 2.828125 0.015625 L 2.84375 0 C 2.78125 -0.28125 2.734375 -0.765625 2.734375 -1.25 L 2.734375 -1.625 C 2.734375 -2.109375 2.734375 -2.453125 2.78125 -2.796875 L 2.78125 -2.828125 C 2.703125 -2.8125 2.546875 -2.796875 2.46875 -2.796875 C 2.390625 -2.796875 2.234375 -2.8125 2.15625 -2.828125 L 2.15625 -2.796875 C 2.1875 -2.421875 2.203125 -2.125 2.203125 -1.625 L 2.203125 -0.984375 C 2 -0.640625 1.625 -0.296875 1.3125 -0.296875 C 1.078125 -0.296875 0.875 -0.375 0.875 -0.984375 L 0.875 -1.625 C 0.875 -2.109375 0.875 -2.453125 0.9375 -2.796875 L 0.921875 -2.828125 C 0.84375 -2.8125 0.6875 -2.796875 0.609375 -2.796875 C 0.53125 -2.796875 0.390625 -2.8125 0.3125 -2.828125 L 0.296875 -2.796875 C 0.34375 -2.421875 0.359375 -2.125 0.359375 -1.625 L 0.359375 -0.84375 C 0.359375 -0.390625 0.5625 0.0625 1.203125 0.0625 C 1.609375 0.0625 1.984375 -0.265625 2.1875 -0.59375 Z M 2.1875 -0.59375 "/>
</g>
<g id="glyph-5-4">
<path d="M 0.90625 -2.296875 L 0.90625 -2.78125 C 0.90625 -2.828125 0.890625 -2.84375 0.859375 -2.84375 C 0.71875 -2.8125 0.484375 -2.796875 0.328125 -2.828125 L 0.3125 -2.796875 C 0.359375 -2.515625 0.375 -2.03125 0.375 -1.53125 L 0.375 -1.171875 C 0.375 -0.6875 0.375 -0.359375 0.3125 0 L 0.328125 0.015625 C 0.40625 0 0.5625 0 0.640625 0 C 0.71875 0 0.875 0 0.953125 0.015625 L 0.953125 0 C 0.90625 -0.375 0.90625 -0.671875 0.90625 -1.171875 L 0.90625 -1.96875 C 1.203125 -2.28125 1.578125 -2.46875 1.796875 -2.46875 C 2.046875 -2.46875 2.234375 -2.328125 2.234375 -1.890625 L 2.234375 -1.171875 C 2.234375 -0.6875 2.234375 -0.359375 2.171875 0 L 2.1875 0.015625 C 2.265625 0 2.421875 0 2.5 0 C 2.578125 0 2.71875 0 2.796875 0.015625 L 2.8125 0 C 2.765625 -0.375 2.75 -0.671875 2.75 -1.171875 L 2.75 -1.828125 C 2.75 -1.921875 2.75 -2 2.75 -2.078125 C 3.0625 -2.421875 3.328125 -2.46875 3.578125 -2.46875 C 3.9375 -2.46875 4.109375 -2.328125 4.109375 -1.890625 L 4.109375 -1.171875 C 4.109375 -0.6875 4.09375 -0.359375 4.046875 0 L 4.0625 0.015625 C 4.140625 0 4.28125 0 4.359375 0 C 4.4375 0 4.59375 0 4.671875 0.015625 L 4.6875 0 C 4.625 -0.375 4.625 -0.671875 4.625 -1.171875 L 4.625 -1.828125 C 4.625 -2.40625 4.515625 -2.875 3.8125 -2.875 C 3.46875 -2.875 3.078125 -2.75 2.703125 -2.34375 C 2.65625 -2.671875 2.390625 -2.875 2.015625 -2.875 C 1.609375 -2.875 1.234375 -2.609375 0.921875 -2.28125 Z M 0.90625 -2.296875 "/>
</g>
<g id="glyph-5-5">
<path d="M 0.9375 -0.53125 L 0.9375 -2.21875 C 1.1875 -2.484375 1.359375 -2.609375 1.625 -2.609375 C 2.015625 -2.609375 2.375 -2.265625 2.375 -1.46875 C 2.375 -0.65625 2.125 -0.203125 1.515625 -0.203125 C 1.3125 -0.203125 1.0625 -0.359375 0.9375 -0.53125 Z M 0.9375 -3.265625 C 0.9375 -3.75 0.9375 -4.09375 0.96875 -4.5 C 0.96875 -4.546875 0.953125 -4.5625 0.921875 -4.5625 C 0.75 -4.5 0.609375 -4.453125 0.34375 -4.421875 L 0.328125 -4.40625 C 0.375 -4.125 0.40625 -3.640625 0.40625 -3.140625 L 0.40625 -0.484375 C 0.40625 -0.21875 0.40625 -0.125 0.375 0.015625 C 0.421875 0.046875 0.484375 0.0625 0.5625 0.0625 C 0.640625 -0.015625 0.703125 -0.125 0.78125 -0.25 C 0.96875 -0.09375 1.265625 0.0625 1.546875 0.0625 C 2.21875 0.0625 2.953125 -0.40625 2.953125 -1.515625 C 2.953125 -2.3125 2.390625 -2.875 1.75 -2.875 C 1.4375 -2.875 1.15625 -2.78125 0.9375 -2.546875 Z M 0.9375 -3.265625 "/>
</g>
<g id="glyph-5-6">
<path d="M 0.40625 -1.3125 C 0.40625 -0.8125 0.390625 -0.34375 0.34375 0 L 0.359375 0.015625 C 0.4375 0 0.59375 0 0.671875 0 C 0.75 0 0.890625 0 0.96875 0.015625 L 0.984375 0 C 0.9375 -0.375 0.921875 -0.8125 0.921875 -1.3125 L 0.921875 -3.265625 C 0.921875 -3.75 0.953125 -4.078125 0.984375 -4.5 C 0.984375 -4.546875 0.96875 -4.5625 0.921875 -4.5625 C 0.75 -4.5 0.625 -4.453125 0.359375 -4.421875 L 0.34375 -4.40625 C 0.390625 -4.125 0.40625 -3.640625 0.40625 -3.140625 Z M 0.40625 -1.3125 "/>
</g>
<g id="glyph-5-7">
<path d="M 0.828125 -1.78125 C 0.9375 -2.46875 1.359375 -2.609375 1.5625 -2.609375 C 1.828125 -2.609375 2.109375 -2.359375 2.109375 -1.875 C 2.109375 -1.8125 2.09375 -1.78125 2.03125 -1.78125 Z M 2.5625 -0.671875 C 2.34375 -0.4375 2.03125 -0.3125 1.671875 -0.3125 C 1.4375 -0.3125 1.140625 -0.40625 0.953125 -0.6875 C 0.84375 -0.875 0.796875 -1.140625 0.796875 -1.515625 L 2.578125 -1.515625 C 2.65625 -1.515625 2.703125 -1.546875 2.703125 -1.625 C 2.703125 -2.171875 2.421875 -2.859375 1.5625 -2.859375 C 0.890625 -2.859375 0.234375 -2.3125 0.234375 -1.359375 C 0.234375 -1 0.296875 -0.625 0.515625 -0.359375 C 0.75 -0.09375 1.109375 0.0625 1.5625 0.0625 C 2.03125 0.0625 2.453125 -0.171875 2.703125 -0.515625 Z M 2.5625 -0.671875 "/>
</g>
</g>
<clipPath id="clip-0">
<path clip-rule="nonzero" d="M 0.0351562 0 L 51 0 L 51 33 L 0.0351562 33 Z M 0.0351562 0 "/>
</clipPath>
<clipPath id="clip-1">
<path clip-rule="nonzero" d="M 0.0351562 98 L 51 98 L 51 133 L 0.0351562 133 Z M 0.0351562 98 "/>
</clipPath>
<clipPath id="clip-2">
<path clip-rule="nonzero" d="M 0.0351562 182 L 51 182 L 51 220 L 0.0351562 220 Z M 0.0351562 182 "/>
</clipPath>
</defs>
<g clip-path="url(#clip-0)">
<path fill="none" stroke-width="0.59776" stroke-linecap="butt" stroke-linejoin="miter" stroke="rgb(39.99939%, 39.99939%, 39.99939%)" stroke-opacity="1" stroke-miterlimit="10" d="M 17.848659 10.255753 L -17.84844 10.255753 C -18.949526 10.255753 -19.842933 9.362346 -19.842933 8.261261 L -19.842933 -8.262852 C -19.842933 -9.363937 -18.949526 -10.253425 -17.84844 -10.253425 L 17.848659 -10.253425 C 18.949744 -10.253425 19.843151 -9.363937 19.843151 -8.262852 L 19.843151 8.261261 C 19.843151 9.362346 18.949744 10.255753 17.848659 10.255753 Z M 17.848659 10.255753 " transform="matrix(0.996886, 0, 0, -0.996886, 22.101454, 13.614442)"/>
</g>
<g fill="rgb(0%, 0%, 0%)" fill-opacity="1">
<use xlink:href="#glyph-0-0" x="20.107073" y="10.10317"/>
</g>
<g fill="rgb(0%, 0%, 0%)" fill-opacity="1">
<use xlink:href="#glyph-1-0" x="12.204489" y="18.54504"/>
</g>
<g fill="rgb(0%, 0%, 0%)" fill-opacity="1">
<use xlink:href="#glyph-2-0" x="13.733982" y="20.28325"/>
</g>
<g fill="rgb(0%, 0%, 0%)" fill-opacity="1">
<use xlink:href="#glyph-3-0" x="18.406795" y="18.54504"/>
</g>
<g fill="rgb(0%, 0%, 0%)" fill-opacity="1">
<use xlink:href="#glyph-3-1" x="21.813339" y="18.54504"/>
<use xlink:href="#glyph-3-2" x="24.858373" y="18.54504"/>
<use xlink:href="#glyph-3-3" x="27.041342" y="18.54504"/>
<use xlink:href="#glyph-3-4" x="29.752673" y="18.54504"/>
</g>
<path fill="none" stroke-width="0.59776" stroke-linecap="butt" stroke-linejoin="miter" stroke="rgb(39.99939%, 39.99939%, 39.99939%)" stroke-opacity="1" stroke-miterlimit="10" d="M 187.932995 11.364675 L 152.231977 11.364675 C 151.130892 11.364675 150.237485 10.475187 150.237485 9.374102 L 150.237485 -9.371774 C 150.237485 -10.472859 151.130892 -11.366266 152.231977 -11.366266 L 187.932995 -11.366266 C 189.030162 -11.366266 189.923569 -10.472859 189.923569 -9.371774 L 189.923569 9.374102 C 189.923569 10.475187 189.030162 11.364675 187.932995 11.364675 Z M 187.932995 11.364675 " transform="matrix(0.996886, 0, 0, -0.996886, 22.101454, 13.614442)"/>
<g fill="rgb(0%, 0%, 0%)" fill-opacity="1">
<use xlink:href="#glyph-0-1" x="189.777463" y="11.211578"/>
</g>
<g fill="rgb(0%, 0%, 0%)" fill-opacity="1">
<use xlink:href="#glyph-1-0" x="181.470642" y="19.653447"/>
</g>
<g fill="rgb(0%, 0%, 0%)" fill-opacity="1">
<use xlink:href="#glyph-2-1" x="183.014031" y="21.391658"/>
</g>
<g fill="rgb(0%, 0%, 0%)" fill-opacity="1">
<use xlink:href="#glyph-3-0" x="188.243027" y="19.653447"/>
</g>
<g fill="rgb(0%, 0%, 0%)" fill-opacity="1">
<use xlink:href="#glyph-3-1" x="191.649571" y="19.653447"/>
<use xlink:href="#glyph-3-2" x="194.694604" y="19.653447"/>
<use xlink:href="#glyph-3-3" x="196.877574" y="19.653447"/>
<use xlink:href="#glyph-3-4" x="199.588905" y="19.653447"/>
</g>
<path fill-rule="nonzero" fill="rgb(23.527527%, 50.979614%, 70.588684%)" fill-opacity="0.14" stroke-width="0.69739" stroke-linecap="butt" stroke-linejoin="miter" stroke="rgb(23.527527%, 50.979614%, 70.588684%)" stroke-opacity="1" stroke-miterlimit="10" d="M 98.639306 -18.709445 L 71.44133 -18.709445 C 70.340245 -18.709445 69.450756 -19.602852 69.450756 -20.700019 L 69.450756 -33.724954 C 69.450756 -34.826039 70.340245 -35.715528 71.44133 -35.715528 L 98.639306 -35.715528 C 99.740392 -35.715528 100.62988 -34.826039 100.62988 -33.724954 L 100.62988 -20.700019 C 100.62988 -19.602852 99.740392 -18.709445 98.639306 -18.709445 Z M 98.639306 -18.709445 " transform="matrix(0.996886, 0, 0, -0.996886, 22.101454, 13.614442)"/>
<g fill="rgb(0%, 0%, 0%)" fill-opacity="1">
<use xlink:href="#glyph-0-2" x="102.80008" y="42.341565"/>
</g>
<g fill="rgb(0%, 0%, 0%)" fill-opacity="1">
<use xlink:href="#glyph-4-0" x="107.543423" y="44.3281"/>
</g>
<path fill="none" stroke-width="0.59776" stroke-linecap="butt" stroke-linejoin="miter" stroke="rgb(0%, 0%, 0%)" stroke-opacity="1" stroke-miterlimit="10" d="M 175.750527 -27.212486 C 175.750527 -24.081643 173.21137 -21.542486 170.080527 -21.542486 C 166.949684 -21.542486 164.410527 -24.081643 164.410527 -27.212486 C 164.410527 -30.34333 166.949684 -32.882487 170.080527 -32.882487 C 173.21137 -32.882487 175.750527 -30.34333 175.750527 -27.212486 Z M 175.750527 -27.212486 " transform="matrix(0.996886, 0, 0, -0.996886, 22.101454, 13.614442)"/>
<g fill="rgb(0%, 0%, 0%)" fill-opacity="1">
<use xlink:href="#glyph-0-3" x="188.847957" y="42.729015"/>
</g>
<path fill="none" stroke-width="0.59776" stroke-linecap="butt" stroke-linejoin="miter" stroke="rgb(39.99939%, 39.99939%, 39.99939%)" stroke-opacity="1" stroke-miterlimit="10" d="M 187.932995 -43.654312 L 152.231977 -43.654312 C 151.130892 -43.654312 150.237485 -44.547719 150.237485 -45.648804 L 150.237485 -58.669821 C 150.237485 -59.770906 151.130892 -60.664313 152.231977 -60.664313 L 187.932995 -60.664313 C 189.030162 -60.664313 189.923569 -59.770906 189.923569 -58.669821 L 189.923569 -45.648804 C 189.923569 -44.547719 189.030162 -43.654312 187.932995 -43.654312 Z M 187.932995 -43.654312 " transform="matrix(0.996886, 0, 0, -0.996886, 22.101454, 13.614442)"/>
<g fill="rgb(0%, 0%, 0%)" fill-opacity="1">
<use xlink:href="#glyph-0-4" x="189.642485" y="67.211408"/>
</g>
<path fill-rule="nonzero" fill="rgb(82.351685%, 54.902649%, 15.684509%)" fill-opacity="0.14" stroke-width="0.69739" stroke-linecap="butt" stroke-linejoin="miter" stroke="rgb(82.351685%, 54.902649%, 15.684509%)" stroke-opacity="1" stroke-miterlimit="10" d="M 98.639306 -68.599179 L 71.44133 -68.599179 C 70.340245 -68.599179 69.450756 -69.492586 69.450756 -70.593671 L 69.450756 -83.614687 C 69.450756 -84.715772 70.340245 -85.60918 71.44133 -85.60918 L 98.639306 -85.60918 C 99.740392 -85.60918 100.62988 -84.715772 100.62988 -83.614687 L 100.62988 -70.593671 C 100.62988 -69.492586 99.740392 -68.599179 98.639306 -68.599179 Z M 98.639306 -68.599179 " transform="matrix(0.996886, 0, 0, -0.996886, 22.101454, 13.614442)"/>
<g fill="rgb(0%, 0%, 0%)" fill-opacity="1">
<use xlink:href="#glyph-0-5" x="102.434592" y="92.040966"/>
</g>
<g fill="rgb(0%, 0%, 0%)" fill-opacity="1">
<use xlink:href="#glyph-4-0" x="107.908911" y="94.0275"/>
</g>
<path fill="none" stroke-width="0.59776" stroke-linecap="butt" stroke-linejoin="miter" stroke="rgb(0%, 0%, 0%)" stroke-opacity="1" stroke-miterlimit="10" d="M 5.67011 -77.10222 C 5.67011 -73.971376 3.130953 -71.432219 0.000109315 -71.432219 C -3.130734 -71.432219 -5.669891 -73.971376 -5.669891 -77.10222 C -5.669891 -80.233063 -3.130734 -82.77222 0.000109315 -82.77222 C 3.130953 -82.77222 5.67011 -80.233063 5.67011 -77.10222 Z M 5.67011 -77.10222 " transform="matrix(0.996886, 0, 0, -0.996886, 22.101454, 13.614442)"/>
<g fill="rgb(0%, 0%, 0%)" fill-opacity="1">
<use xlink:href="#glyph-0-3" x="19.296755" y="92.464154"/>
</g>
<g clip-path="url(#clip-1)">
<path fill="none" stroke-width="0.59776" stroke-linecap="butt" stroke-linejoin="miter" stroke="rgb(39.99939%, 39.99939%, 39.99939%)" stroke-opacity="1" stroke-miterlimit="10" d="M 17.848659 -93.544045 L -17.84844 -93.544045 C -18.949526 -93.544045 -19.842933 -94.437452 -19.842933 -95.538537 L -19.842933 -108.559554 C -19.842933 -109.660639 -18.949526 -110.554046 -17.84844 -110.554046 L 17.848659 -110.554046 C 18.949744 -110.554046 19.843151 -109.660639 19.843151 -108.559554 L 19.843151 -95.538537 C 19.843151 -94.437452 18.949744 -93.544045 17.848659 -93.544045 Z M 17.848659 -93.544045 " transform="matrix(0.996886, 0, 0, -0.996886, 22.101454, 13.614442)"/>
</g>
<g fill="rgb(0%, 0%, 0%)" fill-opacity="1">
<use xlink:href="#glyph-0-6" x="20.262099" y="115.881863"/>
</g>
<path fill-rule="nonzero" fill="rgb(23.527527%, 50.979614%, 70.588684%)" fill-opacity="0.14" stroke-width="0.69739" stroke-linecap="butt" stroke-linejoin="miter" stroke="rgb(23.527527%, 50.979614%, 70.588684%)" stroke-opacity="1" stroke-miterlimit="10" d="M 98.639306 -118.488912 L 71.44133 -118.488912 C 70.340245 -118.488912 69.450756 -119.382319 69.450756 -120.483404 L 69.450756 -133.504421 C 69.450756 -134.605506 70.340245 -135.498913 71.44133 -135.498913 L 98.639306 -135.498913 C 99.740392 -135.498913 100.62988 -134.605506 100.62988 -133.504421 L 100.62988 -120.483404 C 100.62988 -119.382319 99.740392 -118.488912 98.639306 -118.488912 Z M 98.639306 -118.488912 " transform="matrix(0.996886, 0, 0, -0.996886, 22.101454, 13.614442)"/>
<g fill="rgb(0%, 0%, 0%)" fill-opacity="1">
<use xlink:href="#glyph-0-2" x="102.831861" y="141.84497"/>
</g>
<g fill="rgb(0%, 0%, 0%)" fill-opacity="1">
<use xlink:href="#glyph-4-1" x="107.511642" y="143.831505"/>
</g>
<path fill="none" stroke-width="0.59776" stroke-linecap="butt" stroke-linejoin="miter" stroke="rgb(0%, 0%, 0%)" stroke-opacity="1" stroke-miterlimit="10" d="M 175.750527 -126.995872 C 175.750527 -123.865028 173.21137 -121.325871 170.080527 -121.325871 C 166.949684 -121.325871 164.410527 -123.865028 164.410527 -126.995872 C 164.410527 -130.126715 166.949684 -132.661954 170.080527 -132.661954 C 173.21137 -132.661954 175.750527 -130.126715 175.750527 -126.995872 Z M 175.750527 -126.995872 " transform="matrix(0.996886, 0, 0, -0.996886, 22.101454, 13.614442)"/>
<g fill="rgb(0%, 0%, 0%)" fill-opacity="1">
<use xlink:href="#glyph-0-3" x="188.847957" y="142.199652"/>
</g>
<path fill-rule="nonzero" fill="rgb(82.351685%, 54.902649%, 15.684509%)" fill-opacity="0.14" stroke-width="0.69739" stroke-linecap="butt" stroke-linejoin="miter" stroke="rgb(82.351685%, 54.902649%, 15.684509%)" stroke-opacity="1" stroke-miterlimit="10" d="M 98.639306 -150.24013 L 71.44133 -150.24013 C 70.340245 -150.24013 69.450756 -151.129619 69.450756 -152.230704 L 69.450756 -165.255639 C 69.450756 -166.352806 70.340245 -167.246213 71.44133 -167.246213 L 98.639306 -167.246213 C 99.740392 -167.246213 100.62988 -166.352806 100.62988 -165.255639 L 100.62988 -152.230704 C 100.62988 -151.129619 99.740392 -150.24013 98.639306 -150.24013 Z M 98.639306 -150.24013 " transform="matrix(0.996886, 0, 0, -0.996886, 22.101454, 13.614442)"/>
<g fill="rgb(0%, 0%, 0%)" fill-opacity="1">
<use xlink:href="#glyph-0-5" x="102.466363" y="173.458766"/>
</g>
<g fill="rgb(0%, 0%, 0%)" fill-opacity="1">
<use xlink:href="#glyph-4-1" x="107.877121" y="175.445301"/>
</g>
<path fill="none" stroke-width="0.59776" stroke-linecap="butt" stroke-linejoin="miter" stroke="rgb(0%, 0%, 0%)" stroke-opacity="1" stroke-miterlimit="10" d="M 5.67011 -158.743171 C 5.67011 -155.612328 3.130953 -153.073171 0.000109315 -153.073171 C -3.130734 -153.073171 -5.669891 -155.612328 -5.669891 -158.743171 C -5.669891 -161.874015 -3.130734 -164.413172 0.000109315 -164.413172 C 3.130953 -164.413172 5.67011 -161.874015 5.67011 -158.743171 Z M 5.67011 -158.743171 " transform="matrix(0.996886, 0, 0, -0.996886, 22.101454, 13.614442)"/>
<g fill="rgb(0%, 0%, 0%)" fill-opacity="1">
<use xlink:href="#glyph-0-3" x="19.296755" y="173.849206"/>
</g>
<g clip-path="url(#clip-2)">
<path fill="none" stroke-width="0.59776" stroke-linecap="butt" stroke-linejoin="miter" stroke="rgb(39.99939%, 39.99939%, 39.99939%)" stroke-opacity="1" stroke-miterlimit="10" d="M 17.848659 -178.014119 L -17.84844 -178.014119 C -18.949526 -178.014119 -19.842933 -178.903608 -19.842933 -180.004693 L -19.842933 -196.4426 C -19.842933 -197.543685 -18.949526 -198.433174 -17.84844 -198.433174 L 17.848659 -198.433174 C 18.949744 -198.433174 19.843151 -197.543685 19.843151 -196.4426 L 19.843151 -180.004693 C 19.843151 -178.903608 18.949744 -178.014119 17.848659 -178.014119 Z M 17.848659 -178.014119 " transform="matrix(0.996886, 0, 0, -0.996886, 22.101454, 13.614442)"/>
</g>
<g fill="rgb(0%, 0%, 0%)" fill-opacity="1">
<use xlink:href="#glyph-0-7" x="20.663256" y="197.696972"/>
</g>
<g fill="rgb(0%, 0%, 0%)" fill-opacity="1">
<use xlink:href="#glyph-1-0" x="12.204489" y="206.138841"/>
</g>
<g fill="rgb(0%, 0%, 0%)" fill-opacity="1">
<use xlink:href="#glyph-2-0" x="13.733982" y="207.877051"/>
</g>
<g fill="rgb(0%, 0%, 0%)" fill-opacity="1">
<use xlink:href="#glyph-3-0" x="18.406795" y="206.138841"/>
</g>
<g fill="rgb(0%, 0%, 0%)" fill-opacity="1">
<use xlink:href="#glyph-3-1" x="21.813339" y="206.138841"/>
<use xlink:href="#glyph-3-2" x="24.858373" y="206.138841"/>
<use xlink:href="#glyph-3-3" x="27.041342" y="206.138841"/>
<use xlink:href="#glyph-3-4" x="29.752673" y="206.138841"/>
</g>
<path fill="none" stroke-width="0.59776" stroke-linecap="butt" stroke-linejoin="miter" stroke="rgb(39.99939%, 39.99939%, 39.99939%)" stroke-opacity="1" stroke-miterlimit="10" d="M 187.932995 -176.866013 L 152.231977 -176.866013 C 151.130892 -176.866013 150.237485 -177.75942 150.237485 -178.856586 L 150.237485 -197.590706 C 150.237485 -198.687873 151.130892 -199.58128 152.231977 -199.58128 L 187.932995 -199.58128 C 189.030162 -199.58128 189.923569 -198.687873 189.923569 -197.590706 L 189.923569 -178.856586 C 189.923569 -177.75942 189.030162 -176.866013 187.932995 -176.866013 Z M 187.932995 -176.866013 " transform="matrix(0.996886, 0, 0, -0.996886, 22.101454, 13.614442)"/>
<g fill="rgb(0%, 0%, 0%)" fill-opacity="1">
<use xlink:href="#glyph-0-8" x="189.340469" y="198.841098"/>
</g>
<g fill="rgb(0%, 0%, 0%)" fill-opacity="1">
<use xlink:href="#glyph-1-0" x="181.470642" y="207.282967"/>
</g>
<g fill="rgb(0%, 0%, 0%)" fill-opacity="1">
<use xlink:href="#glyph-2-1" x="183.014031" y="209.021177"/>
</g>
<g fill="rgb(0%, 0%, 0%)" fill-opacity="1">
<use xlink:href="#glyph-3-0" x="188.243027" y="207.282967"/>
</g>
<g fill="rgb(0%, 0%, 0%)" fill-opacity="1">
<use xlink:href="#glyph-3-1" x="191.649571" y="207.282967"/>
<use xlink:href="#glyph-3-2" x="194.694604" y="207.282967"/>
<use xlink:href="#glyph-3-3" x="196.877574" y="207.282967"/>
<use xlink:href="#glyph-3-4" x="199.588905" y="207.282967"/>
</g>
<path fill="none" stroke-width="0.59776" stroke-linecap="butt" stroke-linejoin="miter" stroke="rgb(0%, 0%, 0%)" stroke-opacity="1" stroke-miterlimit="10" d="M 170.080527 -11.664068 L 170.080527 -18.047227 " transform="matrix(0.996886, 0, 0, -0.996886, 22.101454, 13.614442)"/>
<path fill-rule="nonzero" fill="rgb(0%, 0%, 0%)" fill-opacity="1" stroke-width="0.59776" stroke-linecap="butt" stroke-linejoin="miter" stroke="rgb(0%, 0%, 0%)" stroke-opacity="1" stroke-miterlimit="10" d="M 4.25208 -0.000333047 L 0.964498 1.241816 L 2.053828 -0.000333047 L 0.964498 -1.242482 Z M 4.25208 -0.000333047 " transform="matrix(0, 0.996886, 0.996886, 0, 191.652676, 29.706474)"/>
<path fill="none" stroke-width="0.59776" stroke-linecap="butt" stroke-linejoin="miter" stroke="rgb(0%, 0%, 0%)" stroke-opacity="1" stroke-miterlimit="10" d="M 170.080527 -33.180289 L 170.080527 -40.159052 " transform="matrix(0.996886, 0, 0, -0.996886, 22.101454, 13.614442)"/>
<path fill-rule="nonzero" fill="rgb(0%, 0%, 0%)" fill-opacity="1" stroke-width="0.59776" stroke-linecap="butt" stroke-linejoin="miter" stroke="rgb(0%, 0%, 0%)" stroke-opacity="1" stroke-miterlimit="10" d="M 4.249237 -0.000333047 L 0.965574 1.241816 L 2.054904 -0.000333047 L 0.965574 -1.242482 Z M 4.249237 -0.000333047 " transform="matrix(0, 0.996886, 0.996886, 0, 191.652676, 51.74837)"/>
<path fill="none" stroke-width="0.59776" stroke-linecap="butt" stroke-linejoin="miter" stroke="rgb(0%, 0%, 0%)" stroke-opacity="1" stroke-miterlimit="10" d="M 170.080527 -60.962115 L 170.080527 -117.826693 " transform="matrix(0.996886, 0, 0, -0.996886, 22.101454, 13.614442)"/>
<path fill-rule="nonzero" fill="rgb(0%, 0%, 0%)" fill-opacity="1" stroke-width="0.59776" stroke-linecap="butt" stroke-linejoin="miter" stroke="rgb(0%, 0%, 0%)" stroke-opacity="1" stroke-miterlimit="10" d="M 4.250186 -0.000333047 L 0.966523 1.241816 L 2.051935 -0.000333047 L 0.966523 -1.242482 Z M 4.250186 -0.000333047 " transform="matrix(0, 0.996886, 0.996886, 0, 191.652676, 129.177111)"/>
<path fill="none" stroke-width="0.59776" stroke-linecap="butt" stroke-linejoin="miter" stroke="rgb(0%, 0%, 0%)" stroke-opacity="1" stroke-miterlimit="10" d="M 170.080527 -132.963674 L 170.080527 -173.366835 " transform="matrix(0.996886, 0, 0, -0.996886, 22.101454, 13.614442)"/>
<path fill-rule="nonzero" fill="rgb(0%, 0%, 0%)" fill-opacity="1" stroke-width="0.59776" stroke-linecap="butt" stroke-linejoin="miter" stroke="rgb(0%, 0%, 0%)" stroke-opacity="1" stroke-miterlimit="10" d="M 4.249708 -0.000333047 L 0.966045 1.241816 L 2.055375 -0.000333047 L 0.966045 -1.242482 Z M 4.249708 -0.000333047 " transform="matrix(0, 0.996886, 0.996886, 0, 191.652676, 184.544776)"/>
<path fill="none" stroke-width="0.59776" stroke-linecap="butt" stroke-linejoin="miter" stroke="rgb(0%, 0%, 0%)" stroke-opacity="1" stroke-miterlimit="10" d="M 0.000109315 -10.551228 L 0.000109315 -67.93696 " transform="matrix(0.996886, 0, 0, -0.996886, 22.101454, 13.614442)"/>
<path fill-rule="nonzero" fill="rgb(0%, 0%, 0%)" fill-opacity="1" stroke-width="0.59776" stroke-linecap="butt" stroke-linejoin="miter" stroke="rgb(0%, 0%, 0%)" stroke-opacity="1" stroke-miterlimit="10" d="M 4.251313 0.000109315 L 0.963732 1.242259 L 2.053061 0.000109315 L 0.963732 -1.24204 Z M 4.251313 0.000109315 " transform="matrix(0, 0.996886, 0.996886, 0, 22.101454, 79.441613)"/>
<path fill="none" stroke-width="0.59776" stroke-linecap="butt" stroke-linejoin="miter" stroke="rgb(0%, 0%, 0%)" stroke-opacity="1" stroke-miterlimit="10" d="M 0.000109315 -83.070022 L 0.000109315 -90.048786 " transform="matrix(0.996886, 0, 0, -0.996886, 22.101454, 13.614442)"/>
<path fill-rule="nonzero" fill="rgb(0%, 0%, 0%)" fill-opacity="1" stroke-width="0.59776" stroke-linecap="butt" stroke-linejoin="miter" stroke="rgb(0%, 0%, 0%)" stroke-opacity="1" stroke-miterlimit="10" d="M 4.252389 0.000109315 L 0.964807 1.242259 L 2.054137 0.000109315 L 0.964807 -1.24204 Z M 4.252389 0.000109315 " transform="matrix(0, 0.996886, 0.996886, 0, 22.101454, 101.48351)"/>
<path fill="none" stroke-width="0.59776" stroke-linecap="butt" stroke-linejoin="miter" stroke="rgb(0%, 0%, 0%)" stroke-opacity="1" stroke-miterlimit="10" d="M 0.000109315 -110.851849 L 0.000109315 -149.577912 " transform="matrix(0.996886, 0, 0, -0.996886, 22.101454, 13.614442)"/>
<path fill-rule="nonzero" fill="rgb(0%, 0%, 0%)" fill-opacity="1" stroke-width="0.59776" stroke-linecap="butt" stroke-linejoin="miter" stroke="rgb(0%, 0%, 0%)" stroke-opacity="1" stroke-miterlimit="10" d="M 4.252975 0.000109315 L 0.965393 1.242259 L 2.054723 0.000109315 L 0.965393 -1.24204 Z M 4.252975 0.000109315 " transform="matrix(0, 0.996886, 0.996886, 0, 22.101454, 160.826676)"/>
<path fill="none" stroke-width="0.59776" stroke-linecap="butt" stroke-linejoin="miter" stroke="rgb(0%, 0%, 0%)" stroke-opacity="1" stroke-miterlimit="10" d="M 0.000109315 -164.710974 L 0.000109315 -174.514941 " transform="matrix(0.996886, 0, 0, -0.996886, 22.101454, 13.614442)"/>
<path fill-rule="nonzero" fill="rgb(0%, 0%, 0%)" fill-opacity="1" stroke-width="0.59776" stroke-linecap="butt" stroke-linejoin="miter" stroke="rgb(0%, 0%, 0%)" stroke-opacity="1" stroke-miterlimit="10" d="M 4.250094 0.000109315 L 0.966431 1.242259 L 2.051843 0.000109315 L 0.966431 -1.24204 Z M 4.250094 0.000109315 " transform="matrix(0, 0.996886, 0.996886, 0, 22.101454, 185.688922)"/>
<path fill="none" stroke-width="0.59776" stroke-linecap="butt" stroke-linejoin="miter" stroke="rgb(0%, 0%, 0%)" stroke-opacity="1" stroke-miterlimit="10" d="M 0.000109315 -27.212486 L 65.904557 -27.212486 " transform="matrix(0.996886, 0, 0, -0.996886, 22.101454, 13.614442)"/>
<path fill-rule="nonzero" fill="rgb(0%, 0%, 0%)" fill-opacity="1" stroke-width="0.59776" stroke-linecap="butt" stroke-linejoin="miter" stroke="rgb(0%, 0%, 0%)" stroke-opacity="1" stroke-miterlimit="10" d="M 4.25314 0.000483579 L 0.965558 1.242633 L 2.054888 0.000483579 L 0.965558 -1.241666 Z M 4.25314 0.000483579 " transform="matrix(0.996886, 0, 0, -0.996886, 85.90073, 40.74267)"/>
<path fill="none" stroke-width="0.59776" stroke-linecap="butt" stroke-linejoin="miter" stroke="rgb(0%, 0%, 0%)" stroke-opacity="1" stroke-miterlimit="10" d="M 100.978622 -27.212486 L 160.915267 -27.212486 " transform="matrix(0.996886, 0, 0, -0.996886, 22.101454, 13.614442)"/>
<path fill-rule="nonzero" fill="rgb(0%, 0%, 0%)" fill-opacity="1" stroke-width="0.59776" stroke-linecap="butt" stroke-linejoin="miter" stroke="rgb(0%, 0%, 0%)" stroke-opacity="1" stroke-miterlimit="10" d="M 4.25222 0.000483579 L 0.964639 1.242633 L 2.053968 0.000483579 L 0.964639 -1.241666 Z M 4.25222 0.000483579 " transform="matrix(0.996886, 0, 0, -0.996886, 180.61649, 40.74267)"/>
<path fill-rule="nonzero" fill="rgb(0%, 0%, 0%)" fill-opacity="1" d="M 23.292969 40.742188 C 23.292969 40.085938 22.757812 39.550781 22.101562 39.550781 C 21.441406 39.550781 20.910156 40.085938 20.910156 40.742188 C 20.910156 41.402344 21.441406 41.933594 22.101562 41.933594 C 22.757812 41.933594 23.292969 41.402344 23.292969 40.742188 Z M 23.292969 40.742188 "/>
<path fill="none" stroke-width="0.59776" stroke-linecap="butt" stroke-linejoin="miter" stroke="rgb(0%, 0%, 0%)" stroke-opacity="1" stroke-miterlimit="10" d="M 170.080527 -77.10222 L 104.176079 -77.10222 " transform="matrix(0.996886, 0, 0, -0.996886, 22.101454, 13.614442)"/>
<path fill-rule="nonzero" fill="rgb(0%, 0%, 0%)" fill-opacity="1" stroke-width="0.59776" stroke-linecap="butt" stroke-linejoin="miter" stroke="rgb(0%, 0%, 0%)" stroke-opacity="1" stroke-miterlimit="10" d="M 4.249435 -0.0012502 L 0.965772 1.240899 L 2.055102 -0.0012502 L 0.965772 -1.2434 Z M 4.249435 -0.0012502 " transform="matrix(-0.996886, 0, 0, 0.996886, 127.85339, 90.477809)"/>
<path fill="none" stroke-width="0.59776" stroke-linecap="butt" stroke-linejoin="miter" stroke="rgb(0%, 0%, 0%)" stroke-opacity="1" stroke-miterlimit="10" d="M 69.102014 -77.10222 L 9.165369 -77.10222 " transform="matrix(0.996886, 0, 0, -0.996886, 22.101454, 13.614442)"/>
<path fill-rule="nonzero" fill="rgb(0%, 0%, 0%)" fill-opacity="1" stroke-width="0.59776" stroke-linecap="butt" stroke-linejoin="miter" stroke="rgb(0%, 0%, 0%)" stroke-opacity="1" stroke-miterlimit="10" d="M 4.252434 -0.0012502 L 0.964852 1.240899 L 2.054182 -0.0012502 L 0.964852 -1.2434 Z M 4.252434 -0.0012502 " transform="matrix(-0.996886, 0, 0, 0.996886, 33.137629, 90.477809)"/>
<path fill-rule="nonzero" fill="rgb(0%, 0%, 0%)" fill-opacity="1" d="M 192.84375 90.476562 C 192.84375 89.820312 192.3125 89.285156 191.652344 89.285156 C 190.996094 89.285156 190.460938 89.820312 190.460938 90.476562 C 190.460938 91.136719 190.996094 91.667969 191.652344 91.667969 C 192.3125 91.667969 192.84375 91.136719 192.84375 90.476562 Z M 192.84375 90.476562 "/>
<path fill="none" stroke-width="0.59776" stroke-linecap="butt" stroke-linejoin="miter" stroke="rgb(0%, 0%, 0%)" stroke-opacity="1" stroke-miterlimit="10" d="M 0.000109315 -126.995872 L 65.904557 -126.995872 " transform="matrix(0.996886, 0, 0, -0.996886, 22.101454, 13.614442)"/>
<path fill-rule="nonzero" fill="rgb(0%, 0%, 0%)" fill-opacity="1" stroke-width="0.59776" stroke-linecap="butt" stroke-linejoin="miter" stroke="rgb(0%, 0%, 0%)" stroke-opacity="1" stroke-miterlimit="10" d="M 4.25314 -0.00155163 L 0.965558 1.240598 L 2.054888 -0.00155163 L 0.965558 -1.243701 Z M 4.25314 -0.00155163 " transform="matrix(0.996886, 0, 0, -0.996886, 85.90073, 140.213297)"/>
<path fill="none" stroke-width="0.59776" stroke-linecap="butt" stroke-linejoin="miter" stroke="rgb(0%, 0%, 0%)" stroke-opacity="1" stroke-miterlimit="10" d="M 100.978622 -126.995872 L 160.915267 -126.995872 " transform="matrix(0.996886, 0, 0, -0.996886, 22.101454, 13.614442)"/>
<path fill-rule="nonzero" fill="rgb(0%, 0%, 0%)" fill-opacity="1" stroke-width="0.59776" stroke-linecap="butt" stroke-linejoin="miter" stroke="rgb(0%, 0%, 0%)" stroke-opacity="1" stroke-miterlimit="10" d="M 4.25222 -0.00155163 L 0.964639 1.240598 L 2.053968 -0.00155163 L 0.964639 -1.243701 Z M 4.25222 -0.00155163 " transform="matrix(0.996886, 0, 0, -0.996886, 180.61649, 140.213297)"/>
<path fill-rule="nonzero" fill="rgb(0%, 0%, 0%)" fill-opacity="1" d="M 23.292969 140.214844 C 23.292969 139.554688 22.757812 139.023438 22.101562 139.023438 C 21.441406 139.023438 20.910156 139.554688 20.910156 140.214844 C 20.910156 140.871094 21.441406 141.40625 22.101562 141.40625 C 22.757812 141.40625 23.292969 140.871094 23.292969 140.214844 Z M 23.292969 140.214844 "/>
<path fill="none" stroke-width="0.59776" stroke-linecap="butt" stroke-linejoin="miter" stroke="rgb(0%, 0%, 0%)" stroke-opacity="1" stroke-miterlimit="10" d="M 170.080527 -158.743171 L 104.176079 -158.743171 " transform="matrix(0.996886, 0, 0, -0.996886, 22.101454, 13.614442)"/>
<path fill-rule="nonzero" fill="rgb(0%, 0%, 0%)" fill-opacity="1" stroke-width="0.59776" stroke-linecap="butt" stroke-linejoin="miter" stroke="rgb(0%, 0%, 0%)" stroke-opacity="1" stroke-miterlimit="10" d="M 4.249435 0.000421339 L 0.965772 1.242571 L 2.055102 0.000421339 L 0.965772 -1.241728 Z M 4.249435 0.000421339 " transform="matrix(-0.996886, 0, 0, 0.996886, 127.85339, 171.862861)"/>
<path fill="none" stroke-width="0.59776" stroke-linecap="butt" stroke-linejoin="miter" stroke="rgb(0%, 0%, 0%)" stroke-opacity="1" stroke-miterlimit="10" d="M 69.102014 -158.743171 L 9.165369 -158.743171 " transform="matrix(0.996886, 0, 0, -0.996886, 22.101454, 13.614442)"/>
<path fill-rule="nonzero" fill="rgb(0%, 0%, 0%)" fill-opacity="1" stroke-width="0.59776" stroke-linecap="butt" stroke-linejoin="miter" stroke="rgb(0%, 0%, 0%)" stroke-opacity="1" stroke-miterlimit="10" d="M 4.252434 0.000421339 L 0.964852 1.242571 L 2.054182 0.000421339 L 0.964852 -1.241728 Z M 4.252434 0.000421339 " transform="matrix(-0.996886, 0, 0, 0.996886, 33.137629, 171.862861)"/>
<path fill-rule="nonzero" fill="rgb(0%, 0%, 0%)" fill-opacity="1" d="M 192.84375 171.863281 C 192.84375 171.203125 192.3125 170.671875 191.652344 170.671875 C 190.996094 170.671875 190.460938 171.203125 190.460938 171.863281 C 190.460938 172.519531 190.996094 173.054688 191.652344 173.054688 C 192.3125 173.054688 192.84375 172.519531 192.84375 171.863281 Z M 192.84375 171.863281 "/>
<g fill="rgb(39.99939%, 39.99939%, 39.99939%)" fill-opacity="1">
<use xlink:href="#glyph-3-5" x="218.773567" y="43.123811"/>
<use xlink:href="#glyph-3-6" x="221.095578" y="43.123811"/>
<use xlink:href="#glyph-3-7" x="224.536883" y="43.123811"/>
<use xlink:href="#glyph-3-8" x="228.200656" y="43.123811"/>
<use xlink:href="#glyph-3-9" x="231.871382" y="43.123811"/>
</g>
<g fill="rgb(39.99939%, 39.99939%, 39.99939%)" fill-opacity="1">
<use xlink:href="#glyph-3-10" x="236.779586" y="43.123811"/>
</g>
<g fill="rgb(39.99939%, 39.99939%, 39.99939%)" fill-opacity="1">
<use xlink:href="#glyph-3-5" x="218.773567" y="92.858951"/>
<use xlink:href="#glyph-3-6" x="221.095578" y="92.858951"/>
<use xlink:href="#glyph-3-7" x="224.536883" y="92.858951"/>
<use xlink:href="#glyph-3-8" x="228.200656" y="92.858951"/>
<use xlink:href="#glyph-3-9" x="231.871382" y="92.858951"/>
</g>
<g fill="rgb(39.99939%, 39.99939%, 39.99939%)" fill-opacity="1">
<use xlink:href="#glyph-3-11" x="236.779586" y="92.858951"/>
</g>
<g fill="rgb(39.99939%, 39.99939%, 39.99939%)" fill-opacity="1">
<use xlink:href="#glyph-3-5" x="218.773567" y="142.528385"/>
<use xlink:href="#glyph-3-6" x="221.095578" y="142.528385"/>
<use xlink:href="#glyph-3-7" x="224.536883" y="142.528385"/>
<use xlink:href="#glyph-3-8" x="228.200656" y="142.528385"/>
<use xlink:href="#glyph-3-9" x="231.871382" y="142.528385"/>
</g>
<g fill="rgb(39.99939%, 39.99939%, 39.99939%)" fill-opacity="1">
<use xlink:href="#glyph-3-12" x="236.779586" y="142.528385"/>
</g>
<g fill="rgb(39.99939%, 39.99939%, 39.99939%)" fill-opacity="1">
<use xlink:href="#glyph-3-5" x="218.773567" y="174.244003"/>
<use xlink:href="#glyph-3-6" x="221.095578" y="174.244003"/>
<use xlink:href="#glyph-3-7" x="224.536883" y="174.244003"/>
<use xlink:href="#glyph-3-8" x="228.200656" y="174.244003"/>
<use xlink:href="#glyph-3-9" x="231.871382" y="174.244003"/>
</g>
<g fill="rgb(39.99939%, 39.99939%, 39.99939%)" fill-opacity="1">
<use xlink:href="#glyph-3-13" x="236.779586" y="174.244003"/>
</g>
<g fill="rgb(0%, 0%, 0%)" fill-opacity="1">
<use xlink:href="#glyph-5-0" x="76.665768" y="221.544597"/>
<use xlink:href="#glyph-5-1" x="79.658807" y="221.544597"/>
<use xlink:href="#glyph-5-2" x="82.854432" y="221.544597"/>
<use xlink:href="#glyph-5-3" x="84.795333" y="221.544597"/>
<use xlink:href="#glyph-5-4" x="87.938677" y="221.544597"/>
<use xlink:href="#glyph-5-5" x="92.918363" y="221.544597"/>
<use xlink:href="#glyph-5-6" x="96.100917" y="221.544597"/>
<use xlink:href="#glyph-5-7" x="97.434062" y="221.544597"/>
</g>
<g fill="rgb(0%, 0%, 0%)" fill-opacity="1">
<use xlink:href="#glyph-1-1" x="100.322549" y="221.544597"/>
<use xlink:href="#glyph-1-2" x="102.929599" y="221.544597"/>
</g>
<g fill="rgb(0%, 0%, 0%)" fill-opacity="1">
<use xlink:href="#glyph-1-3" x="107.573622" y="221.544597"/>
</g>
<g fill="rgb(0%, 0%, 0%)" fill-opacity="1">
<use xlink:href="#glyph-1-4" x="111.626715" y="221.544597"/>
<use xlink:href="#glyph-1-5" x="114.908121" y="221.544597"/>
</g>
<g fill="rgb(0%, 0%, 0%)" fill-opacity="1">
<use xlink:href="#glyph-1-6" x="119.447862" y="221.544597"/>
</g>
<g fill="rgb(0%, 0%, 0%)" fill-opacity="1">
<use xlink:href="#glyph-1-7" x="125.308509" y="221.544597"/>
</g>
<g fill="rgb(0%, 0%, 0%)" fill-opacity="1">
<use xlink:href="#glyph-1-3" x="128.986186" y="221.544597"/>
</g>
<g fill="rgb(0%, 0%, 0%)" fill-opacity="1">
<use xlink:href="#glyph-1-8" x="133.039279" y="221.544597"/>
</g>
</svg>
